<svg width="30" height="24" viewBox="0 0 30 24" fill="none" xmlns="http://www.w3.org/2000/svg">
<path d="M7.41298 16.9171L14.0521 10.2779C14.882 8.89479 17.2082 5.32254 17.3717 4.46872C17.5353 3.6149 16.2263 3.14845 15.7119 3.63882C15.1975 4.1292 11.3965 7.12438 10.7326 7.78829C10.0686 8.45221 7.13635 13.0443 5.7532 15.2573C5.33619 15.9213 6.68597 16.6405 7.41298 16.9171ZM7.41298 16.9171L5.63641 15.9826C5.08314 16.2592 4.27057 17.1071 4.09351 17.747C3.88311 18.5073 4.09351 19.9166 4.09351 20.4699C4.62359 20.2048 5.59462 19.6458 6.2676 18.9982C6.99945 18.294 7.41298 17.2629 7.41298 16.9171Z" stroke="#D9D9D9" stroke-width="0.5"/>
<path d="M4 20.5412H24.1766C25.2753 20.6347 26.2662 20.4139 26 19.3489C25.7195 18.2268 13 19.3489 13 18.3671C13 17.3852 15.9455 17.3852 17.8391 17.3852C19.7327 17.3852 20.0132 16.0527 17.8391 16.0527C15.665 16.0527 15.1741 16.0527 15.1741 16.0527" stroke="#D9D9D9" stroke-width="0.5"/>
</svg>
