<svg width="69" height="24" viewBox="0 0 69 24" fill="none" xmlns="http://www.w3.org/2000/svg">
<rect x="2.26245" y="11.2287" width="10.8963" height="13.0849" transform="rotate(-24.5488 2.26245 11.2287)" stroke="#D9D9D9" stroke-width="0.6"/>
<path d="M16.0251 11.4898L15.9836 11.5014L15.9636 11.5395L13.7412 15.762L13.5823 16.064L13.8791 15.8955L17.9904 13.562L18.0238 13.5431L18.0359 13.5067L18.9249 10.8399L18.9844 10.6612L18.803 10.712L16.0251 11.4898ZM22.3595 5.13973L22.3415 5.15193L22.3302 5.17049L19.219 10.2819L19.3586 10.4179L24.3588 7.19553L24.375 7.18507L24.3862 7.16932L28.7198 1.05792L28.5821 0.91733L22.3595 5.13973Z" fill="#D9D9D9" stroke="#545353" stroke-width="0.2"/>
<path d="M5.57294 12.6891L11.2092 10.1855" stroke="#D9D9D9" stroke-width="0.6" stroke-linecap="round"/>
<path d="M6.36157 14.4645L11.9978 11.961" stroke="#D9D9D9" stroke-width="0.6" stroke-linecap="round"/>
<path d="M7.15021 16.24L12.7864 13.7365" stroke="#D9D9D9" stroke-width="0.6" stroke-linecap="round"/>
<path d="M7.93884 18.0155L13.5751 15.512" stroke="#D9D9D9" stroke-width="0.6" stroke-linecap="round"/>
<path d="M8.72748 19.791L14.3637 17.2874" stroke="#D9D9D9" stroke-width="0.6" stroke-linecap="round"/>
<path d="M37.6533 21V1.8H40.5093C41.4933 1.8 42.2013 1.984 42.6333 2.352C43.0653 2.712 43.2853 3.312 43.2933 4.152C43.3093 5.264 43.3173 6.208 43.3173 6.984C43.3253 7.76 43.3173 8.528 43.2933 9.288C43.2693 9.864 43.1493 10.312 42.9333 10.632C42.7173 10.952 42.3573 11.168 41.8533 11.28V11.52C42.3813 11.64 42.7613 11.86 42.9933 12.18C43.2333 12.5 43.3653 12.944 43.3893 13.512C43.4293 14.456 43.4453 15.316 43.4373 16.092C43.4293 16.86 43.4133 17.712 43.3893 18.648C43.3653 19.488 43.1373 20.092 42.7053 20.46C42.2813 20.82 41.5813 21 40.6053 21H37.6533ZM38.6133 20.04H40.6053C41.3173 20.04 41.7933 19.948 42.0333 19.764C42.2733 19.572 42.4053 19.2 42.4293 18.648C42.4693 17.712 42.4893 16.856 42.4893 16.08C42.4893 15.304 42.4693 14.448 42.4293 13.512C42.4053 12.872 42.2733 12.44 42.0333 12.216C41.7933 11.992 41.3493 11.88 40.7013 11.88H38.6133V20.04ZM38.6133 10.92H40.7973C41.3973 10.92 41.7973 10.808 41.9973 10.584C42.1973 10.352 42.3093 9.92 42.3333 9.288C42.3733 8.352 42.3893 7.496 42.3813 6.72C42.3733 5.944 42.3573 5.088 42.3333 4.152C42.3253 3.584 42.1973 3.204 41.9493 3.012C41.7013 2.812 41.2213 2.712 40.5093 2.712H38.6133V10.92ZM46.4658 21V1.8H47.4258V20.088H51.7218V21H46.4658ZM56.017 21.12C55.025 21.12 54.309 20.916 53.869 20.508C53.429 20.1 53.201 19.424 53.185 18.48C53.169 17.096 53.157 15.828 53.149 14.676C53.141 13.516 53.137 12.4 53.137 11.328C53.137 10.248 53.141 9.144 53.149 8.016C53.157 6.888 53.169 5.664 53.185 4.344C53.201 3.392 53.429 2.712 53.869 2.304C54.309 1.888 55.025 1.68 56.017 1.68C57.017 1.68 57.737 1.888 58.177 2.304C58.617 2.712 58.841 3.392 58.849 4.344C58.865 5.664 58.877 6.888 58.885 8.016C58.901 9.144 58.909 10.248 58.909 11.328C58.909 12.4 58.901 13.516 58.885 14.676C58.877 15.828 58.865 17.096 58.849 18.48C58.841 19.424 58.617 20.1 58.177 20.508C57.737 20.916 57.017 21.12 56.017 21.12ZM56.017 20.208C56.737 20.208 57.225 20.092 57.481 19.86C57.745 19.62 57.881 19.16 57.889 18.48C57.913 17.048 57.929 15.772 57.937 14.652C57.953 13.524 57.961 12.448 57.961 11.424C57.961 10.392 57.953 9.316 57.937 8.196C57.929 7.068 57.913 5.784 57.889 4.344C57.881 3.656 57.745 3.192 57.481 2.952C57.225 2.712 56.737 2.592 56.017 2.592C55.297 2.592 54.809 2.712 54.553 2.952C54.297 3.192 54.161 3.656 54.145 4.344C54.121 5.744 54.101 6.996 54.085 8.1C54.077 9.204 54.073 10.272 54.073 11.304C54.073 12.328 54.077 13.412 54.085 14.556C54.101 15.692 54.121 17 54.145 18.48C54.161 19.16 54.297 19.62 54.553 19.86C54.809 20.092 55.297 20.208 56.017 20.208ZM64.5036 21.12C63.7836 21.12 63.2116 21.04 62.7876 20.88C62.3636 20.712 62.0556 20.448 61.8636 20.088C61.6796 19.72 61.5836 19.24 61.5756 18.648C61.5596 17.352 61.5476 16.112 61.5396 14.928C61.5316 13.736 61.5276 12.56 61.5276 11.4C61.5276 10.24 61.5316 9.068 61.5396 7.884C61.5476 6.692 61.5596 5.448 61.5756 4.152C61.5836 3.56 61.6796 3.084 61.8636 2.724C62.0556 2.356 62.3596 2.092 62.7756 1.932C63.1996 1.764 63.7676 1.68 64.4796 1.68C65.5356 1.68 66.2756 1.872 66.6996 2.256C67.1316 2.632 67.3596 3.264 67.3836 4.152C67.4076 4.904 67.4196 5.572 67.4196 6.156C67.4196 6.732 67.4076 7.4 67.3836 8.16H66.4236C66.4476 7.4 66.4596 6.732 66.4596 6.156C66.4596 5.572 66.4476 4.904 66.4236 4.152C66.3996 3.536 66.2636 3.124 66.0156 2.916C65.7756 2.7 65.2636 2.592 64.4796 2.592C63.6876 2.592 63.1676 2.7 62.9196 2.916C62.6796 3.124 62.5516 3.536 62.5356 4.152C62.5116 5.576 62.4916 6.872 62.4756 8.04C62.4676 9.2 62.4636 10.32 62.4636 11.4C62.4636 12.48 62.4676 13.604 62.4756 14.772C62.4916 15.932 62.5116 17.224 62.5356 18.648C62.5516 19.256 62.6836 19.668 62.9316 19.884C63.1796 20.1 63.7036 20.208 64.5036 20.208C65.3356 20.208 65.8756 20.1 66.1236 19.884C66.3796 19.668 66.5116 19.256 66.5196 18.648C66.5276 18.136 66.5316 17.672 66.5316 17.256C66.5396 16.832 66.5396 16.412 66.5316 15.996C66.5316 15.572 66.5276 15.104 66.5196 14.592H64.2876V13.632H67.4796C67.4956 14.784 67.5036 15.724 67.5036 16.452C67.5036 17.18 67.4956 17.912 67.4796 18.648C67.4716 19.536 67.2476 20.172 66.8076 20.556C66.3676 20.932 65.5996 21.12 64.5036 21.12Z" fill="#D9D9D9"/>
</svg>
