<svg width="99" height="24" viewBox="0 0 99 24" fill="none" xmlns="http://www.w3.org/2000/svg">
<circle cx="10.5193" cy="16.8169" r="2.31406" fill="#D9D9D9"/>
<circle cx="20.635" cy="20.4622" r="2.31406" fill="#D9D9D9"/>
<path fill-rule="evenodd" clip-rule="evenodd" d="M12.8135 0.551156L12.8134 17.2319L12.2027 17.4576L12.2027 0.339901L12.8135 0.551156Z" fill="#D9D9D9"/>
<path d="M22.4293 20.8773V3.97079" stroke="#D9D9D9" stroke-width="0.6"/>
<path d="M12.6333 0.796997L22.6238 4.25191M12.617 4.1754L22.5962 8.11192" stroke="#D9D9D9" stroke-width="0.6"/>
<path d="M40.1973 21.144C39.2373 21.144 38.5253 20.956 38.0613 20.58C37.5973 20.196 37.3573 19.56 37.3413 18.672C37.3253 17.336 37.3133 16.076 37.3053 14.892C37.2973 13.708 37.2933 12.552 37.2933 11.424C37.2933 10.288 37.2973 9.128 37.3053 7.944C37.3133 6.76 37.3253 5.504 37.3413 4.176C37.3573 3.288 37.5933 2.656 38.0493 2.28C38.5053 1.896 39.2133 1.704 40.1733 1.704C41.1733 1.704 41.9053 1.896 42.3693 2.28C42.8413 2.656 43.1013 3.288 43.1493 4.176C43.1733 4.68 43.1893 5.14 43.1973 5.556C43.2053 5.972 43.2053 6.388 43.1973 6.804C43.1893 7.22 43.1733 7.68 43.1493 8.184H42.1893C42.2053 7.68 42.2133 7.22 42.2133 6.804C42.2213 6.388 42.2213 5.972 42.2133 5.556C42.2133 5.14 42.2053 4.68 42.1893 4.176C42.1653 3.56 42.0053 3.148 41.7093 2.94C41.4213 2.724 40.9093 2.616 40.1733 2.616C39.5013 2.616 39.0253 2.724 38.7453 2.94C38.4653 3.148 38.3173 3.56 38.3013 4.176C38.2693 5.648 38.2453 6.96 38.2293 8.112C38.2213 9.264 38.2173 10.368 38.2173 11.424C38.2173 12.472 38.2213 13.572 38.2293 14.724C38.2453 15.876 38.2693 17.192 38.3013 18.672C38.3173 19.28 38.4653 19.692 38.7453 19.908C39.0333 20.124 39.5173 20.232 40.1973 20.232C40.9573 20.232 41.4893 20.124 41.7933 19.908C42.0973 19.692 42.2613 19.28 42.2853 18.672C42.3013 18.304 42.3093 17.92 42.3093 17.52C42.3093 17.12 42.3053 16.66 42.2973 16.14C42.2893 15.612 42.2773 14.976 42.2613 14.232H43.2213C43.2613 15.216 43.2853 16.032 43.2933 16.68C43.3013 17.32 43.2853 17.984 43.2453 18.672C43.1973 19.56 42.9333 20.196 42.4533 20.58C41.9733 20.956 41.2213 21.144 40.1973 21.144ZM45.0147 21L46.7427 1.8H49.4307L51.1587 21H50.1747L49.6467 14.784H46.5267L45.9987 21H45.0147ZM46.5987 13.872H49.5747L49.2387 9.912L48.5667 2.712H47.6067L46.9347 9.936L46.5987 13.872ZM54.1825 21V2.712H51.4945V1.8H57.8305V2.712H55.1425V21H54.1825ZM59.7548 21V1.8H64.7708V2.712H60.7148V10.944H64.5308V11.856H60.7148V20.088H64.7708V21H59.7548ZM69.9177 21.12C69.1977 21.12 68.6257 21.04 68.2017 20.88C67.7777 20.712 67.4697 20.448 67.2777 20.088C67.0937 19.72 66.9977 19.24 66.9897 18.648C66.9737 17.352 66.9617 16.112 66.9537 14.928C66.9457 13.736 66.9417 12.56 66.9417 11.4C66.9417 10.24 66.9457 9.068 66.9537 7.884C66.9617 6.692 66.9737 5.448 66.9897 4.152C66.9977 3.56 67.0937 3.084 67.2777 2.724C67.4697 2.356 67.7737 2.092 68.1897 1.932C68.6137 1.764 69.1817 1.68 69.8937 1.68C70.9497 1.68 71.6897 1.872 72.1137 2.256C72.5457 2.632 72.7737 3.264 72.7977 4.152C72.8217 4.904 72.8337 5.572 72.8337 6.156C72.8337 6.732 72.8217 7.4 72.7977 8.16H71.8377C71.8617 7.4 71.8737 6.732 71.8737 6.156C71.8737 5.572 71.8617 4.904 71.8377 4.152C71.8137 3.536 71.6777 3.124 71.4297 2.916C71.1897 2.7 70.6777 2.592 69.8937 2.592C69.1017 2.592 68.5817 2.7 68.3337 2.916C68.0937 3.124 67.9657 3.536 67.9497 4.152C67.9257 5.576 67.9057 6.872 67.8897 8.04C67.8817 9.2 67.8777 10.32 67.8777 11.4C67.8777 12.48 67.8817 13.604 67.8897 14.772C67.9057 15.932 67.9257 17.224 67.9497 18.648C67.9657 19.256 68.0977 19.668 68.3457 19.884C68.5937 20.1 69.1177 20.208 69.9177 20.208C70.7497 20.208 71.2897 20.1 71.5377 19.884C71.7937 19.668 71.9257 19.256 71.9337 18.648C71.9417 18.136 71.9457 17.672 71.9457 17.256C71.9537 16.832 71.9537 16.412 71.9457 15.996C71.9457 15.572 71.9417 15.104 71.9337 14.592H69.7017V13.632H72.8937C72.9097 14.784 72.9177 15.724 72.9177 16.452C72.9177 17.18 72.9097 17.912 72.8937 18.648C72.8857 19.536 72.6617 20.172 72.2217 20.556C71.7817 20.932 71.0137 21.12 69.9177 21.12ZM78.2123 21.12C77.2203 21.12 76.5043 20.916 76.0643 20.508C75.6243 20.1 75.3963 19.424 75.3803 18.48C75.3643 17.096 75.3523 15.828 75.3443 14.676C75.3363 13.516 75.3323 12.4 75.3323 11.328C75.3323 10.248 75.3363 9.144 75.3443 8.016C75.3523 6.888 75.3643 5.664 75.3803 4.344C75.3963 3.392 75.6243 2.712 76.0643 2.304C76.5043 1.888 77.2203 1.68 78.2123 1.68C79.2123 1.68 79.9323 1.888 80.3723 2.304C80.8123 2.712 81.0363 3.392 81.0443 4.344C81.0603 5.664 81.0723 6.888 81.0803 8.016C81.0963 9.144 81.1043 10.248 81.1043 11.328C81.1043 12.4 81.0963 13.516 81.0803 14.676C81.0723 15.828 81.0603 17.096 81.0443 18.48C81.0363 19.424 80.8123 20.1 80.3723 20.508C79.9323 20.916 79.2123 21.12 78.2123 21.12ZM78.2123 20.208C78.9323 20.208 79.4203 20.092 79.6763 19.86C79.9403 19.62 80.0763 19.16 80.0843 18.48C80.1083 17.048 80.1243 15.772 80.1323 14.652C80.1483 13.524 80.1563 12.448 80.1563 11.424C80.1563 10.392 80.1483 9.316 80.1323 8.196C80.1243 7.068 80.1083 5.784 80.0843 4.344C80.0763 3.656 79.9403 3.192 79.6763 2.952C79.4203 2.712 78.9323 2.592 78.2123 2.592C77.4923 2.592 77.0043 2.712 76.7483 2.952C76.4923 3.192 76.3563 3.656 76.3403 4.344C76.3163 5.744 76.2963 6.996 76.2803 8.1C76.2723 9.204 76.2683 10.272 76.2683 11.304C76.2683 12.328 76.2723 13.412 76.2803 14.556C76.2963 15.692 76.3163 17 76.3403 18.48C76.3563 19.16 76.4923 19.62 76.7483 19.86C77.0043 20.092 77.4923 20.208 78.2123 20.208ZM84.083 21V1.8H86.987C87.867 1.8 88.503 1.976 88.895 2.328C89.295 2.672 89.507 3.24 89.531 4.032C89.563 4.96 89.583 5.816 89.591 6.6C89.607 7.376 89.607 8.12 89.591 8.832C89.583 9.536 89.563 10.248 89.531 10.968C89.507 11.544 89.387 12 89.171 12.336C88.963 12.664 88.635 12.896 88.187 13.032L89.963 21H88.955L87.227 13.176H85.043V21H84.083ZM85.043 12.264H86.963C87.579 12.264 87.999 12.176 88.223 12C88.447 11.816 88.563 11.472 88.571 10.968C88.595 10.056 88.615 9.252 88.631 8.556C88.647 7.852 88.651 7.152 88.643 6.456C88.635 5.752 88.611 4.944 88.571 4.032C88.547 3.512 88.427 3.164 88.211 2.988C87.995 2.804 87.587 2.712 86.987 2.712H85.043V12.264ZM94.105 21V14.04H93.361L91.537 1.8H92.545L93.409 7.656L94.201 13.056H94.969L95.761 7.656L96.625 1.8H97.633L95.809 14.04H95.065V21H94.105Z" fill="#D9D9D9"/>
</svg>
