<svg width="93" height="24" viewBox="0 0 93 24" fill="none" xmlns="http://www.w3.org/2000/svg">
<rect x="4.47651" y="3.94124" width="22.9936" height="16.1176" stroke="#D9D9D9" stroke-width="0.6"/>
<path d="M7.06537 6.91367L15.9224 11.1091L24.3132 6.91367" stroke="#D9D9D9" stroke-width="0.6" stroke-linecap="round" stroke-linejoin="round"/>
<path d="M40.1973 21.144C39.2373 21.144 38.5253 20.956 38.0613 20.58C37.5973 20.196 37.3573 19.56 37.3413 18.672C37.3253 17.336 37.3133 16.076 37.3053 14.892C37.2973 13.708 37.2933 12.552 37.2933 11.424C37.2933 10.288 37.2973 9.128 37.3053 7.944C37.3133 6.76 37.3253 5.504 37.3413 4.176C37.3573 3.288 37.5933 2.656 38.0493 2.28C38.5053 1.896 39.2133 1.704 40.1733 1.704C41.1733 1.704 41.9053 1.896 42.3693 2.28C42.8413 2.656 43.1013 3.288 43.1493 4.176C43.1733 4.68 43.1893 5.14 43.1973 5.556C43.2053 5.972 43.2053 6.388 43.1973 6.804C43.1893 7.22 43.1733 7.68 43.1493 8.184H42.1893C42.2053 7.68 42.2133 7.22 42.2133 6.804C42.2213 6.388 42.2213 5.972 42.2133 5.556C42.2133 5.14 42.2053 4.68 42.1893 4.176C42.1653 3.56 42.0053 3.148 41.7093 2.94C41.4213 2.724 40.9093 2.616 40.1733 2.616C39.5013 2.616 39.0253 2.724 38.7453 2.94C38.4653 3.148 38.3173 3.56 38.3013 4.176C38.2693 5.648 38.2453 6.96 38.2293 8.112C38.2213 9.264 38.2173 10.368 38.2173 11.424C38.2173 12.472 38.2213 13.572 38.2293 14.724C38.2453 15.876 38.2693 17.192 38.3013 18.672C38.3173 19.28 38.4653 19.692 38.7453 19.908C39.0333 20.124 39.5173 20.232 40.1973 20.232C40.9573 20.232 41.4893 20.124 41.7933 19.908C42.0973 19.692 42.2613 19.28 42.2853 18.672C42.3013 18.304 42.3093 17.92 42.3093 17.52C42.3093 17.12 42.3053 16.66 42.2973 16.14C42.2893 15.612 42.2773 14.976 42.2613 14.232H43.2213C43.2613 15.216 43.2853 16.032 43.2933 16.68C43.3013 17.32 43.2853 17.984 43.2453 18.672C43.1973 19.56 42.9333 20.196 42.4533 20.58C41.9733 20.956 41.2213 21.144 40.1973 21.144ZM48.4467 21.12C47.4547 21.12 46.7387 20.916 46.2987 20.508C45.8587 20.1 45.6307 19.424 45.6147 18.48C45.5987 17.096 45.5867 15.828 45.5787 14.676C45.5707 13.516 45.5667 12.4 45.5667 11.328C45.5667 10.248 45.5707 9.144 45.5787 8.016C45.5867 6.888 45.5987 5.664 45.6147 4.344C45.6307 3.392 45.8587 2.712 46.2987 2.304C46.7387 1.888 47.4547 1.68 48.4467 1.68C49.4467 1.68 50.1667 1.888 50.6067 2.304C51.0467 2.712 51.2707 3.392 51.2787 4.344C51.2947 5.664 51.3067 6.888 51.3147 8.016C51.3307 9.144 51.3387 10.248 51.3387 11.328C51.3387 12.4 51.3307 13.516 51.3147 14.676C51.3067 15.828 51.2947 17.096 51.2787 18.48C51.2707 19.424 51.0467 20.1 50.6067 20.508C50.1667 20.916 49.4467 21.12 48.4467 21.12ZM48.4467 20.208C49.1667 20.208 49.6547 20.092 49.9107 19.86C50.1747 19.62 50.3107 19.16 50.3187 18.48C50.3427 17.048 50.3587 15.772 50.3667 14.652C50.3827 13.524 50.3907 12.448 50.3907 11.424C50.3907 10.392 50.3827 9.316 50.3667 8.196C50.3587 7.068 50.3427 5.784 50.3187 4.344C50.3107 3.656 50.1747 3.192 49.9107 2.952C49.6547 2.712 49.1667 2.592 48.4467 2.592C47.7267 2.592 47.2387 2.712 46.9827 2.952C46.7267 3.192 46.5907 3.656 46.5747 4.344C46.5507 5.744 46.5307 6.996 46.5147 8.1C46.5067 9.204 46.5027 10.272 46.5027 11.304C46.5027 12.328 46.5067 13.412 46.5147 14.556C46.5307 15.692 46.5507 17 46.5747 18.48C46.5907 19.16 46.7267 19.62 46.9827 19.86C47.2387 20.092 47.7267 20.208 48.4467 20.208ZM54.3173 21V1.8H57.0773L57.9413 7.848L59.6933 20.088H60.6773V8.328V1.8H61.6373V21H58.8533L57.8213 13.8L56.2613 2.712H55.2773V11.184V21H54.3173ZM66.2528 21V2.712H63.5648V1.8H69.9008V2.712H67.2128V21H66.2528ZM70.2335 21L71.9615 1.8H74.6495L76.3775 21H75.3935L74.8655 14.784H71.7455L71.2175 21H70.2335ZM71.8175 13.872H74.7935L74.4575 9.912L73.7855 2.712H72.8255L72.1535 9.936L71.8175 13.872ZM81.3066 21.144C80.3466 21.144 79.6346 20.956 79.1706 20.58C78.7066 20.196 78.4666 19.56 78.4506 18.672C78.4346 17.336 78.4226 16.076 78.4146 14.892C78.4066 13.708 78.4026 12.552 78.4026 11.424C78.4026 10.288 78.4066 9.128 78.4146 7.944C78.4226 6.76 78.4346 5.504 78.4506 4.176C78.4666 3.288 78.7026 2.656 79.1586 2.28C79.6146 1.896 80.3226 1.704 81.2826 1.704C82.2826 1.704 83.0146 1.896 83.4786 2.28C83.9506 2.656 84.2106 3.288 84.2586 4.176C84.2826 4.68 84.2986 5.14 84.3066 5.556C84.3146 5.972 84.3146 6.388 84.3066 6.804C84.2986 7.22 84.2826 7.68 84.2586 8.184H83.2986C83.3146 7.68 83.3226 7.22 83.3226 6.804C83.3306 6.388 83.3306 5.972 83.3226 5.556C83.3226 5.14 83.3146 4.68 83.2986 4.176C83.2746 3.56 83.1146 3.148 82.8186 2.94C82.5306 2.724 82.0186 2.616 81.2826 2.616C80.6106 2.616 80.1346 2.724 79.8546 2.94C79.5746 3.148 79.4266 3.56 79.4106 4.176C79.3786 5.648 79.3546 6.96 79.3386 8.112C79.3306 9.264 79.3266 10.368 79.3266 11.424C79.3266 12.472 79.3306 13.572 79.3386 14.724C79.3546 15.876 79.3786 17.192 79.4106 18.672C79.4266 19.28 79.5746 19.692 79.8546 19.908C80.1426 20.124 80.6266 20.232 81.3066 20.232C82.0666 20.232 82.5986 20.124 82.9026 19.908C83.2066 19.692 83.3706 19.28 83.3946 18.672C83.4106 18.304 83.4186 17.92 83.4186 17.52C83.4186 17.12 83.4146 16.66 83.4066 16.14C83.3986 15.612 83.3866 14.976 83.3706 14.232H84.3306C84.3706 15.216 84.3946 16.032 84.4026 16.68C84.4106 17.32 84.3946 17.984 84.3546 18.672C84.3066 19.56 84.0426 20.196 83.5626 20.58C83.0826 20.956 82.3306 21.144 81.3066 21.144ZM88.1435 21V2.712H85.4555V1.8H91.7915V2.712H89.1035V21H88.1435Z" fill="#D9D9D9"/>
</svg>
