<svg width="75" height="24" viewBox="0 0 75 24" fill="none" xmlns="http://www.w3.org/2000/svg">
<path d="M15.7461 8.68276C18.0575 8.78409 20.3666 8.91503 22.5798 9.68015C23.5613 10.0194 24.393 10.6411 25.2541 11.1979C26.5589 12.0416 27.8484 12.9091 29.0936 13.8399L29.0879 13.8655L29.0629 13.873C27.0582 13.1061 25.0525 12.341 23.0484 11.5719C20.6137 10.6371 18.1802 9.69894 15.7461 8.76189C15.7138 8.73513 15.7149 8.70895 15.7461 8.68219V8.68276Z" fill="#D9D9D9"/>
<path d="M27.8121 3.74592C25.7705 2.93127 23.7256 2.12516 21.6897 1.29571C21.1915 1.09248 20.7018 1.22341 20.2127 1.24334C18.7421 1.30311 17.2725 1.39761 15.8024 1.47845C15.77 1.4517 15.7712 1.42494 15.8024 1.39818C17.3657 0.81808 18.9733 0.43438 20.6371 0.303444C22.0634 0.191295 23.3836 0.535144 24.6168 1.24789C25.7972 1.93047 26.9009 2.71438 27.845 3.70835C27.8439 3.72941 27.832 3.74137 27.8115 3.74535L27.8121 3.74592Z" fill="#D9D9D9"/>
<path d="M30.4263 7.95352C28.8238 7.29315 27.1856 6.70678 25.6286 5.95133C24.1999 5.25851 22.7201 5.04161 21.1739 5.02112C20.7314 5.01543 20.2895 4.9733 19.7828 4.9437C20.2645 4.55943 20.7598 4.30951 21.2762 4.09603C22.3952 3.6332 23.4876 3.66109 24.5782 4.21899C26.6488 5.27844 28.5744 6.56389 30.4581 7.91936L30.4518 7.94555L30.4263 7.95295V7.95352Z" fill="#D9D9D9"/>
<path d="M25.8552 23.0208C25.148 20.3571 24.635 17.7265 24.1317 15.0833C24.4345 15.6315 24.7373 16.1791 25.0395 16.7274C25.6768 17.8824 26.3119 19.0387 26.9555 20.1903C27.0265 20.3173 27.0424 20.418 26.9805 20.5518C26.6141 21.3454 26.2545 22.1424 25.8552 23.0208Z" fill="#D9D9D9"/>
<path d="M27.3468 9.10633C26.3505 8.86837 25.3802 8.63724 24.41 8.40497C22.1759 7.86984 19.9406 7.33699 17.7076 6.79616C17.2322 6.68117 16.7953 6.87131 16.3449 6.94076C15.5615 7.06145 14.7844 7.21915 14.0034 7.35634C13.9068 7.37342 13.7995 7.41669 13.6972 7.32332C14.7254 6.78022 15.7371 6.22574 16.8805 5.96102C17.4338 5.83293 17.9451 5.95077 18.4574 6.11359C21.284 7.01136 24.0942 7.95979 26.8975 8.92815C27.0412 8.97767 27.1804 9.04029 27.3468 9.1069V9.10633Z" fill="#D9D9D9"/>
<path d="M22.3441 19.2561C21.3438 16.8321 20.3434 14.4086 19.3425 11.9818C19.4175 11.9248 19.4567 12.008 19.5039 12.0398C20.0588 12.4167 20.5951 12.8186 21.1205 13.2365C21.6511 13.6583 21.9993 14.1536 22.089 14.8601C22.2742 16.3186 22.3401 17.7822 22.3447 19.2561H22.3441Z" fill="#D9D9D9"/>
<path d="M13.8341 22.55C12.9127 19.6563 11.9914 16.7627 11.0688 13.865C11.2109 13.8274 11.2529 13.9248 11.3063 13.9766C11.7619 14.4172 12.2066 14.8686 12.6634 15.3076C12.9559 15.5888 13.1343 15.8877 13.178 16.3254C13.387 18.4022 13.6438 20.4744 13.8841 22.5483C13.8682 22.5654 13.8517 22.566 13.8341 22.55Z" fill="#D9D9D9"/>
<path d="M21.6567 2.89939C19.2828 3.07757 16.909 3.25633 14.5345 3.43053C14.4164 3.43907 14.3158 3.47494 14.2141 3.5239C13.186 4.01804 12.1572 4.51275 11.1274 5.00347C11.0649 5.03308 11.0086 5.1031 10.8928 5.05528C11.7999 4.15467 12.6923 3.26544 13.8597 2.72063C14.1664 2.57774 14.4976 2.53675 14.8248 2.52764C17.1146 2.46616 19.3902 2.68761 21.6573 2.89939H21.6567Z" fill="#D9D9D9"/>
<path d="M10.4991 16.4012C10.7803 17.9064 11.0609 19.4116 11.3455 20.9162C11.3654 21.0221 11.3688 21.1137 11.3285 21.2179C11.0621 21.9039 10.7962 22.5899 10.5474 23.2821C10.4793 23.4711 10.431 23.4711 10.2929 23.3476C9.71977 22.8347 9.49824 22.2278 9.70273 21.4621C10.0186 20.2809 10.1413 19.0654 10.2901 17.8551C10.3497 17.3695 10.4037 16.8834 10.4605 16.3972L10.4997 16.4006L10.4991 16.4012Z" fill="#D9D9D9"/>
<path d="M8.62684 20.8587C8.62684 20.7607 8.62684 20.6634 8.62684 20.5655C8.62684 18.7756 8.63479 16.9852 8.62003 15.1954C8.61718 14.8681 8.67967 14.617 8.95517 14.4206C9.12218 14.3016 9.26078 14.1416 9.43404 13.9794C9.82656 14.8447 10.1714 15.6787 9.93051 16.6562C9.57889 18.08 9.13638 19.4736 8.62684 20.8587Z" fill="#D9D9D9"/>
<path d="M24.2561 13.3076C24.8071 13.6253 25.3587 13.9413 25.9086 14.2601C26.9776 14.8789 28.0467 15.4977 29.1141 16.1205C29.1913 16.1655 29.2913 16.1905 29.3237 16.2964C29.5634 17.0752 29.8048 17.854 29.9872 18.6709C28.0655 16.8993 26.1438 15.1277 24.222 13.3555L24.2561 13.3076Z" fill="#D9D9D9"/>
<path d="M18.1621 0C16.6096 0.436074 15.0572 0.873856 13.5041 1.30651C13.3632 1.34579 13.2485 1.40614 13.1428 1.51089C12.3657 2.28626 11.583 3.0565 10.8019 3.82789C10.7372 3.89165 10.6701 3.95256 10.5565 3.98558C10.619 3.86546 10.6809 3.74477 10.7445 3.62522C11.1604 2.84074 11.6239 2.08644 12.1135 1.34466C12.5702 0.652972 13.1781 0.305707 14.0051 0.233977C15.3883 0.114427 16.7721 0.0204943 18.1627 0.000569287L18.1621 0Z" fill="#D9D9D9"/>
<path d="M6.20699 8.0275C6.21437 7.97626 6.20983 7.91876 6.23085 7.87379C7.09769 6.05606 8.0344 4.28045 9.41475 2.78607C9.78853 2.38131 10.2089 2.03063 10.7451 1.85358C10.8139 1.83081 10.8883 1.82739 10.9917 1.80917C10.6054 2.74907 10.1214 3.5751 9.45679 4.31176C8.38772 5.49815 7.36921 6.73009 6.33082 7.94438C6.30072 7.97968 6.28424 8.02636 6.26095 8.06792L6.20642 8.02693L6.20699 8.0275Z" fill="#D9D9D9"/>
<path d="M4.77267 20.3759C5.38502 19.185 5.99738 17.994 6.61087 16.8037C6.8432 16.3522 7.07951 15.9025 7.3374 15.4072C7.60893 16.03 7.81456 16.6186 7.73788 17.2665C7.70777 17.5227 7.52599 17.7094 7.3658 17.8904C6.5694 18.7933 5.71506 19.6387 4.81698 20.4397C4.78176 20.4323 4.76699 20.4112 4.77267 20.3754V20.3759Z" fill="#D9D9D9"/>
<path d="M5.55203 14.6489C5.65655 15.0833 5.68268 15.4567 5.66166 15.8387C5.62417 16.5133 5.22995 16.9687 4.75449 17.3786C3.93139 18.0891 3.06058 18.7392 2.17897 19.374C2.11762 19.4184 2.06365 19.51 1.92505 19.4531C3.12704 17.8614 4.32221 16.2782 5.5526 14.6489H5.55203Z" fill="#D9D9D9"/>
<path d="M9.90782 11.922C9.49939 12.0433 9.09153 12.1674 8.68197 12.2852C6.79378 12.8283 4.90389 13.3657 3.0174 13.9168C2.84415 13.9674 2.76803 13.9458 2.68907 13.7858C2.50559 13.4147 2.30393 13.0526 2.11023 12.6894C2.17158 12.6142 2.22213 12.6826 2.25963 12.7008C3.14408 13.1334 4.02228 12.7759 4.8948 12.6632C6.3632 12.4736 7.82536 12.234 9.29092 12.0199C9.49712 11.9897 9.7073 11.9863 9.91577 11.9704L9.90782 11.9226V11.922Z" fill="#D9D9D9"/>
<path d="M20.1639 16.9426C20.7905 18.4227 21.3886 19.916 22.0578 21.3767C22.3378 21.9876 22.4145 22.5307 22.0896 23.129C21.9607 23.3664 21.8948 23.638 21.7607 24C21.2029 21.5879 20.6667 19.2704 20.131 16.9528L20.1639 16.9426Z" fill="#D9D9D9"/>
<path d="M5.33501 9.01977C4.27617 9.90899 3.27925 10.8865 1.95684 11.3817C1.76768 11.4529 1.70406 11.5559 1.71769 11.7552C1.73643 12.0245 1.72223 12.2966 1.72223 12.6359C1.42514 12.177 1.19622 11.7626 1.03035 11.3151C0.844032 10.8136 1.12408 10.3661 1.72053 10.3519C2.88446 10.3246 3.8598 9.79741 4.84763 9.28335C5.01123 9.19795 5.17255 9.10744 5.33501 9.0192V9.01977Z" fill="#D9D9D9"/>
<path d="M12.4419 10.4817H7.08858L7.08234 10.4379C7.9293 10.3007 8.77398 10.1504 9.62321 10.0303C10.2021 9.94831 10.7928 9.93977 11.3677 9.83843C11.9295 9.73938 12.2203 10.0115 12.4419 10.4817Z" fill="#D9D9D9"/>
<path d="M9.65675 12.5289C8.61495 13.0031 7.57429 13.4784 6.53021 13.9475C6.4575 13.98 6.36264 13.968 6.27857 13.968C5.50432 13.9692 4.7295 13.9686 3.94617 13.9185C5.84685 13.4335 7.74697 12.9484 9.64766 12.4634L9.65732 12.5283L9.65675 12.5289Z" fill="#D9D9D9"/>
<path d="M7.76965 9.71375C9.24146 9.0511 10.623 8.07705 12.456 8.36852C10.8411 8.83192 9.30509 9.27312 7.76965 9.71375Z" fill="#D9D9D9"/>
<path d="M13.8341 22.55C13.8506 22.5466 13.8671 22.546 13.8841 22.5483C13.988 22.6411 13.8778 22.7658 13.9489 22.907C13.9017 22.7601 13.8682 22.6553 13.8341 22.55Z" fill="#D9D9D9"/>
<path d="M15.803 1.39871V1.47898C15.7331 1.48467 15.6638 1.49094 15.4934 1.50517C15.6587 1.44824 15.7309 1.42376 15.803 1.39871Z" fill="#D9D9D9"/>
<path d="M15.7461 8.68276V8.76246L15.5576 8.7004C15.6291 8.64234 15.6876 8.66283 15.7461 8.68276Z" fill="#D9D9D9"/>
<path d="M27.565 9.14218L27.5133 9.12909L27.5048 9.16495C27.5138 9.16609 27.5241 9.17122 27.5309 9.16837C27.5428 9.16268 27.5525 9.15243 27.565 9.14218Z" fill="#D9D9D9"/>
<path d="M5.49179 8.96587L5.50437 8.94353L5.48779 8.94009L5.49179 8.96587Z" fill="#D9D9D9"/>
<path d="M24.0766 15.0093C24.0715 15.0144 24.0664 15.0195 24.0613 15.0246C24.059 15.0167 24.0539 15.0087 24.055 15.0018C24.0562 14.9956 24.0647 14.9905 24.0704 14.9848C24.0726 14.9927 24.0743 15.0013 24.0766 15.0093Z" fill="#D9D9D9"/>
<path d="M6.39126 8.40215L6.38383 8.42277C6.37583 8.41991 6.36668 8.41876 6.36097 8.4136C6.35868 8.41189 6.36497 8.40043 6.36725 8.39355L6.39069 8.40215H6.39126Z" fill="#D9D9D9"/>
<path d="M4.81699 20.4403L4.73406 20.4926C4.7102 20.442 4.7244 20.4033 4.77269 20.3765L4.81699 20.4408V20.4403Z" fill="#D9D9D9"/>
<path d="M13.1343 10.5984L13.0956 10.5585L13.1195 10.5517C13.1218 10.5688 13.1246 10.5859 13.1269 10.6029L13.1343 10.5978V10.5984Z" fill="#D9D9D9"/>
<path d="M29.0936 13.84L29.1311 13.8872C29.1084 13.8827 29.0857 13.8775 29.0624 13.873C29.072 13.8616 29.0823 13.8502 29.0931 13.84H29.0936Z" fill="#D9D9D9"/>
<path d="M6.60744 9.01123L6.55518 9.04766C6.56029 9.02432 6.5654 9.00098 6.57051 8.97821C6.58358 8.98846 6.59608 8.99927 6.60744 9.01123Z" fill="#D9D9D9"/>
<path d="M27.8456 3.70892L27.8826 3.74023C27.8593 3.74194 27.836 3.74422 27.8127 3.74593C27.8229 3.73283 27.8337 3.72031 27.8462 3.70892H27.8456Z" fill="#D9D9D9"/>
<path d="M15.6957 22.6719C15.6786 22.6838 15.661 22.6958 15.644 22.7083C15.6457 22.6849 15.6468 22.661 15.6485 22.6377C15.6644 22.6491 15.6798 22.661 15.6957 22.6724V22.6719Z" fill="#D9D9D9"/>
<path fill-rule="evenodd" clip-rule="evenodd" d="M15.6485 22.6372C16.0763 21.5179 16.3211 20.3686 16.3188 19.1611C16.3166 17.9881 15.9125 16.9239 15.5084 15.8597L15.5084 15.8597L15.4775 15.7784C14.8271 14.0631 14.0341 12.4111 13.1985 10.7795C13.1788 10.7411 13.1659 10.6989 13.153 10.6569C13.1473 10.6383 13.1417 10.6197 13.1354 10.6015C13.2353 10.579 13.2996 10.6366 13.3623 10.6928L13.3623 10.6928C13.3862 10.7143 13.41 10.7356 13.4354 10.7522L13.7441 10.9531C14.5549 11.4814 15.3675 12.0109 16.2279 12.505L14.8838 10.0847L14.3715 9.16214C14.572 9.2851 14.7636 9.40139 14.9486 9.51374L14.9487 9.51376L14.9487 9.51377C15.3488 9.7567 15.7186 9.9812 16.0825 10.2148C16.7341 10.6332 17.3652 11.0801 17.9622 11.5771C18.4382 11.9733 18.6103 12.4828 18.6467 13.0697C18.7473 14.6738 18.4775 16.2388 18.207 17.8085L18.1752 17.9929C17.9449 19.3337 17.2278 20.4152 16.5094 21.4986C16.3756 21.7004 16.2417 21.9023 16.1109 22.106C16.0261 22.2382 15.9301 22.3634 15.8342 22.4886L15.8342 22.4886C15.7876 22.5494 15.741 22.6103 15.6957 22.6719C15.6701 22.6736 15.6542 22.6622 15.6485 22.6372ZM13.1354 10.6015L13.127 10.6036L13.1343 10.5985L13.1354 10.6015ZM14.9828 12.76C15.1455 12.7839 15.259 12.8879 15.3701 12.9897C15.4018 13.0187 15.4332 13.0475 15.4656 13.0743C15.8682 13.4062 16.2676 13.7425 16.6669 14.0788L16.667 14.0788L16.667 14.0788C16.897 14.2726 17.1271 14.4663 17.3578 14.6592C17.5032 14.781 17.6009 14.9313 17.6071 15.1197C17.6445 16.206 17.434 17.261 17.2228 18.3193C17.2027 18.4196 17.1827 18.5199 17.1629 18.6203C16.7351 16.7175 15.9544 14.9545 15.1698 13.1828L15.1695 13.1822C15.1072 13.0416 15.0449 12.9009 14.9828 12.76ZM17.9355 12.8129C17.6622 12.4959 17.3521 12.2163 16.9437 11.9664H16.9431C17.0644 12.3494 17.1759 12.7023 17.2884 13.0583C17.3576 13.2775 17.4273 13.4979 17.4998 13.7272C17.5398 13.6591 17.5775 13.5954 17.6135 13.5349C17.7021 13.3857 17.7795 13.2553 17.8514 13.1221C17.8622 13.102 17.8756 13.081 17.8894 13.0594C17.9418 12.9773 17.9993 12.8873 17.9355 12.8129Z" fill="#D9D9D9"/>
<path fill-rule="evenodd" clip-rule="evenodd" d="M10.7923 5.68832C8.74107 6.03559 7.5226 7.33584 6.57056 8.97823V8.9788C6.57396 8.99987 6.58646 9.01011 6.60748 9.01182C6.93638 8.82737 7.28118 8.6822 7.63508 8.55184C7.70855 8.52475 7.78227 8.49815 7.85597 8.47156C8.55038 8.22106 9.2428 7.97127 9.70447 7.3125C9.78642 7.19544 9.86956 7.07926 9.9531 6.9625C10.2385 6.56369 10.5286 6.1582 10.7923 5.68832ZM7.52392 8.13314C7.49433 8.1697 7.46474 8.20625 7.43509 8.24271C7.42372 8.27289 7.43452 8.2837 7.46519 8.27801C7.57208 8.21913 7.68206 8.16358 7.79225 8.10792C8.3778 7.81215 8.96954 7.51325 9.13639 6.69539C8.42032 7.02591 7.9711 7.58078 7.52392 8.13314Z" fill="#D9D9D9"/>
<path d="M7.46577 8.27802C7.43737 8.32869 7.39987 8.3321 7.35443 8.30136C7.3817 8.28144 7.4084 8.26208 7.43566 8.24216C7.44532 8.25411 7.45554 8.26607 7.46577 8.27745V8.27802Z" fill="#D9D9D9"/>
<path d="M37.6533 21V1.8H38.6133V10.944H42.4533V1.8H43.4133V21H42.4533V11.856H38.6133V21H37.6533ZM49.2905 21.12C48.2985 21.12 47.5825 20.916 47.1425 20.508C46.7025 20.1 46.4745 19.424 46.4585 18.48C46.4425 17.096 46.4305 15.828 46.4225 14.676C46.4145 13.516 46.4105 12.4 46.4105 11.328C46.4105 10.248 46.4145 9.144 46.4225 8.016C46.4305 6.888 46.4425 5.664 46.4585 4.344C46.4745 3.392 46.7025 2.712 47.1425 2.304C47.5825 1.888 48.2985 1.68 49.2905 1.68C50.2905 1.68 51.0105 1.888 51.4505 2.304C51.8905 2.712 52.1145 3.392 52.1225 4.344C52.1385 5.664 52.1505 6.888 52.1585 8.016C52.1745 9.144 52.1825 10.248 52.1825 11.328C52.1825 12.4 52.1745 13.516 52.1585 14.676C52.1505 15.828 52.1385 17.096 52.1225 18.48C52.1145 19.424 51.8905 20.1 51.4505 20.508C51.0105 20.916 50.2905 21.12 49.2905 21.12ZM49.2905 20.208C50.0105 20.208 50.4985 20.092 50.7545 19.86C51.0185 19.62 51.1545 19.16 51.1625 18.48C51.1865 17.048 51.2025 15.772 51.2105 14.652C51.2265 13.524 51.2345 12.448 51.2345 11.424C51.2345 10.392 51.2265 9.316 51.2105 8.196C51.2025 7.068 51.1865 5.784 51.1625 4.344C51.1545 3.656 51.0185 3.192 50.7545 2.952C50.4985 2.712 50.0105 2.592 49.2905 2.592C48.5705 2.592 48.0825 2.712 47.8265 2.952C47.5705 3.192 47.4345 3.656 47.4185 4.344C47.3945 5.744 47.3745 6.996 47.3585 8.1C47.3505 9.204 47.3465 10.272 47.3465 11.304C47.3465 12.328 47.3505 13.412 47.3585 14.556C47.3745 15.692 47.3945 17 47.4185 18.48C47.4345 19.16 47.5705 19.62 47.8265 19.86C48.0825 20.092 48.5705 20.208 49.2905 20.208ZM55.1611 21V1.8H57.9451L58.8331 9.984L59.8411 19.968H60.2491L61.2571 9.984L62.1451 1.8H64.9291V21H63.9691V14.952V2.712H63.0091L61.6411 15.576L61.0891 20.88H59.0011L58.4491 15.576L57.0811 2.712H56.1211V14.952V21H55.1611ZM68.2861 21V1.8H73.3021V2.712H69.2461V10.944H73.0621V11.856H69.2461V20.088H73.3021V21H68.2861Z" fill="#D9D9D9"/>
</svg>
