<svg width="88" height="25" viewBox="0 0 88 25" fill="none" xmlns="http://www.w3.org/2000/svg">
<path d="M15.4256 16.3685V23.9209H4.03593L6.53629 15.2886L11.0983 12.8425L15.4256 16.3685Z" stroke="#D9D9D9" stroke-width="0.6"/>
<path d="M16.6875 16.3685V23.9209H28.0772L25.5769 15.2886L21.0149 12.8425L16.6875 16.3685Z" stroke="#D9D9D9" stroke-width="0.6"/>
<path d="M21.6034 7.37898C21.6034 10.7604 19.0871 13.458 16.0347 13.458C12.9823 13.458 10.4661 10.7604 10.4661 7.37898C10.4661 3.99761 12.9823 1.3 16.0347 1.3C19.0871 1.3 21.6034 3.99761 21.6034 7.37898Z" stroke="#D9D9D9" stroke-width="0.6"/>
<path d="M37.6533 21V1.8H40.3413C41.2213 1.8 41.8573 1.976 42.2493 2.328C42.6493 2.672 42.8613 3.24 42.8853 4.032C42.9253 5.328 42.9453 6.476 42.9453 7.476C42.9533 8.476 42.9333 9.48 42.8853 10.488C42.8533 11.28 42.6373 11.852 42.2373 12.204C41.8373 12.548 41.1973 12.72 40.3173 12.72H38.6133V21H37.6533ZM38.6133 11.808H40.3173C40.9413 11.808 41.3573 11.716 41.5653 11.532C41.7813 11.348 41.9013 11 41.9253 10.488C41.9573 9.744 41.9773 9.064 41.9853 8.448C42.0013 7.824 42.0013 7.168 41.9853 6.48C41.9773 5.792 41.9573 4.976 41.9253 4.032C41.9173 3.512 41.8013 3.164 41.5773 2.988C41.3533 2.804 40.9413 2.712 40.3413 2.712H38.6133V11.808ZM45.458 21V1.8H48.362C49.242 1.8 49.878 1.976 50.27 2.328C50.67 2.672 50.882 3.24 50.906 4.032C50.938 4.96 50.958 5.816 50.966 6.6C50.982 7.376 50.982 8.12 50.966 8.832C50.958 9.536 50.938 10.248 50.906 10.968C50.882 11.544 50.762 12 50.546 12.336C50.338 12.664 50.01 12.896 49.562 13.032L51.338 21H50.33L48.602 13.176H46.418V21H45.458ZM46.418 12.264H48.338C48.954 12.264 49.374 12.176 49.598 12C49.822 11.816 49.938 11.472 49.946 10.968C49.97 10.056 49.99 9.252 50.006 8.556C50.022 7.852 50.026 7.152 50.018 6.456C50.01 5.752 49.986 4.944 49.946 4.032C49.922 3.512 49.802 3.164 49.586 2.988C49.37 2.804 48.962 2.712 48.362 2.712H46.418V12.264ZM56.392 21.12C55.4 21.12 54.684 20.916 54.244 20.508C53.804 20.1 53.576 19.424 53.56 18.48C53.544 17.096 53.532 15.828 53.524 14.676C53.516 13.516 53.512 12.4 53.512 11.328C53.512 10.248 53.516 9.144 53.524 8.016C53.532 6.888 53.544 5.664 53.56 4.344C53.576 3.392 53.804 2.712 54.244 2.304C54.684 1.888 55.4 1.68 56.392 1.68C57.392 1.68 58.112 1.888 58.552 2.304C58.992 2.712 59.216 3.392 59.224 4.344C59.24 5.664 59.252 6.888 59.26 8.016C59.276 9.144 59.284 10.248 59.284 11.328C59.284 12.4 59.276 13.516 59.26 14.676C59.252 15.828 59.24 17.096 59.224 18.48C59.216 19.424 58.992 20.1 58.552 20.508C58.112 20.916 57.392 21.12 56.392 21.12ZM56.392 20.208C57.112 20.208 57.6 20.092 57.856 19.86C58.12 19.62 58.256 19.16 58.264 18.48C58.288 17.048 58.304 15.772 58.312 14.652C58.328 13.524 58.336 12.448 58.336 11.424C58.336 10.392 58.328 9.316 58.312 8.196C58.304 7.068 58.288 5.784 58.264 4.344C58.256 3.656 58.12 3.192 57.856 2.952C57.6 2.712 57.112 2.592 56.392 2.592C55.672 2.592 55.184 2.712 54.928 2.952C54.672 3.192 54.536 3.656 54.52 4.344C54.496 5.744 54.476 6.996 54.46 8.1C54.452 9.204 54.448 10.272 54.448 11.304C54.448 12.328 54.452 13.412 54.46 14.556C54.476 15.692 54.496 17 54.52 18.48C54.536 19.16 54.672 19.62 54.928 19.86C55.184 20.092 55.672 20.208 56.392 20.208ZM62.2626 21V1.8H67.5186V2.712H63.2226V10.944H67.2786V11.856H63.2226V21H62.2626ZM69.7392 21V1.8H70.6992V21H69.7392ZM74.0517 21V1.8H75.0117V20.088H79.3077V21H74.0517ZM81.2236 21V1.8H86.2396V2.712H82.1836V10.944H85.9996V11.856H82.1836V20.088H86.2396V21H81.2236Z" fill="#D9D9D9"/>
</svg>
