<?xml version="1.0" standalone="no"?>
<!DOCTYPE svg PUBLIC "-//W3C//DTD SVG 1.1//EN" "http://www.w3.org/Graphics/SVG/1.1/DTD/svg11.dtd" >
<svg xmlns="http://www.w3.org/2000/svg" xmlns:xlink="http://www.w3.org/1999/xlink" version="1.1">
<metadata></metadata>
<defs>
<font id="noto_sans_jp_thinregular" horiz-adv-x="1000" vert-adv-y="1000" >
<font-face units-per-em="1000" ascent="800" descent="-200" />
<missing-glyph horiz-adv-x="500" />
<glyph horiz-adv-x="0" vert-adv-y="0" />
<glyph />
<glyph unicode="&#x2000;" horiz-adv-x="403" vert-adv-y="0" />
<glyph unicode="&#x2001;" horiz-adv-x="806" vert-adv-y="0" />
<glyph unicode="&#x2002;" horiz-adv-x="403" vert-adv-y="0" />
<glyph unicode="&#x2003;" horiz-adv-x="806" vert-adv-y="0" />
<glyph unicode="&#x2004;" horiz-adv-x="268" vert-adv-y="0" />
<glyph unicode="&#x2005;" horiz-adv-x="201" vert-adv-y="0" />
<glyph unicode="&#x2006;" horiz-adv-x="134" vert-adv-y="0" />
<glyph unicode="&#x2007;" horiz-adv-x="134" vert-adv-y="0" />
<glyph unicode="&#x2008;" horiz-adv-x="100" vert-adv-y="0" />
<glyph unicode="&#x2009;" horiz-adv-x="161" vert-adv-y="0" />
<glyph unicode="&#x200a;" horiz-adv-x="44" vert-adv-y="0" />
<glyph unicode="&#x202f;" horiz-adv-x="161" vert-adv-y="0" />
<glyph unicode="&#x205f;" horiz-adv-x="201" vert-adv-y="0" />
<glyph unicode="&#xff21;" d="M176 0l296 726h38l296 -726h-39l-105 258h-344l-105 -258h-37zM330 288h322l-60 152q-98 247 -99 249h-4q-4 -12 -98 -249z" />
<glyph unicode="&#xff22;" d="M258 0v726h227q135 0 200.5 -43t65.5 -133q0 -122 -127 -158v-5q85 -11 131 -57.5t46 -118.5q0 -111 -69 -161t-227 -50h-247zM294 33h191q149 0 214 39t65 137q0 84 -66.5 123t-217.5 39h-186v-338zM294 404h161q138 0 197.5 34t59.5 110q0 79 -57 112.5t-186 33.5h-175 v-290z" />
<glyph unicode="&#xff23;" d="M211 365q0 168 98 270.5t258 102.5q68 0 124 -24t91 -60l-24 -25q-75 75 -191 75q-144 0 -230.5 -93t-86.5 -246q0 -154 85.5 -248.5t225.5 -94.5q126 0 223 91l24 -24q-103 -101 -249 -101q-155 0 -251.5 104t-96.5 273z" />
<glyph unicode="&#xff24;" d="M242 0v726h185q192 0 286.5 -96.5t94.5 -263.5q0 -169 -94.5 -267.5t-285.5 -98.5h-186zM277 34h145q174 0 260.5 90.5t86.5 241.5q0 150 -86 238t-261 88h-145v-658z" />
<glyph unicode="&#xff25;" d="M298 0v726h454v-34h-418v-288h350v-34h-350v-336h430v-34h-466z" />
<glyph unicode="&#xff26;" d="M320 0v726h453v-34h-415v-302h351v-34h-351v-356h-38z" />
<glyph unicode="&#xff27;" d="M189 365q0 170 101 272t268 102q131 0 225 -87l-24 -25q-81 77 -201 77q-150 0 -240 -92.5t-90 -246.5q0 -155 87 -249t234 -94q61 0 116.5 15.5t86.5 42.5v238h-213v33h252v-283q-88 -81 -245 -81q-161 0 -259 104t-98 274z" />
<glyph unicode="&#xff28;" d="M223 0v726h37v-322h480v322h38v-726h-38v371h-480v-371h-37z" />
<glyph unicode="&#xff29;" d="M272 0v34h210v658h-210v34h456v-34h-210v-658h210v-34h-456z" />
<glyph unicode="&#xff2a;" d="M268 93l31 20q61 -91 171 -91q163 0 163 175v529h38v-534q0 -93 -48.5 -148.5t-153.5 -55.5q-132 0 -201 105z" />
<glyph unicode="&#xff2b;" d="M268 0v726h37v-419h4l435 419h47l-273 -267l310 -459h-44l-293 435l-186 -180v-255h-37z" />
<glyph unicode="&#xff2c;" d="M327 0v726h37v-693h402v-33h-439z" />
<glyph unicode="&#xff2d;" d="M180 0v726h59l190 -438q64 -150 70 -164h4q13 29 35 84.5t32 79.5l191 438h59v-726h-37v502q0 42 5 190h-5l-69 -160l-195 -451h-39l-196 451l-67 160h-5q3 -88 3 -190v-502h-35z" />
<glyph unicode="&#xff2e;" d="M226 0v726h38l377 -529l100 -143h5q-5 70 -5 205v467h36v-726h-40l-377 529l-99 143h-4q3 -102 3 -199v-473h-34z" />
<glyph unicode="&#xff2f;" d="M157 365q0 170 95 271.5t248 101.5t248 -101.5t95 -271.5q0 -171 -95 -274t-248 -103t-248 103t-95 274zM196 365q0 -155 84 -249t220 -94t220 94t84 249t-83.5 247t-220.5 92t-220.5 -92t-83.5 -247z" />
<glyph unicode="&#xff30;" d="M276 0v726h203q151 0 226 -46t75 -152q0 -104 -76 -156t-221 -52h-170v-320h-37zM313 353h155q139 0 205.5 41t66.5 134t-66.5 129t-210.5 36h-150v-340z" />
<glyph unicode="&#xff31;" d="M157 365q0 170 95 272t248 102q152 0 247.5 -102t95.5 -272q0 -163 -90 -266t-234 -111q59 -119 230 -119q46 0 86 12l9 -34q-39 -15 -100 -15q-100 0 -168 42.5t-100 113.5q-142 9 -230.5 112t-88.5 265zM196 365q0 -156 84 -250.5t220 -94.5t220 94.5t84 250.5 q0 155 -83.5 247t-220.5 92t-220.5 -92t-83.5 -247z" />
<glyph unicode="&#xff32;" d="M280 0v726h232q272 0 272 -187q0 -88 -60 -137.5t-168 -57.5l241 -344h-44l-240 342h-196v-342h-37zM317 374h180q246 0 246 165q0 82 -62 118t-184 36h-180v-319z" />
<glyph unicode="&#xff33;" d="M228 99l27 26q103 -103 256 -103q103 0 165 42t62 112q0 64 -40.5 98t-119.5 64l-131 49q-34 13 -58 24.5t-53 32t-44.5 49.5t-15.5 64q0 83 66.5 132.5t172.5 49.5q135 0 230 -87l-26 -26q-85 78 -204 78q-90 0 -145.5 -37.5t-55.5 -98.5q0 -32 14 -57.5t41 -43.5 t46.5 -27.5t50.5 -20.5l130 -48q85 -31 132 -74t47 -118q0 -85 -72 -138.5t-192 -53.5q-171 0 -283 112z" />
<glyph unicode="&#xff34;" d="M202 693v33h595v-33h-278v-693h-39v693h-278z" />
<glyph unicode="&#xff35;" d="M223 274v452h37v-444q0 -138 67.5 -199t171.5 -61q49 0 90.5 13t77 42t55.5 81t20 124v444h37v-452q0 -65 -16.5 -116t-43 -82.5t-64 -52t-75.5 -28.5t-81 -8q-55 0 -101 14t-87 44.5t-64.5 89t-23.5 139.5z" />
<glyph unicode="&#xff36;" d="M199 726h39l167 -434q78 -207 94 -245h4q16 39 31.5 78.5t33.5 87t30 79.5l166 434h38l-282 -726h-38z" />
<glyph unicode="&#xff37;" d="M47 726h39l117 -438q42 -158 63 -238h4q32 115 69 238l140 438h42l142 -438q46 -158 70 -238h5q9 35 58 238l118 438h37l-196 -726h-39l-166 518q-35 119 -48 163h-4q-6 -21 -22.5 -75.5t-26.5 -87.5l-164 -518h-39z" />
<glyph unicode="&#xff38;" d="M224 0l255 376l-238 350h41l149 -222q26 -37 70 -98h4q29 46 65 98l146 222h41l-237 -352l257 -374h-44l-154 232l-81 115h-4l-76 -115l-154 -232h-40z" />
<glyph unicode="&#xff39;" d="M225 726h40l138 -233q82 -138 95 -158h4q68 107 96 158l139 233h37l-256 -428v-298h-37v298z" />
<glyph unicode="&#xff3a;" d="M224 0v22l499 671h-461v33h511v-21l-500 -672h512v-33h-561z" />
<glyph unicode="&#xff41;" d="M275 129q0 87 96 133t315 66q-2 178 -163 178q-56 0 -111 -23t-92 -51l-19 28q36 28 99 53t126 25q99 0 147 -55t48 -142v-341h-31l-4 81h-2q-118 -93 -225 -93q-76 0 -130 36t-54 105zM312 131q0 -56 44 -83.5t107 -27.5q105 0 223 100v178q-205 -18 -289.5 -58 t-84.5 -109z" />
<glyph unicode="&#xff42;" d="M274 0v794h36v-236l-3 -106q122 86 220 86q123 0 184.5 -72.5t61.5 -193.5q0 -129 -78.5 -206.5t-192.5 -77.5q-95 0 -189 65h-4l-5 -53h-30zM310 91q97 -71 195 -71q100 0 165 71.5t65 180.5q0 103 -50.5 168.5t-160.5 65.5q-92 0 -214 -92v-323z" />
<glyph unicode="&#xff43;" d="M268 262q0 127 81.5 201.5t203.5 74.5q105 0 189 -80l-22 -26q-76 74 -167 74q-109 0 -178 -68.5t-69 -175.5q0 -108 68 -175t179 -67q100 0 183 78l20 -26q-87 -84 -203 -84q-126 0 -205.5 73.5t-79.5 200.5z" />
<glyph unicode="&#xff44;" d="M227 262q0 125 78.5 201.5t194.5 76.5q54 0 97.5 -16t95.5 -50l-3 99v221h36v-794h-30l-5 70h-3q-96 -83 -209 -83q-115 0 -183.5 73t-68.5 202zM265 262q0 -106 59.5 -174t158.5 -68q100 0 207 91v324q-94 72 -192 72t-165.5 -71.5t-67.5 -173.5z" />
<glyph unicode="&#xff45;" d="M248 262q0 122 81.5 199t190.5 77q111 0 177 -64.5t66 -176.5q0 -24 -2 -37h-476q0 -105 69 -172.5t181 -67.5q109 0 191 58l15 -30q-94 -60 -208 -60q-120 0 -202.5 75t-82.5 199zM285 292h443q0 103 -56.5 158.5t-151.5 55.5q-89 0 -156 -59t-79 -155z" />
<glyph unicode="&#xff46;" d="M301 494v27l160 5v69q0 102 48.5 156.5t144.5 54.5q77 0 145 -32l-13 -28q-59 28 -132 28q-160 0 -160 -175v-73h252v-32h-252v-494h-33v494h-160z" />
<glyph unicode="&#xff47;" d="M256 -102q0 31 24 65.5t66 60.5v5q-55 24 -55 83q0 54 66 99v5q-62 53 -62 136q0 79 59 132.5t142 53.5q44 0 74 -12h216v-32h-162q71 -54 71 -142q0 -80 -57.5 -133t-141.5 -53q-60 0 -112 28q-56 -36 -56 -78q0 -39 33.5 -58.5t91.5 -19.5h145q100 0 144 -27t44 -89 q0 -70 -76.5 -124t-197.5 -54q-126 0 -191 41.5t-65 112.5zM293 -106q0 -53 54.5 -85.5t159.5 -32.5q108 0 175 43.5t67 99.5q0 45 -34.5 64t-108.5 19h-142q-48 0 -81 10q-90 -48 -90 -118zM332 352q0 -67 47.5 -110.5t116.5 -43.5q70 0 116.5 43.5t46.5 110.5 q0 66 -48 110t-115 44q-68 0 -116 -44t-48 -110z" />
<glyph unicode="&#xff48;" d="M288 0v794h36v-353q111 99 218 99q183 0 183 -201v-339h-36v334q0 173 -153 173q-55 0 -102.5 -24.5t-109.5 -79.5v-403h-36z" />
<glyph unicode="&#xff49;" d="M280 494v32h305v-526h-35v494h-270zM510 706q0 22 13 35t32 13t32 -13t13 -35q0 -21 -13 -34t-32 -13t-32 13t-13 34z" />
<glyph unicode="&#xff4a;" d="M243 -221l15 30q62 -33 131 -33q90 0 125.5 43.5t35.5 124.5v550h-270v32h305v-576q0 -102 -46 -154t-156 -52q-73 0 -140 35zM510 706q0 22 13 35t32 13t32 -13t13 -35q0 -21 -13 -34t-32 -13t-32 13t-13 34z" />
<glyph unicode="&#xff4b;" d="M325 0v794h36v-600h3l322 333h43l-199 -208l235 -319h-40l-216 294l-148 -149v-145h-36z" />
<glyph unicode="&#xff4c;" d="M276 760v34h236v-648q0 -126 117 -126q48 0 113 28l13 -28q-79 -32 -128 -32q-150 0 -150 166v606h-201z" />
<glyph unicode="&#xff4d;" d="M104 0v527h30l6 -84h2q101 97 198 97q129 0 169 -110q118 110 214 110q180 0 180 -201v-339h-36v334q0 87 -35.5 130t-112.5 43q-88 0 -198 -104v-403h-36v334q0 173 -148 173q-91 0 -197 -104v-403h-36z" />
<glyph unicode="&#xff4e;" d="M286 0v527h30l6 -84h2q111 97 217 97q182 0 182 -201v-339h-36v334q0 87 -36.5 130t-115.5 43q-55 0 -102.5 -24.5t-110.5 -79.5v-403h-36z" />
<glyph unicode="&#xff4f;" d="M226 262q0 127 79 201.5t195 74.5t195 -74.5t79 -201.5q0 -125 -79 -199.5t-195 -74.5t-195 74.5t-79 199.5zM268 262q0 -107 66 -174.5t166 -67.5t166 67.5t66 174.5t-66 175.5t-166 68.5t-166 -68.5t-66 -175.5z" />
<glyph unicode="&#xff50;" d="M273 -243v770h30l6 -68h3q121 81 214 81q120 0 182.5 -72t62.5 -197q0 -129 -79 -206.5t-191 -77.5q-88 0 -192 66v-296h-36zM309 91q100 -71 195 -71q101 0 165 70.5t64 180.5q0 108 -50.5 172t-159.5 64q-88 0 -214 -91v-325z" />
<glyph unicode="&#xff51;" d="M228 262q0 124 79.5 201t192.5 77q92 0 188 -62h3l5 49h30v-770h-38l2 208l3 108q-104 -86 -214 -86q-113 0 -182 71.5t-69 203.5zM266 262q0 -110 58 -176t159 -66q100 0 207 91v324q-94 72 -192 72t-165 -71t-67 -174z" />
<glyph unicode="&#xff52;" d="M356 0v526h31l4 -131h2q45 66 109.5 104.5t141.5 38.5q58 0 108 -22l-12 -32q-49 20 -100 20q-143 0 -249 -169v-335h-35z" />
<glyph unicode="&#xff53;" d="M265 70l22 28q93 -78 239 -78q82 0 127 32t45 78q0 42 -40 71t-155 56q-96 22 -152.5 59t-56.5 87q0 58 51.5 96.5t150.5 38.5q51 0 106.5 -17.5t92.5 -45.5l-21 -27q-76 58 -181 58q-85 0 -122.5 -28.5t-37.5 -72.5q0 -71 181 -115q126 -31 173.5 -66t47.5 -91 q0 -61 -57 -103t-154 -42q-146 0 -259 82z" />
<glyph unicode="&#xff54;" d="M261 494v27l163 5l4 154h31v-154h287v-32h-287v-304q0 -86 32.5 -128t118.5 -42q72 0 145 27l11 -27q-75 -32 -158 -32q-101 0 -142.5 53.5t-41.5 153.5v299h-163z" />
<glyph unicode="&#xff55;" d="M278 188v339h36v-335q0 -88 37 -130t114 -42q56 0 104.5 26.5t107.5 86.5v394h36v-527h-31l-4 90h-2q-105 -103 -216 -103q-182 0 -182 201z" />
<glyph unicode="&#xff56;" d="M247 527h40l147 -340q60 -138 65 -150h4q34 72 65 150l148 340h37l-230 -527h-43z" />
<glyph unicode="&#xff57;" d="M99 527h40l122 -353q7 -26 22 -72.5t21 -66.5h5q29 83 46 139l122 353h48l123 -353q11 -32 46 -139h4q9 26 26 74.5t22 64.5l118 353h36l-181 -527h-49l-119 341q-6 17 -22.5 69t-26.5 81h-5q-31 -92 -53 -152l-115 -339h-43z" />
<glyph unicode="&#xff58;" d="M267 0l211 275l-192 252h40l107 -140q12 -15 34.5 -44t33.5 -43h4q37 50 66 87l104 140h39l-193 -254l212 -273h-42l-116 151q-35 48 -76 97h-5q-9 -11 -74 -97l-113 -151h-40z" />
<glyph unicode="&#xff59;" d="M244 527h41l158 -344q50 -107 70 -148h5q13 31 60 148l140 344h38l-244 -601q-28 -72 -77.5 -121t-120.5 -49q-34 0 -60 12l10 33q24 -10 52 -10q101 0 163 148l19 49z" />
<glyph unicode="&#xff5a;" d="M249 0v20l429 474h-384v32h439v-20l-427 -474h440v-32h-497z" />
</font>
</defs>
</svg>
