<svg width="32" height="33" viewBox="0 0 32 33" fill="none" xmlns="http://www.w3.org/2000/svg">
<path d="M26.67 4.17648H5.33C4.97807 4.1791 4.6413 4.32006 4.39244 4.56892C4.14358 4.81778 4.00262 5.15455 4 5.50648V26.8465C4.00262 27.1984 4.14358 27.5352 4.39244 27.784C4.6413 28.0329 4.97807 28.1739 5.33 28.1765H16.82V18.8965H13.7V15.2665H16.82V12.5965C16.82 9.49648 18.71 7.80648 21.49 7.80648C22.42 7.80648 23.35 7.80648 24.28 7.94648V11.1765H22.37C20.86 11.1765 20.57 11.8965 20.57 12.9465V15.2565H24.17L23.7 18.8865H20.57V28.1765H26.67C27.0219 28.1739 27.3587 28.0329 27.6076 27.784C27.8564 27.5352 27.9974 27.1984 28 26.8465V5.50648C27.9974 5.15455 27.8564 4.81778 27.6076 4.56892C27.3587 4.32006 27.0219 4.1791 26.67 4.17648Z" fill="#414040"/>
</svg>
