<svg width="32" height="33" viewBox="0 0 32 33" fill="none" xmlns="http://www.w3.org/2000/svg">
<path fill-rule="evenodd" clip-rule="evenodd" d="M16 2.17648C12.6763 2.17692 9.46111 3.35986 6.92968 5.51367C4.39824 7.66748 2.71564 10.6517 2.18288 13.9324C1.65012 17.2132 2.30195 20.5764 4.02177 23.4206C5.74158 26.2648 8.41719 28.4043 11.57 29.4565C12.27 29.5865 12.57 29.1565 12.57 28.7865V26.4065C8.67998 27.2465 7.85998 24.5265 7.85998 24.5265C7.58643 23.6693 7.0107 22.9408 6.23998 22.4765C4.96998 21.6165 6.33998 21.6265 6.33998 21.6265C6.78358 21.6891 7.207 21.8524 7.57789 22.1037C7.94878 22.355 8.25733 22.6877 8.47998 23.0765C8.86732 23.7712 9.51471 24.2837 10.2798 24.5012C11.0449 24.7187 11.8651 24.6235 12.56 24.2365C12.6164 23.5269 12.9292 22.8622 13.44 22.3665C10.34 22.0065 7.06998 20.8065 7.06998 15.4465C7.04731 14.0544 7.5632 12.7073 8.50998 11.6865C8.08144 10.4807 8.13154 9.15645 8.64998 7.98647C8.64998 7.98647 9.81998 7.60647 12.5 9.41647C14.7915 8.79142 17.2085 8.79142 19.5 9.41647C22.17 7.60647 23.34 7.98647 23.34 7.98647C23.8584 9.15645 23.9085 10.4807 23.48 11.6865C24.4268 12.7073 24.9426 14.0544 24.92 15.4465C24.92 20.8265 21.65 22.0065 18.53 22.3565C18.8642 22.6952 19.1219 23.1017 19.2858 23.5485C19.4497 23.9952 19.5159 24.472 19.48 24.9465V28.7865C19.48 29.2465 19.73 29.5965 20.48 29.4565C23.6369 28.403 26.3153 26.2593 28.0348 23.4099C29.7544 20.5605 30.4026 17.1917 29.8633 13.9077C29.324 10.6236 27.6324 7.63905 25.0918 5.48924C22.5513 3.33944 19.328 2.16498 16 2.17648Z" fill="#414040"/>
</svg>
