<svg width="32" height="33" viewBox="0 0 32 33" fill="none" xmlns="http://www.w3.org/2000/svg">
<path d="M22.406 11.2105C23.2013 11.2105 23.846 10.5658 23.846 9.77049C23.846 8.9752 23.2013 8.33049 22.406 8.33049C21.6107 8.33049 20.966 8.9752 20.966 9.77049C20.966 10.5658 21.6107 11.2105 22.406 11.2105Z" fill="#414040"/>
<path d="M16 10.0145C14.7813 10.0145 13.5899 10.3759 12.5766 11.053C11.5633 11.7301 10.7735 12.6924 10.3071 13.8184C9.84068 14.9443 9.71865 16.1833 9.95642 17.3786C10.1942 18.5739 10.7811 19.6719 11.6428 20.5337C12.5046 21.3954 13.6026 21.9823 14.7979 22.2201C15.9932 22.4578 17.2322 22.3358 18.3581 21.8694C19.4841 21.403 20.4464 20.6132 21.1235 19.5999C21.8006 18.5866 22.162 17.3952 22.162 16.1765C22.162 14.5422 21.5128 12.9749 20.3572 11.8193C19.2016 10.6637 17.6343 10.0145 16 10.0145ZM16 20.1765C15.2089 20.1765 14.4355 19.9419 13.7777 19.5024C13.1199 19.0628 12.6072 18.4381 12.3045 17.7072C12.0017 16.9763 11.9225 16.172 12.0769 15.3961C12.2312 14.6202 12.6122 13.9075 13.1716 13.3481C13.731 12.7886 14.4437 12.4077 15.2197 12.2533C15.9956 12.099 16.7998 12.1782 17.5307 12.481C18.2617 12.7837 18.8864 13.2964 19.3259 13.9542C19.7654 14.612 20 15.3854 20 16.1765C20 17.2373 19.5786 18.2548 18.8284 19.0049C18.0783 19.7551 17.0609 20.1765 16 20.1765Z" fill="#414040"/>
<path d="M16 6.33848C19.204 6.33848 19.584 6.35048 20.849 6.40848C21.6098 6.41752 22.3635 6.55722 23.077 6.82148C23.5947 7.02118 24.0648 7.32703 24.4571 7.71936C24.8495 8.1117 25.1553 8.58182 25.355 9.09948C25.6193 9.81301 25.759 10.5666 25.768 11.3275C25.826 12.5925 25.838 12.9725 25.838 16.1775C25.838 19.3825 25.826 19.7605 25.768 21.0255C25.759 21.7863 25.6193 22.54 25.355 23.2535C25.1553 23.7711 24.8495 24.2413 24.4571 24.6336C24.0648 25.0259 23.5947 25.3318 23.077 25.5315C22.3635 25.7958 21.6098 25.9354 20.849 25.9445C19.584 26.0025 19.204 26.0145 16 26.0145C12.796 26.0145 12.416 26.0025 11.151 25.9445C10.3902 25.9354 9.63653 25.7958 8.923 25.5315C8.40534 25.3318 7.93521 25.0259 7.54288 24.6336C7.15055 24.2413 6.84469 23.7711 6.645 23.2535C6.38073 22.54 6.24103 21.7863 6.232 21.0255C6.174 19.7605 6.162 19.3805 6.162 16.1765C6.162 12.9725 6.174 12.5925 6.232 11.3275C6.24103 10.5666 6.38073 9.81301 6.645 9.09948C6.84469 8.58182 7.15055 8.1117 7.54288 7.71936C7.93521 7.32703 8.40534 7.02118 8.923 6.82148C9.63653 6.55722 10.3902 6.41752 11.151 6.40848C12.416 6.35048 12.796 6.33848 16 6.33848ZM16 4.17648C12.741 4.17648 12.332 4.19048 11.052 4.24848C10.0568 4.26858 9.07216 4.45725 8.14 4.80648C7.34272 5.11478 6.61866 5.58626 6.01422 6.1907C5.40978 6.79514 4.9383 7.51921 4.63 8.31648C4.28066 9.24896 4.09198 10.2339 4.072 11.2295C4.014 12.5095 4 12.9165 4 16.1765C4 19.4365 4.014 19.8445 4.072 21.1245C4.0921 22.1197 4.28077 23.1043 4.63 24.0365C4.9383 24.8338 5.40978 25.5578 6.01422 26.1623C6.61866 26.7667 7.34272 27.2382 8.14 27.5465C9.07247 27.8958 10.0574 28.0845 11.053 28.1045C12.333 28.1625 12.741 28.1765 16 28.1765C19.259 28.1765 19.668 28.1625 20.948 28.1045C21.9436 28.0845 22.9285 27.8958 23.861 27.5465C24.6583 27.2382 25.3823 26.7667 25.9868 26.1623C26.5912 25.5578 27.0627 24.8338 27.371 24.0365C27.72 23.104 27.9083 22.119 27.928 21.1235C27.986 19.8435 28 19.4365 28 16.1765C28 12.9165 27.986 12.5085 27.928 11.2285C27.9079 10.2333 27.7192 9.24864 27.37 8.31648C27.0617 7.51921 26.5902 6.79514 25.9858 6.1907C25.3813 5.58626 24.6573 5.11478 23.86 4.80648C22.9275 4.45748 21.9425 4.26915 20.947 4.24948C19.667 4.18948 19.26 4.17648 16 4.17648Z" fill="#414040"/>
</svg>
