<svg width="32" height="33" viewBox="0 0 32 33" fill="none" xmlns="http://www.w3.org/2000/svg">
<path d="M11.92 25.1165C13.6091 25.1271 15.2836 24.8022 16.8462 24.1607C18.4088 23.5192 19.8285 22.5738 21.0229 21.3794C22.2174 20.185 23.1627 18.7653 23.8043 17.2027C24.4458 15.6401 24.7706 13.9656 24.76 12.2765V11.6865C25.6356 11.045 26.3935 10.2567 27 9.35649C26.1755 9.71708 25.3031 9.95624 24.41 10.0665C25.3569 9.50227 26.0674 8.61416 26.41 7.56649C25.5275 8.09593 24.5598 8.46812 23.55 8.66649C22.8699 7.94185 21.97 7.46154 20.9895 7.29987C20.0089 7.1382 19.0024 7.30419 18.1257 7.77214C17.249 8.2401 16.551 8.98394 16.1396 9.88857C15.7282 10.7932 15.6264 11.8082 15.85 12.7765C14.056 12.6884 12.3007 12.2235 10.6984 11.412C9.096 10.6005 7.68254 9.46057 6.55 8.06649C5.97892 9.05766 5.80583 10.2288 6.06576 11.3428C6.32569 12.4568 6.99923 13.4304 7.95 14.0665C7.24861 14.0394 6.56345 13.8476 5.95 13.5065V13.5565C5.94377 14.5923 6.29272 15.599 6.9387 16.4088C7.58469 17.2185 8.48867 17.7824 9.5 18.0065C8.84764 18.1819 8.16429 18.2093 7.5 18.0865C7.79278 18.9699 8.35168 19.7411 9.10005 20.2943C9.84841 20.8475 10.7496 21.1556 11.68 21.1765C10.0892 22.457 8.11209 23.1619 6.07 23.1765C5.71195 23.1661 5.35475 23.1361 5 23.0865C7.06696 24.4034 9.4692 25.0977 11.92 25.0865" fill="#414040"/>
</svg>
