<svg width="32" height="33" viewBox="0 0 32 33" fill="none" xmlns="http://www.w3.org/2000/svg">
<path d="M29.41 9.43648C29.2507 8.84452 28.9387 8.30479 28.5052 7.87132C28.0717 7.43784 27.532 7.12582 26.94 6.96648C24.76 6.37648 16 6.37648 16 6.37648C16 6.37648 7.24002 6.37648 5.06002 6.96648C4.46806 7.12582 3.92833 7.43784 3.49485 7.87132C3.06138 8.30479 2.74936 8.84452 2.59002 9.43648C2.18297 11.6597 1.98543 13.9163 2.00002 16.1765C1.98543 18.4367 2.18297 20.6932 2.59002 22.9165C2.74936 23.5084 3.06138 24.0482 3.49485 24.4816C3.92833 24.9151 4.46806 25.2271 5.06002 25.3865C7.24002 25.9765 16 25.9765 16 25.9765C16 25.9765 24.76 25.9765 26.94 25.3865C27.532 25.2271 28.0717 24.9151 28.5052 24.4816C28.9387 24.0482 29.2507 23.5084 29.41 22.9165C29.8171 20.6932 30.0146 18.4367 30 16.1765C30.0146 13.9163 29.8171 11.6597 29.41 9.43648ZM13.2 20.3765V11.9765L20.47 16.1765L13.2 20.3765Z" fill="#414040"/>
</svg>
