<svg width="32" height="32" viewBox="0 0 32 32" fill="none" xmlns="http://www.w3.org/2000/svg">
<path d="M29.25 6.75985C28.6925 6.20049 28.0302 5.75667 27.3009 5.45384C26.5716 5.151 25.7896 4.99512 25 4.99512C24.2103 4.99512 23.4284 5.151 22.699 5.45384C21.9697 5.75667 21.3074 6.20049 20.75 6.75985L22.17 8.17985C22.5423 7.80755 22.9842 7.51223 23.4707 7.31074C23.9571 7.10926 24.4785 7.00555 25.005 7.00555C25.5315 7.00555 26.0528 7.10926 26.5393 7.31074C27.0257 7.51223 27.4677 7.80755 27.84 8.17985C28.2123 8.55215 28.5076 8.99413 28.7091 9.48056C28.9106 9.96699 29.0143 10.4883 29.0143 11.0148C29.0143 11.5414 28.9106 12.0627 28.7091 12.5491C28.5076 13.0356 28.2123 13.4776 27.84 13.8498L19.84 21.8498C19.0894 22.6017 18.0709 23.0247 17.0085 23.0256C15.9461 23.0265 14.9268 22.6054 14.175 21.8548C13.4231 21.1043 13.0001 20.0858 12.9992 19.0234C12.9983 17.961 13.4194 16.9417 14.17 16.1898L15.58 14.7698L14.17 13.3498L12.75 14.7698C12.1906 15.3273 11.7468 15.9896 11.4439 16.7189C11.1411 17.4482 10.9852 18.2302 10.9852 19.0198C10.9852 19.8095 11.1411 20.5914 11.4439 21.3208C11.7468 22.0501 12.1906 22.7124 12.75 23.2698C13.8815 24.3868 15.41 25.0091 17 24.9998C17.7927 25.0031 18.5782 24.8492 19.3111 24.5472C20.044 24.2451 20.7098 23.8007 21.27 23.2398L29.27 15.2398C30.3909 14.1122 31.0184 12.5857 31.0147 10.9957C31.0109 9.4057 30.3762 7.8822 29.25 6.75985V6.75985Z" fill="#D9D9D9"/>
<path d="M4.18997 24.8198C3.81656 24.4481 3.52026 24.0064 3.31807 23.5199C3.11589 23.0333 3.01181 22.5117 3.01181 21.9848C3.01181 21.458 3.11589 20.9363 3.31807 20.4498C3.52026 19.9633 3.81656 19.5215 4.18997 19.1498L12.19 11.1498C12.5616 10.7764 13.0034 10.4801 13.4899 10.2779C13.9765 10.0757 14.4981 9.97166 15.025 9.97166C15.5518 9.97166 16.0735 10.0757 16.56 10.2779C17.0465 10.4801 17.4883 10.7764 17.86 11.1498C18.231 11.5244 18.5231 11.9697 18.7189 12.4592C18.9147 12.9488 19.0103 13.4727 19 13.9998C19.003 14.5286 18.9012 15.0528 18.7004 15.542C18.4995 16.0312 18.2037 16.4757 17.83 16.8498L15.71 18.9998L17.13 20.4198L19.25 18.2998C20.3785 17.1713 21.0124 15.6408 21.0124 14.0448C21.0124 12.4489 20.3785 10.9183 19.25 9.78982C18.1215 8.66133 16.5909 8.02734 14.995 8.02734C13.399 8.02734 11.8685 8.66133 10.74 9.78982L2.73997 17.7898C2.17911 18.3474 1.73401 19.0104 1.43029 19.7406C1.12657 20.4709 0.970215 21.2539 0.970215 22.0448C0.970215 22.8357 1.12657 23.6188 1.43029 24.349C1.73401 25.0792 2.17911 25.7422 2.73997 26.2998C3.87879 27.4083 5.41087 28.0197 6.99997 27.9998C8.60307 28.0014 10.1417 27.3687 11.28 26.2398L9.85997 24.8198C9.4883 25.1932 9.04652 25.4895 8.56 25.6917C8.07349 25.8939 7.55182 25.998 7.02497 25.998C6.49812 25.998 5.97645 25.8939 5.48994 25.6917C5.00342 25.4895 4.56164 25.1932 4.18997 24.8198V24.8198Z" fill="#D9D9D9"/>
</svg>
