<svg width="560" height="560" viewBox="0 0 560 560" fill="none" xmlns="http://www.w3.org/2000/svg">
<g opacity="0.8">
<path d="M280.58 216.996C324.48 218.921 368.336 221.408 410.37 235.94C429.013 242.384 444.808 254.191 461.163 264.766C485.945 280.79 510.436 297.268 534.085 314.946L533.977 315.432L533.503 315.573C495.429 301.009 457.333 286.477 419.27 271.869C373.029 254.115 326.81 236.297 280.58 218.499C279.965 217.991 279.986 217.494 280.58 216.986V216.996Z" fill="white"/>
<path d="M509.746 123.231C470.97 107.759 432.131 92.4484 393.463 76.6947C384.002 72.8347 374.702 75.3215 365.412 75.7C337.48 76.8353 309.569 78.6301 281.648 80.1655C281.033 79.6573 281.055 79.1491 281.648 78.6409C311.339 67.6231 341.871 60.3356 373.472 57.8487C400.563 55.7187 425.636 62.2494 449.058 75.7865C471.478 88.7505 492.44 103.639 510.371 122.518C510.35 122.918 510.123 123.145 509.735 123.22L509.746 123.231Z" fill="white"/>
<path d="M559.396 203.146C528.961 190.603 497.846 179.466 468.273 165.118C441.14 151.96 413.035 147.84 383.667 147.451C375.263 147.343 366.869 146.543 357.246 145.981C366.394 138.682 375.802 133.936 385.609 129.881C406.863 121.09 427.61 121.62 448.325 132.216C487.65 152.338 524.224 176.753 560 202.497L559.882 202.994L559.396 203.135V203.146Z" fill="white"/>
<path d="M472.577 489.317C459.145 438.726 449.403 388.762 439.844 338.56C445.595 348.972 451.345 359.374 457.085 369.786C469.19 391.724 481.252 413.684 493.476 435.558C494.824 437.969 495.126 439.883 493.95 442.424C486.991 457.496 480.162 472.633 472.577 489.317V489.317Z" fill="white"/>
<path d="M500.909 225.041C481.985 220.521 463.558 216.131 445.131 211.72C402.698 201.556 360.244 191.436 317.833 181.164C308.803 178.98 300.506 182.591 291.951 183.91C277.073 186.203 262.314 189.198 247.479 191.803C245.645 192.128 243.606 192.95 241.664 191.176C261.192 180.861 280.407 170.33 302.125 165.302C312.633 162.869 322.343 165.108 332.074 168.2C385.76 185.251 439.132 203.265 492.375 221.656C495.105 222.597 497.748 223.786 500.909 225.051V225.041Z" fill="white"/>
<path d="M405.892 417.814C386.893 371.775 367.894 325.747 348.884 279.653C350.308 278.572 351.052 280.151 351.948 280.756C362.489 287.914 372.673 295.548 382.653 303.484C392.73 311.496 399.343 320.903 401.048 334.321C404.565 362.022 405.817 389.821 405.903 417.814H405.892Z" fill="white"/>
<path d="M244.264 480.375C226.765 425.416 209.265 370.457 191.744 315.422C194.441 314.708 195.24 316.557 196.254 317.541C204.906 325.91 213.354 334.484 222.028 342.82C227.585 348.162 230.972 353.838 231.803 362.153C235.773 401.596 240.65 440.953 245.214 480.343C244.911 480.667 244.599 480.678 244.264 480.375V480.375Z" fill="white"/>
<path d="M392.837 107.153C347.751 110.537 302.664 113.932 257.567 117.241C255.323 117.403 253.413 118.084 251.482 119.014C231.954 128.399 212.416 137.795 192.855 147.116C191.669 147.678 190.6 149.008 188.4 148.1C205.629 130.994 222.579 114.105 244.75 103.758C250.576 101.044 256.866 100.266 263.08 100.093C306.57 98.9248 349.79 103.131 392.848 107.153H392.837Z" fill="white"/>
<path d="M180.923 363.591C186.264 392.179 191.593 420.767 196.999 449.344C197.376 451.355 197.441 453.096 196.675 455.074C191.615 468.103 186.566 481.132 181.84 494.28C180.546 497.87 179.629 497.87 177.007 495.524C166.121 485.782 161.913 474.256 165.797 459.713C171.796 437.277 174.126 414.193 176.953 391.206C178.086 381.983 179.111 372.749 180.19 363.515L180.934 363.58L180.923 363.591Z" fill="white"/>
<path d="M145.363 448.252C145.363 446.392 145.363 444.543 145.363 442.683C145.363 408.689 145.514 374.684 145.234 340.69C145.18 334.473 146.366 329.705 151.599 325.974C154.771 323.715 157.403 320.676 160.694 317.595C168.149 334.03 174.698 349.87 170.123 368.435C163.445 395.476 155.041 421.945 145.363 448.252V448.252Z" fill="white"/>
<path d="M442.208 304.836C452.673 310.869 463.149 316.87 473.592 322.925C493.897 334.678 514.202 346.431 534.474 358.26C535.941 359.114 537.84 359.59 538.455 361.601C543.008 376.392 547.593 391.184 551.056 406.699C514.558 373.051 478.059 339.403 441.56 305.744L442.208 304.836V304.836Z" fill="white"/>
<path d="M326.465 52.0858C296.979 60.368 267.493 68.6828 237.996 76.9002C235.321 77.6462 233.141 78.7924 231.135 80.7818C216.376 95.5083 201.509 110.137 186.674 124.788C185.444 125.999 184.171 127.156 182.013 127.783C183.2 125.502 184.376 123.21 185.584 120.939C193.482 106.04 202.285 91.7132 211.585 77.6246C220.26 64.4876 231.804 57.892 247.512 56.5296C273.783 54.259 300.065 52.475 326.476 52.0966L326.465 52.0858Z" fill="white"/>
<path d="M99.4021 204.551C99.5423 203.578 99.456 202.486 99.8552 201.632C116.319 167.108 134.11 133.384 160.327 105.001C167.426 97.3138 175.409 90.6533 185.594 87.2907C186.9 86.8582 188.313 86.7933 190.276 86.4473C182.94 104.299 173.748 119.987 161.125 133.979C140.82 156.512 121.476 179.91 101.754 202.972C101.182 203.643 100.869 204.529 100.427 205.319L99.3913 204.54L99.4021 204.551Z" fill="white"/>
<path d="M72.1606 439.083C83.791 416.464 95.4213 393.844 107.073 371.235C111.486 362.661 115.974 354.119 120.872 344.713C126.029 356.541 129.935 367.721 128.478 380.026C127.907 384.891 124.454 388.438 121.412 391.876C106.286 409.025 90.0593 425.081 73.0021 440.294C72.3332 440.153 72.0527 439.753 72.1606 439.072V439.083Z" fill="white"/>
<path d="M86.9634 330.31C88.9486 338.56 89.4449 345.653 89.0457 352.908C88.3336 365.72 80.8461 374.37 71.8159 382.155C56.1828 395.649 39.6436 407.997 22.8993 420.053C21.7341 420.896 20.7091 422.637 18.0767 421.556C40.9059 391.324 63.6056 361.255 86.9742 330.31H86.9634Z" fill="white"/>
<path d="M169.692 278.519C161.935 280.822 154.189 283.179 146.41 285.417C110.548 295.732 74.6533 305.939 38.8235 316.405C35.5329 317.367 34.0872 316.957 32.5876 313.918C29.1028 306.869 25.2727 299.992 21.5938 293.094C22.7589 291.666 23.7192 292.964 24.4312 293.31C41.2294 301.527 57.909 294.737 74.4807 292.596C102.37 288.996 130.14 284.444 157.976 280.378C161.892 279.805 165.884 279.74 169.843 279.438L169.692 278.529V278.519Z" fill="white"/>
<path d="M364.485 373.873C376.385 401.985 387.746 430.346 400.455 458.091C405.774 469.692 407.23 480.007 401.059 491.371C398.61 495.88 397.359 501.038 394.812 507.914C384.218 462.102 374.033 418.085 363.859 374.068L364.485 373.873V373.873Z" fill="white"/>
<path d="M82.8418 223.397C62.7314 240.286 43.797 258.851 18.6806 268.258C15.0879 269.609 13.8796 271.566 14.1385 275.351C14.4945 280.465 14.2248 285.633 14.2248 292.077C8.58223 283.363 4.23433 275.491 1.08399 266.993C-2.45475 257.467 2.86415 248.968 14.1924 248.698C36.2988 248.179 54.8232 238.167 73.585 228.403C76.6922 226.781 79.7562 225.062 82.8418 223.386V223.397Z" fill="white"/>
<path d="M217.821 251.164H116.147L116.029 250.331C132.115 247.725 148.158 244.871 164.287 242.59C175.281 241.033 186.501 240.87 197.42 238.946C208.09 237.064 213.614 242.233 217.821 251.164V251.164Z" fill="white"/>
<path d="M164.923 290.045C145.136 299.052 125.371 308.08 105.541 316.99C104.16 317.606 102.359 317.379 100.762 317.379C86.0567 317.401 71.3407 317.39 56.4629 316.438C92.5624 307.226 128.651 298.014 164.751 288.802L164.934 290.034L164.923 290.045Z" fill="white"/>
<path d="M129.083 236.577C157.037 223.991 183.275 205.491 218.091 211.027C187.418 219.829 158.245 228.208 129.083 236.577V236.577Z" fill="white"/>
<path d="M244.265 480.375C244.577 480.311 244.89 480.3 245.214 480.343C247.188 482.105 245.095 484.473 246.444 487.155C245.548 484.365 244.912 482.376 244.265 480.375V480.375Z" fill="white"/>
<path d="M281.659 78.6517V80.1763C280.331 80.2844 279.015 80.4033 275.779 80.6737C278.918 79.5924 280.288 79.1275 281.659 78.6517Z" fill="white"/>
<path d="M280.579 216.997V218.51L276.997 217.332C278.357 216.229 279.468 216.618 280.579 216.997Z" fill="white"/>
<path d="M505.052 225.722L504.071 225.473L503.909 226.154C504.081 226.176 504.276 226.273 504.405 226.219C504.632 226.111 504.815 225.917 505.052 225.722Z" fill="white"/>
<path d="M85.8197 222.374L86.0586 221.949L85.7437 221.884L85.8197 222.374Z" fill="white"/>
<path d="M438.798 337.154C438.701 337.252 438.604 337.349 438.506 337.446C438.463 337.295 438.366 337.144 438.388 337.014C438.409 336.895 438.571 336.798 438.679 336.689C438.722 336.841 438.755 337.003 438.798 337.154Z" fill="white"/>
<path d="M102.902 211.666L102.761 212.058C102.609 212.004 102.435 211.982 102.327 211.884C102.283 211.851 102.403 211.634 102.446 211.503L102.891 211.666H102.902Z" fill="white"/>
<path d="M73.0024 440.305L71.4273 441.299C70.9741 440.337 71.2439 439.602 72.1609 439.094L73.0024 440.315V440.305Z" fill="white"/>
<path d="M230.972 253.38L230.238 252.623L230.692 252.493C230.735 252.817 230.789 253.142 230.832 253.466L230.972 253.369V253.38Z" fill="white"/>
<path d="M534.085 314.946L534.797 315.843C534.366 315.757 533.934 315.659 533.492 315.573C533.675 315.357 533.869 315.14 534.074 314.946H534.085Z" fill="white"/>
<path d="M107.009 223.235L106.016 223.927C106.113 223.484 106.21 223.04 106.308 222.608C106.556 222.802 106.793 223.008 107.009 223.235Z" fill="white"/>
<path d="M510.382 122.529L511.083 123.123C510.641 123.156 510.199 123.199 509.756 123.231C509.951 122.983 510.156 122.745 510.393 122.529H510.382Z" fill="white"/>
<path d="M279.62 482.689C279.296 482.916 278.961 483.143 278.638 483.381C278.67 482.938 278.692 482.484 278.724 482.04C279.026 482.257 279.317 482.484 279.62 482.7V482.689Z" fill="white"/>
<path fill-rule="evenodd" clip-rule="evenodd" d="M278.724 482.03C286.848 460.773 291.498 438.942 291.455 416.009C291.413 393.73 283.738 373.518 276.063 353.307L275.477 351.762C263.123 319.184 248.062 287.807 232.192 256.819C231.817 256.089 231.572 255.289 231.328 254.49L231.328 254.49C231.22 254.137 231.112 253.784 230.993 253.438C232.89 253.011 234.111 254.105 235.301 255.173L235.301 255.173C235.757 255.581 236.208 255.986 236.691 256.3C238.643 257.569 240.593 258.84 242.544 260.111L242.553 260.117C257.952 270.151 273.386 280.207 289.729 289.591C281.377 274.555 273.03 259.524 264.252 243.716L264.205 243.631L254.471 226.101C258.278 228.436 261.917 230.645 265.432 232.779C273.031 237.393 280.054 241.657 286.967 246.093C299.341 254.04 311.328 262.528 322.667 271.967C331.708 279.492 334.977 289.169 335.667 300.317C337.578 330.782 332.455 360.507 327.316 390.319L327.314 390.334C327.113 391.497 326.913 392.659 326.713 393.822C322.338 419.287 308.719 439.828 295.075 460.405C292.533 464.238 289.99 468.073 287.506 471.942C285.894 474.452 284.073 476.83 282.251 479.207C281.366 480.363 280.481 481.519 279.619 482.689C279.134 482.722 278.832 482.505 278.724 482.03ZM230.993 253.438C230.94 253.45 230.886 253.463 230.832 253.478L230.973 253.38L230.993 253.438ZM266.079 294.435C269.17 294.889 271.325 296.864 273.437 298.798C274.038 299.348 274.635 299.895 275.25 300.403C282.896 306.708 290.481 313.095 298.066 319.482L298.067 319.482C302.437 323.162 306.806 326.841 311.187 330.505C313.949 332.819 315.805 335.673 315.924 339.252C316.633 359.885 312.635 379.921 308.623 400.022C308.243 401.926 307.863 403.831 307.487 405.738C299.361 369.599 284.533 336.114 269.631 302.464L269.629 302.46C268.445 299.786 267.261 297.112 266.079 294.435ZM322.16 295.44C316.97 289.418 311.08 284.109 303.322 279.362H303.312C305.614 286.632 307.731 293.331 309.866 300.089C311.182 304.256 312.506 308.445 313.885 312.805C314.644 311.51 315.362 310.302 316.044 309.152C317.727 306.318 319.197 303.842 320.563 301.311C320.768 300.93 321.023 300.53 321.285 300.12C322.28 298.562 323.372 296.852 322.16 295.44Z" fill="white"/>
<path fill-rule="evenodd" clip-rule="evenodd" d="M186.491 160.124C147.532 166.719 124.39 191.415 106.308 222.608V222.619C106.373 223.019 106.61 223.214 107.009 223.246C113.256 219.743 119.805 216.986 126.526 214.51C127.922 213.995 129.322 213.49 130.722 212.985C143.911 208.227 157.062 203.483 165.83 190.971C167.386 188.748 168.965 186.541 170.552 184.324C175.972 176.749 181.483 169.048 186.491 160.124ZM124.415 206.557C123.853 207.251 123.291 207.946 122.728 208.638C122.512 209.211 122.717 209.417 123.3 209.309C125.33 208.19 127.419 207.135 129.512 206.078C140.633 200.46 151.872 194.784 155.041 179.25C141.441 185.528 132.909 196.066 124.415 206.557Z" fill="white"/>
<path d="M123.31 209.309C122.771 210.271 122.059 210.336 121.196 209.752C121.714 209.374 122.221 209.006 122.739 208.628C122.922 208.855 123.116 209.082 123.31 209.298V209.309Z" fill="white"/>
</g>
</svg>
