<svg width="345" height="82" viewBox="0 0 345 82" fill="none" xmlns="http://www.w3.org/2000/svg">
<path d="M50.4741 29.6661C58.3713 30.0124 66.2608 30.4597 73.8222 33.0739C77.176 34.2332 80.0174 36.3572 82.9597 38.2594C87.4177 41.142 91.8234 44.1063 96.0777 47.2865L96.0583 47.374L95.9729 47.3993C89.1237 44.7793 82.2707 42.1651 75.4234 39.5373C67.105 36.3436 58.7905 33.1381 50.4741 29.9365C50.3634 29.8451 50.3673 29.7556 50.4741 29.6642V29.6661Z" fill="#D9D9D9"/>
<path d="M91.6993 12.7986C84.724 10.0152 77.737 7.26096 70.781 4.427C69.0789 3.73262 67.4059 4.17998 65.7349 4.24806C60.7101 4.45229 55.6892 4.77517 50.6663 5.05137C50.5557 4.95995 50.5596 4.86853 50.6663 4.77712C56.0075 2.7951 61.5 1.48412 67.1847 1.03676C72.0581 0.653581 76.5686 1.8284 80.7821 4.26362C84.8152 6.59575 88.5862 9.2741 91.8119 12.6702C91.808 12.7422 91.7672 12.783 91.6974 12.7966L91.6993 12.7986Z" fill="#D9D9D9"/>
<path d="M100.631 27.1745C95.1559 24.9182 89.5586 22.9148 84.2388 20.3337C79.3576 17.9666 74.3017 17.2255 69.0188 17.1555C67.5069 17.136 65.9969 16.9921 64.2657 16.891C65.9115 15.578 67.6039 14.7242 69.3681 13.9948C73.1916 12.4134 76.9238 12.5087 80.6502 14.4149C87.7245 18.0347 94.3039 22.4266 100.74 27.0578L100.718 27.1473L100.631 27.1726V27.1745Z" fill="#D9D9D9"/>
<path d="M85.0131 78.6545C82.5968 69.5535 80.8442 60.5654 79.1246 51.5344C80.1591 53.4075 81.1936 55.2787 82.2261 57.1518C84.4037 61.0983 86.5735 65.0487 88.7725 68.9836C89.0151 69.4173 89.0694 69.7616 88.8579 70.2187C87.6061 72.9301 86.3775 75.6532 85.0131 78.6545V78.6545Z" fill="#D9D9D9"/>
<path d="M90.1097 31.1133C86.7055 30.3002 83.3906 29.5105 80.0756 28.717C72.4423 26.8886 64.8052 25.068 57.1758 23.2202C55.5513 22.8273 54.0588 23.477 52.5197 23.7143C49.8433 24.1266 47.1883 24.6654 44.5196 25.1341C44.1897 25.1925 43.8229 25.3403 43.4735 25.0213C46.9864 23.1657 50.4431 21.2713 54.3499 20.3668C56.2403 19.9292 57.9871 20.3318 59.7377 20.8881C69.3952 23.9554 78.9965 27.1959 88.5745 30.5045C89.0655 30.6737 89.5411 30.8876 90.1097 31.1152V31.1133Z" fill="#D9D9D9"/>
<path d="M73.0168 65.7917C69.599 57.5097 66.1812 49.2295 62.7615 40.9377C63.0177 40.7432 63.1516 41.0272 63.3127 41.1361C65.2089 42.4237 67.041 43.797 68.8363 45.2246C70.649 46.6659 71.8388 48.3581 72.1454 50.772C72.7781 55.7552 73.0033 60.756 73.0188 65.7917H73.0168Z" fill="#D9D9D9"/>
<path d="M43.9413 77.046C40.7932 67.1592 37.6452 57.2724 34.4933 47.3721C34.9785 47.2437 35.1221 47.5763 35.3046 47.7533C36.8611 49.2588 38.3808 50.8012 39.9412 52.3009C40.9407 53.2617 41.5502 54.2829 41.6996 55.7786C42.4138 62.8742 43.2911 69.9542 44.1121 77.0401C44.0577 77.0985 44.0014 77.1004 43.9413 77.046V77.046Z" fill="#D9D9D9"/>
<path d="M70.6684 9.90622C62.5577 10.515 54.447 11.1258 46.3343 11.721C45.9306 11.7501 45.5871 11.8727 45.2397 12.04C41.7268 13.7283 38.2119 15.4185 34.6932 17.0952C34.4797 17.1963 34.2876 17.4356 33.8917 17.2722C36.9912 14.1951 40.0402 11.1569 44.0286 9.29547C45.0767 8.80725 46.2082 8.66721 47.3261 8.63609C55.1496 8.42602 62.9245 9.18265 70.6704 9.90622H70.6684Z" fill="#D9D9D9"/>
<path d="M32.5467 56.0373C33.5074 61.1801 34.4661 66.3228 35.4385 71.4636C35.5064 71.8254 35.5181 72.1386 35.3803 72.4945C34.47 74.8383 33.5617 77.1821 32.7116 79.5473C32.4787 80.1931 32.3138 80.1931 31.8421 79.771C29.8839 78.0185 29.1269 75.9451 29.8256 73.3289C30.9047 69.2929 31.3239 65.1402 31.8324 61.005C32.0362 59.3459 32.2206 57.6848 32.4147 56.0237L32.5486 56.0354L32.5467 56.0373Z" fill="#D9D9D9"/>
<path d="M26.1497 71.2671C26.1497 70.9326 26.1497 70.6 26.1497 70.2654C26.1497 64.1501 26.1769 58.0329 26.1264 51.9176C26.1167 50.7992 26.3302 49.9414 27.2715 49.2704C27.8421 48.8639 28.3157 48.3173 28.9076 47.763C30.2488 50.7195 31.4268 53.569 30.6039 56.9087C29.4026 61.7733 27.8907 66.5348 26.1497 71.2671V71.2671Z" fill="#D9D9D9"/>
<path d="M79.5497 45.4678C81.4323 46.5531 83.3169 47.6327 85.1956 48.7219C88.8482 50.8362 92.5009 52.9505 96.1477 55.0784C96.4117 55.232 96.7532 55.3176 96.8639 55.6794C97.6829 58.3402 98.5078 61.0011 99.1308 63.7923C92.5649 57.7392 85.9991 51.6862 79.4333 45.6312L79.5497 45.4678V45.4678Z" fill="#D9D9D9"/>
<path d="M58.7285 0C53.4242 1.48992 48.1199 2.98567 42.8137 4.46392C42.3323 4.59813 41.9403 4.80431 41.5793 5.1622C38.9242 7.81138 36.2498 10.443 33.5811 13.0786C33.3599 13.2965 33.1309 13.5046 32.7427 13.6174C32.9562 13.207 33.1677 12.7946 33.3851 12.3862C34.8058 9.70587 36.3895 7.12866 38.0625 4.59424C39.6229 2.23099 41.6996 1.0445 44.5255 0.799421C49.2514 0.390958 53.9793 0.0700223 58.7304 0.00194506L58.7285 0Z" fill="#D9D9D9"/>
<path d="M17.8817 27.4273C17.907 27.2523 17.8914 27.0558 17.9632 26.9021C20.925 20.6916 24.1254 14.6249 28.8416 9.51911C30.1187 8.13617 31.5549 6.93801 33.387 6.3331C33.6219 6.25529 33.8761 6.24362 34.2293 6.18138C32.9096 9.39268 31.256 12.215 28.9852 14.7319C25.3326 18.7854 21.8527 22.9945 18.3048 27.1433C18.202 27.2639 18.1457 27.4234 18.0661 27.5654L17.8798 27.4254L17.8817 27.4273Z" fill="#D9D9D9"/>
<path d="M12.9812 69.6178C15.0734 65.5487 17.1656 61.4796 19.2617 57.4125C20.0555 55.8701 20.8629 54.3335 21.7441 52.6413C22.6718 54.7692 23.3744 56.7804 23.1123 58.9938C23.0095 59.8691 22.3884 60.5071 21.8411 61.1256C19.1201 64.2105 16.2011 67.0989 13.1326 69.8356C13.0123 69.8103 12.9618 69.7384 12.9812 69.6158V69.6178Z" fill="#D9D9D9"/>
<path d="M15.6441 50.0504C16.0012 51.5345 16.0904 52.8104 16.0186 54.1156C15.8905 56.4205 14.5436 57.9765 12.9191 59.377C10.1069 61.8044 7.13158 64.0257 4.11941 66.1944C3.9098 66.3461 3.72542 66.6593 3.25186 66.4648C7.35865 61.0264 11.4422 55.6172 15.646 50.0504H15.6441Z" fill="#D9D9D9"/>
<path d="M30.5263 40.7335C29.1309 41.1478 27.7374 41.5718 26.338 41.9745C19.8867 43.8301 13.4296 45.6662 6.98409 47.549C6.39213 47.7221 6.13206 47.6482 5.86229 47.1017C5.2354 45.8335 4.54641 44.5964 3.88458 43.3555C4.09419 43.0987 4.26693 43.3321 4.39502 43.3944C7.41689 44.8726 10.4174 43.6511 13.3985 43.266C18.4156 42.6183 23.4113 41.7994 28.4186 41.0681C29.1231 40.965 29.8412 40.9533 30.5535 40.8989L30.5263 40.7355V40.7335Z" fill="#D9D9D9"/>
<path d="M65.568 57.887C67.7087 62.9442 69.7524 68.0461 72.0387 73.0371C72.9956 75.1242 73.2576 76.9798 72.1474 79.024C71.7069 79.8351 71.4817 80.7629 71.0237 82C69.1178 73.7587 67.2856 65.8404 65.4554 57.922L65.568 57.887V57.887Z" fill="#D9D9D9"/>
<path d="M14.9026 30.8176C11.2849 33.8558 7.87878 37.1954 3.36053 38.8876C2.71423 39.1308 2.49686 39.4828 2.54344 40.1636C2.60749 41.0836 2.55897 42.0134 2.55897 43.1726C1.54392 41.6049 0.761761 40.1889 0.195039 38.6601C-0.441552 36.9465 0.515276 35.4176 2.55315 35.369C6.5299 35.2757 9.86231 33.4745 13.2374 31.7181C13.7964 31.4264 14.3476 31.1171 14.9026 30.8156V30.8176Z" fill="#D9D9D9"/>
<path d="M39.1844 35.8126H20.894L20.8727 35.6628C23.7665 35.194 26.6525 34.6805 29.554 34.2701C31.5317 33.9901 33.5502 33.9609 35.5143 33.6147C37.4338 33.2762 38.4275 34.206 39.1844 35.8126V35.8126Z" fill="#D9D9D9"/>
<path d="M29.6684 42.807C26.109 44.4272 22.5534 46.0514 18.9861 47.6541C18.7377 47.765 18.4136 47.7241 18.1263 47.7241C15.481 47.728 12.8337 47.7261 10.1573 47.5549C16.6513 45.8977 23.1434 44.2405 29.6374 42.5833L29.6704 42.8051L29.6684 42.807Z" fill="#D9D9D9"/>
<path d="M23.221 33.1886C28.2497 30.9245 32.9698 27.5965 39.2329 28.5924C33.7151 30.1757 28.4671 31.6831 23.221 33.1886V33.1886Z" fill="#D9D9D9"/>
<path d="M43.9413 77.0459C43.9976 77.0342 44.0539 77.0323 44.1121 77.0401C44.4672 77.3571 44.0907 77.7831 44.3333 78.2655C44.1722 77.7636 44.0577 77.4057 43.9413 77.0459V77.0459Z" fill="#D9D9D9"/>
<path d="M50.6682 4.77898V5.05323C50.4295 5.07268 50.1927 5.09408 49.6105 5.1427C50.1753 4.9482 50.4217 4.86456 50.6682 4.77898Z" fill="#D9D9D9"/>
<path d="M50.4741 29.6661V29.9384L49.8297 29.7264C50.0743 29.528 50.2742 29.598 50.4741 29.6661Z" fill="#D9D9D9"/>
<path d="M90.855 31.2358L90.6784 31.191L90.6493 31.3136C90.6803 31.3175 90.7153 31.335 90.7386 31.3252C90.7793 31.3058 90.8123 31.2708 90.855 31.2358Z" fill="#D9D9D9"/>
<path d="M15.4384 30.6334L15.4813 30.5571L15.4247 30.5453L15.4384 30.6334Z" fill="#D9D9D9"/>
<path d="M78.9364 51.2816C78.9189 51.2991 78.9014 51.3166 78.884 51.3341C78.8762 51.3069 78.8587 51.2797 78.8626 51.2563C78.8665 51.2349 78.8956 51.2174 78.915 51.198C78.9228 51.2252 78.9286 51.2544 78.9364 51.2816Z" fill="#D9D9D9"/>
<path d="M18.5113 28.7073L18.4859 28.7778C18.4586 28.768 18.4273 28.7641 18.4078 28.7465C18.4 28.7406 18.4215 28.7015 18.4293 28.678L18.5093 28.7073H18.5113Z" fill="#D9D9D9"/>
<path d="M13.1326 69.8375L12.8492 70.0165C12.7677 69.8434 12.8162 69.7111 12.9812 69.6197L13.1326 69.8395V69.8375Z" fill="#D9D9D9"/>
<path d="M41.5502 36.2112L41.4182 36.075L41.4997 36.0517C41.5075 36.11 41.5172 36.1684 41.5249 36.2268L41.5502 36.2092V36.2112Z" fill="#D9D9D9"/>
<path d="M96.0778 47.2865L96.2059 47.4479C96.1283 47.4323 96.0506 47.4148 95.9711 47.3993C96.0041 47.3604 96.039 47.3215 96.0759 47.2865H96.0778Z" fill="#D9D9D9"/>
<path d="M19.2501 30.7884L19.0715 30.9129C19.089 30.8331 19.1064 30.7534 19.1239 30.6756C19.1685 30.7106 19.2112 30.7475 19.2501 30.7884Z" fill="#D9D9D9"/>
<path d="M91.8138 12.6721L91.94 12.7791C91.8604 12.7849 91.7808 12.7927 91.7012 12.7985C91.7362 12.7538 91.773 12.711 91.8157 12.6721H91.8138Z" fill="#D9D9D9"/>
<path d="M50.3015 77.4622C50.2432 77.503 50.1831 77.5439 50.1248 77.5867C50.1307 77.5069 50.1345 77.4252 50.1404 77.3455C50.1947 77.3844 50.2471 77.4252 50.3015 77.4641V77.4622Z" fill="#D9D9D9"/>
<path d="M45.7769 31.304C47.9428 32.6324 49.8041 33.7336 51.6226 34.9006C53.8487 36.3303 56.0057 37.8569 58.0455 39.5549C59.6717 40.9086 60.2601 42.6494 60.3843 44.6545C60.7415 50.3497 59.7318 55.9013 58.773 61.4758C57.8395 66.9102 54.5655 71.0978 51.7203 75.5286C51.2894 76.1996 50.7749 76.8184 50.3013 77.4622C50.2141 77.468 50.1597 77.4293 50.1402 77.344C51.6016 73.52 52.438 69.5925 52.4302 65.467C52.4225 61.3571 50.9711 57.6381 49.5562 53.9094C47.334 48.049 44.624 42.4048 41.7691 36.8303C41.6719 36.6413 41.623 36.4258 41.5533 36.2229C42.0255 36.116 42.2646 36.5324 42.5787 36.7366C45.7015 38.7672 48.8067 40.8236 52.1197 42.7258C50.0702 39.036 48.0225 35.3477 45.7769 31.304ZM47.8658 43.5969C50.7537 50.14 53.7371 56.6017 55.315 63.6194C56.0971 59.6574 56.9722 55.7225 56.8326 51.6594C56.8112 51.0156 56.4769 50.5014 55.98 50.0852C53.8239 48.2822 51.683 46.4576 49.5152 44.6702C49.0165 44.2579 48.5798 43.702 47.8658 43.5969ZM54.563 40.885C55.2326 42.9993 55.8152 44.8457 56.4654 46.9016C56.939 46.0944 57.3211 45.4732 57.6666 44.8333C57.8432 44.5046 58.2292 44.0984 57.9537 43.7776C57.0202 42.6943 55.9604 41.7388 54.565 40.885H54.563ZM41.5533 36.2229C41.544 36.225 41.5344 36.2263 41.525 36.2288L41.5504 36.2112C41.5517 36.2149 41.552 36.2191 41.5533 36.2229Z" fill="#D9D9D9"/>
<path d="M33.5478 19.4351C32.3834 21.5102 31.0681 23.2181 29.832 24.9839C28.0872 27.4736 25.3769 28.2536 22.7607 29.2183C21.5516 29.6637 20.3736 30.1604 19.2499 30.7906C19.1782 30.7847 19.1356 30.7492 19.124 30.6773V30.6754C22.3767 25.0641 26.5398 20.6217 33.5478 19.4351ZM27.8906 22.8755C25.2821 24.0795 23.7103 26.1554 22.0781 28.1627C22.0393 28.2657 22.0759 28.3022 22.1806 28.2828C24.4863 27.0127 27.2132 26.1958 27.8906 22.8755Z" fill="#D9D9D9"/>
<path d="M22.1826 28.2832C22.0856 28.4563 21.9575 28.468 21.8022 28.363C21.8954 28.2949 21.9866 28.2288 22.0798 28.1607C22.1128 28.2015 22.1477 28.2424 22.1826 28.2813V28.2832Z" fill="#D9D9D9"/>
<path d="M142.944 73L139.334 51.416L134.964 18.166H126.262V12.2H139.676L142.906 32.188L147.846 66.958H156.51V73H142.944ZM126.262 73V21.168H132.114L132.494 49.82L132.912 73H126.262ZM150.582 63.918L150.164 34.316L149.784 12.2H156.51V63.918H150.582ZM175.403 73.494C171.781 73.2153 169.159 72.1893 167.537 70.416C165.941 68.6427 165.118 65.894 165.067 62.17C165.017 58.446 164.979 54.988 164.953 51.796C164.928 48.5787 164.915 45.4627 164.915 42.448C164.915 39.408 164.928 36.3173 164.953 33.176C164.979 30.0093 165.017 26.6273 165.067 23.03C165.118 19.306 165.941 16.5573 167.537 14.784C169.159 12.9853 171.781 11.9593 175.403 11.706V17.52C174.111 17.748 173.199 18.2673 172.667 19.078C172.135 19.8887 171.857 21.1173 171.831 22.764C171.705 26.4627 171.616 29.908 171.565 33.1C171.54 36.2667 171.527 39.37 171.527 42.41C171.527 45.4247 171.54 48.5533 171.565 51.796C171.616 55.0387 171.705 58.5853 171.831 62.436C171.857 64.0827 172.135 65.3113 172.667 66.122C173.199 66.9327 174.111 67.452 175.403 67.68V73.494ZM179.659 73.456V67.642C180.951 67.414 181.851 66.9073 182.357 66.122C182.864 65.3113 183.13 64.0827 183.155 62.436C183.257 58.6613 183.333 55.178 183.383 51.986C183.459 48.7687 183.497 45.6527 183.497 42.638C183.497 39.598 183.459 36.4693 183.383 33.252C183.333 30.0347 183.257 26.5387 183.155 22.764C183.13 21.1173 182.864 19.8887 182.357 19.078C181.851 18.2673 180.951 17.748 179.659 17.52V11.744C183.155 12.0227 185.689 13.0613 187.259 14.86C188.855 16.6333 189.704 19.3567 189.805 23.03C189.881 26.6527 189.932 30.0473 189.957 33.214C190.008 36.3553 190.033 39.446 190.033 42.486C190.033 45.5007 190.008 48.604 189.957 51.796C189.932 54.988 189.881 58.446 189.805 62.17C189.704 65.8687 188.855 68.6047 187.259 70.378C185.689 72.126 183.155 73.152 179.659 73.456ZM224.743 73L222.881 53.43L220.791 18.394H217.789L215.927 53.43L214.901 64.032H209.011L210.493 35.684L212.925 12.58H225.541L228.087 35.684L229.911 66.958H238.575L238.081 73H224.743ZM200.385 73L196.091 12.2H202.779L204.261 35.684L205.781 66.958H214.559L213.799 73H200.385ZM232.951 64.032L234.433 35.684L235.839 12.2H242.603L238.803 64.032H232.951ZM259.122 73.494C255.499 73.2153 252.877 72.1893 251.256 70.416C249.66 68.6427 248.837 65.894 248.786 62.17C248.735 58.446 248.697 54.988 248.672 51.796C248.647 48.5787 248.634 45.4627 248.634 42.448C248.634 39.408 248.647 36.3173 248.672 33.176C248.697 30.0093 248.735 26.6273 248.786 23.03C248.837 19.306 249.66 16.5573 251.256 14.784C252.877 12.9853 255.499 11.9593 259.122 11.706V17.52C257.83 17.748 256.918 18.2673 256.386 19.078C255.854 19.8887 255.575 21.1173 255.55 22.764C255.423 26.4627 255.335 29.908 255.284 33.1C255.259 36.2667 255.246 39.37 255.246 42.41C255.246 45.4247 255.259 48.5533 255.284 51.796C255.335 55.0387 255.423 58.5853 255.55 62.436C255.575 64.0827 255.854 65.3113 256.386 66.122C256.918 66.9327 257.83 67.452 259.122 67.68V73.494ZM263.378 73.456V67.642C264.67 67.414 265.569 66.9073 266.076 66.122C266.583 65.3113 266.849 64.0827 266.874 62.436C266.975 58.6613 267.051 55.178 267.102 51.986C267.178 48.7687 267.216 45.6527 267.216 42.638C267.216 39.598 267.178 36.4693 267.102 33.252C267.051 30.0347 266.975 26.5387 266.874 22.764C266.849 21.1173 266.583 19.8887 266.076 19.078C265.569 18.2673 264.67 17.748 263.378 17.52V11.744C266.874 12.0227 269.407 13.0613 270.978 14.86C272.574 16.6333 273.423 19.3567 273.524 23.03C273.6 26.6527 273.651 30.0473 273.676 33.214C273.727 36.3553 273.752 39.446 273.752 42.486C273.752 45.5007 273.727 48.604 273.676 51.796C273.651 54.988 273.6 58.446 273.524 62.17C273.423 65.8687 272.574 68.6047 270.978 70.378C269.407 72.126 266.874 73.152 263.378 73.456ZM298.877 73L295.267 51.416L290.897 18.166H282.195V12.2H295.609L298.839 32.188L303.779 66.958H312.443V73H298.877ZM282.195 73V21.168H288.047L288.427 49.82L288.845 73H282.195ZM306.515 63.918L306.097 34.316L305.717 12.2H312.443V63.918H306.515ZM321.457 73V12.2H328.145V73H321.457ZM332.363 73V66.996H342.585V73H332.363ZM332.363 45.374V39.37H341.825V45.374H332.363ZM332.363 18.204V12.2H342.585V18.204H332.363Z" fill="#D9D9D9"/>
</svg>
