<svg width="346" height="83" viewBox="0 0 346 83" fill="none" xmlns="http://www.w3.org/2000/svg">
<path d="M50.6277 29.7563C58.549 30.1036 66.4625 30.5524 74.047 33.1745C77.411 34.3373 80.261 36.4678 83.2123 38.3758C87.684 41.2672 92.1031 44.2405 96.3704 47.4304L96.3509 47.5182L96.2652 47.5436C89.3952 44.9156 82.5212 42.2934 75.6531 39.6576C67.3093 36.4541 58.9695 33.2389 50.6277 30.0275C50.5167 29.9358 50.5206 29.8461 50.6277 29.7544V29.7563Z" fill="#D9D9D9"/>
<path d="M91.9786 12.8376C84.982 10.0458 77.9738 7.28315 70.9966 4.44055C69.2893 3.74404 67.6112 4.19277 65.9351 4.26106C60.895 4.46591 55.8587 4.78978 50.8205 5.06682C50.7096 4.97512 50.7135 4.88342 50.8205 4.79173C56.178 2.80366 61.6873 1.48869 67.3893 1.03997C72.2776 0.65562 76.8018 1.83402 81.0282 4.27667C85.0735 6.61591 88.8561 9.30243 92.0916 12.7089C92.0877 12.781 92.0468 12.822 91.9767 12.8357L91.9786 12.8376Z" fill="#D9D9D9"/>
<path d="M100.938 27.2576C95.4458 24.9945 89.8314 22.985 84.4954 20.396C79.5993 18.0216 74.528 17.2783 69.229 17.2081C67.7125 17.1886 66.1979 17.0442 64.4614 16.9427C66.1123 15.6258 67.8098 14.7693 69.5794 14.0377C73.4145 12.4515 77.1581 12.5471 80.8959 14.4591C87.9917 18.0899 94.5912 22.4953 101.047 27.1406L101.025 27.2303L100.938 27.2557V27.2576Z" fill="#D9D9D9"/>
<path d="M85.2719 78.8944C82.8482 69.7657 81.0903 60.7501 79.3655 51.6917C80.4031 53.5705 81.4407 55.4473 82.4764 57.3261C84.6606 61.2847 86.8371 65.2472 89.0428 69.194C89.2861 69.6291 89.3406 69.9744 89.1284 70.4329C87.8728 73.1526 86.6405 75.884 85.2719 78.8944V78.8944Z" fill="#D9D9D9"/>
<path d="M90.3843 31.2081C86.9697 30.3925 83.6447 29.6004 80.3196 28.8044C72.6631 26.9705 65.0026 25.1444 57.35 23.2909C55.7206 22.8968 54.2235 23.5484 52.6797 23.7865C49.9952 24.2001 47.332 24.7405 44.6553 25.2107C44.3243 25.2692 43.9564 25.4175 43.606 25.0975C47.1296 23.2363 50.5967 21.336 54.5155 20.4288C56.4117 19.9898 58.1637 20.3937 59.9197 20.9517C69.6067 24.0284 79.2373 27.2788 88.8444 30.5974C89.337 30.7671 89.8139 30.9817 90.3843 31.21V31.2081Z" fill="#D9D9D9"/>
<path d="M73.2395 65.9925C69.8113 57.6852 66.383 49.3798 62.9529 41.0627C63.2099 40.8676 63.3442 41.1525 63.5058 41.2617C65.4077 42.5533 67.2455 43.9307 69.0462 45.3627C70.8645 46.8084 72.0578 48.5058 72.3654 50.9269C73 55.9254 73.2259 60.9414 73.2414 65.9925H73.2395Z" fill="#D9D9D9"/>
<path d="M44.0751 77.2805C40.9175 67.3636 37.7599 57.4467 34.5984 47.5162C35.0851 47.3874 35.2291 47.721 35.4121 47.8986C36.9734 49.4086 38.4977 50.9558 40.0629 52.46C41.0655 53.4238 41.6768 54.448 41.8267 55.9484C42.5431 63.0656 43.423 70.1672 44.2465 77.2747C44.192 77.3332 44.1355 77.3352 44.0751 77.2805V77.2805Z" fill="#D9D9D9"/>
<path d="M70.8838 9.9367C62.7483 10.5474 54.6129 11.16 46.4755 11.757C46.0705 11.7862 45.726 11.9092 45.3775 12.0769C41.8539 13.7704 38.3283 15.4658 34.7989 17.1476C34.5847 17.249 34.392 17.489 33.9949 17.3251C37.1038 14.2386 40.1622 11.1912 44.1627 9.32409C45.214 8.83439 46.3489 8.69392 47.4702 8.6627C55.3176 8.452 63.1162 9.21093 70.8857 9.9367H70.8838Z" fill="#D9D9D9"/>
<path d="M32.6459 56.208C33.6096 61.3664 34.5713 66.5249 35.5466 71.6813C35.6147 72.0442 35.6264 72.3583 35.4882 72.7154C34.5751 75.0663 33.6641 77.4173 32.8114 79.7897C32.5778 80.4374 32.4123 80.4374 31.9393 80.014C29.975 78.2562 29.2158 76.1764 29.9166 73.5523C30.999 69.504 31.4195 65.3386 31.9295 61.1908C32.1339 59.5266 32.3189 57.8605 32.5135 56.1943L32.6479 56.206L32.6459 56.208Z" fill="#D9D9D9"/>
<path d="M26.2292 71.4843C26.2292 71.1487 26.2292 70.8151 26.2292 70.4795C26.2292 64.3456 26.2565 58.2097 26.2059 52.0758C26.1961 50.954 26.4103 50.0936 27.3545 49.4205C27.9268 49.0127 28.4018 48.4645 28.9956 47.9084C30.3408 50.874 31.5224 53.7322 30.697 57.082C29.492 61.9615 27.9755 66.7375 26.2292 71.4843V71.4843Z" fill="#D9D9D9"/>
<path d="M79.7923 45.6064C81.6807 46.6951 83.571 47.7779 85.4554 48.8705C89.1192 50.9912 92.783 53.1119 96.4409 55.2463C96.7057 55.4004 97.0483 55.4863 97.1593 55.8492C97.9808 58.5181 98.8082 61.1871 99.4331 63.9868C92.8472 57.9153 86.2614 51.8438 79.6755 45.7703L79.7923 45.6064V45.6064Z" fill="#D9D9D9"/>
<path d="M58.9073 0C53.5868 1.49446 48.2664 2.99478 42.944 4.47753C42.4612 4.61215 42.0679 4.81896 41.7058 5.17794C39.0427 7.83519 36.3601 10.4749 33.6833 13.1185C33.4614 13.337 33.2316 13.5458 32.8423 13.6589C33.0564 13.2473 33.2686 12.8336 33.4867 12.4239C34.9117 9.73546 36.5002 7.15039 38.1783 4.60825C39.7435 2.23779 41.8265 1.04768 44.661 0.801859C49.4013 0.39215 54.1436 0.0702358 58.9092 0.00195099L58.9073 0Z" fill="#D9D9D9"/>
<path d="M17.936 27.5109C17.9613 27.3353 17.9458 27.1383 18.0178 26.9841C20.9885 20.7546 24.1987 14.6695 28.9293 9.5481C30.2103 8.16094 31.6509 6.95913 33.4886 6.35237C33.7241 6.27433 33.9792 6.26263 34.3335 6.2002C33.0097 9.42129 31.3511 12.2522 29.0734 14.7768C25.4096 18.8426 21.9191 23.0646 18.3604 27.2261C18.2572 27.347 18.2008 27.507 18.121 27.6494L17.9341 27.509L17.936 27.5109Z" fill="#D9D9D9"/>
<path d="M13.0207 69.83C15.1192 65.7486 17.2178 61.6671 19.3203 57.5875C20.1165 56.0404 20.9264 54.4991 21.8102 52.8018C22.7408 54.9361 23.4455 56.9535 23.1827 59.1737C23.0795 60.0516 22.4565 60.6916 21.9076 61.312C19.1782 64.4063 16.2503 67.3035 13.1725 70.0485C13.0518 70.0232 13.0012 69.951 13.0207 69.8281V69.83Z" fill="#D9D9D9"/>
<path d="M15.6919 50.2031C16.0501 51.6917 16.1397 52.9716 16.0677 54.2807C15.9392 56.5926 14.5881 58.1534 12.9587 59.5581C10.1379 61.993 7.15351 64.221 4.13216 66.3964C3.92191 66.5486 3.73697 66.8627 3.26196 66.6676C7.38128 61.2126 11.4772 55.7869 15.6939 50.2031H15.6919Z" fill="#D9D9D9"/>
<path d="M30.6195 40.8579C29.2198 41.2735 27.822 41.6988 26.4184 42.1026C19.9474 43.9639 13.4706 45.8056 7.00544 47.6942C6.41168 47.8678 6.15082 47.7937 5.88022 47.2455C5.25142 45.9734 4.56032 44.7326 3.89648 43.4878C4.10673 43.2303 4.27999 43.4644 4.40848 43.5269C7.43956 45.0096 10.4492 43.7844 13.4394 43.3981C18.4718 42.7484 23.4827 41.9271 28.5053 41.1935C29.212 41.0901 29.9323 41.0784 30.6467 41.0237L30.6195 40.8599V40.8579Z" fill="#D9D9D9"/>
<path d="M65.7674 58.0635C67.9147 63.1361 69.9646 68.2535 72.2579 73.2598C73.2177 75.3532 73.4805 77.2144 72.3669 79.2649C71.925 80.0785 71.6992 81.0091 71.2398 82.25C69.3281 73.9836 67.4903 66.0411 65.6545 58.0986L65.7674 58.0635V58.0635Z" fill="#D9D9D9"/>
<path d="M14.9481 30.9114C11.3193 33.9588 7.9028 37.3087 3.37078 39.0061C2.72251 39.2499 2.50447 39.6031 2.5512 40.2859C2.61544 41.2087 2.56677 42.1413 2.56677 43.3041C1.54862 41.7316 0.764084 40.3113 0.195634 38.7778C-0.442899 37.059 0.516847 35.5255 2.56093 35.4767C6.54981 35.3831 9.89238 33.5764 13.2778 31.8147C13.8384 31.522 14.3913 31.2118 14.9481 30.9094V30.9114Z" fill="#D9D9D9"/>
<path d="M39.3036 35.9218H20.9574L20.936 35.7715C23.8386 35.3013 26.7334 34.7863 29.6438 34.3746C31.6276 34.0937 33.6522 34.0644 35.6223 33.7171C37.5476 33.3777 38.5444 34.3102 39.3036 35.9218V35.9218Z" fill="#D9D9D9"/>
<path d="M29.7586 42.9375C26.1883 44.5627 22.6219 46.1918 19.0437 47.7994C18.7946 47.9106 18.4694 47.8696 18.1813 47.8696C15.5279 47.8735 12.8726 47.8716 10.188 47.6999C16.7018 46.0376 23.2137 44.3754 29.7275 42.7131L29.7606 42.9356L29.7586 42.9375Z" fill="#D9D9D9"/>
<path d="M23.2915 33.2901C28.3355 31.0191 33.07 27.681 39.3522 28.6799C33.8176 30.268 28.5536 31.78 23.2915 33.2901V33.2901Z" fill="#D9D9D9"/>
<path d="M44.075 77.281C44.1314 77.2693 44.1879 77.2674 44.2463 77.2752C44.6025 77.5932 44.2249 78.0205 44.4682 78.5043C44.3066 78.001 44.1918 77.642 44.075 77.281V77.281Z" fill="#D9D9D9"/>
<path d="M50.8225 4.7937V5.06879C50.583 5.0883 50.3455 5.10976 49.7615 5.15854C50.328 4.96344 50.5752 4.87954 50.8225 4.7937Z" fill="#D9D9D9"/>
<path d="M50.6283 29.7568V30.0299L49.9819 29.8173C50.2272 29.6183 50.4277 29.6885 50.6283 29.7568Z" fill="#D9D9D9"/>
<path d="M91.1321 31.331L90.955 31.2861L90.9258 31.409C90.9569 31.4129 90.992 31.4305 91.0153 31.4208C91.0562 31.4012 91.0893 31.3661 91.1321 31.331Z" fill="#D9D9D9"/>
<path d="M15.4854 30.727L15.5285 30.6505L15.4717 30.6387L15.4854 30.727Z" fill="#D9D9D9"/>
<path d="M79.1768 51.4384C79.1593 51.4559 79.1418 51.4735 79.1243 51.4911C79.1165 51.4638 79.099 51.4364 79.1029 51.413C79.1067 51.3916 79.136 51.374 79.1554 51.3545C79.1632 51.3818 79.169 51.4111 79.1768 51.4384Z" fill="#D9D9D9"/>
<path d="M18.5674 28.7953L18.542 28.866C18.5145 28.8562 18.4832 28.8523 18.4636 28.8346C18.4558 28.8287 18.4773 28.7894 18.4852 28.7659L18.5655 28.7953H18.5674Z" fill="#D9D9D9"/>
<path d="M13.1727 70.0505L12.8885 70.23C12.8067 70.0564 12.8554 69.9237 13.0209 69.832L13.1727 70.0525V70.0505Z" fill="#D9D9D9"/>
<path d="M41.6766 36.3218L41.5442 36.1853L41.626 36.1619C41.6337 36.2204 41.6435 36.2789 41.6513 36.3375L41.6766 36.3199V36.3218Z" fill="#D9D9D9"/>
<path d="M96.3705 47.4304L96.499 47.5924C96.4211 47.5767 96.3432 47.5592 96.2634 47.5436C96.2965 47.5046 96.3316 47.4655 96.3685 47.4304H96.3705Z" fill="#D9D9D9"/>
<path d="M19.3085 30.8824L19.1294 31.0073C19.1469 30.9273 19.1644 30.8473 19.182 30.7693C19.2267 30.8044 19.2696 30.8415 19.3085 30.8824Z" fill="#D9D9D9"/>
<path d="M92.0936 12.7109L92.2202 12.8182C92.1403 12.8241 92.0605 12.8319 91.9807 12.8378C92.0158 12.7929 92.0527 12.75 92.0956 12.7109H92.0936Z" fill="#D9D9D9"/>
<path d="M50.4547 77.6986C50.3963 77.7396 50.336 77.7805 50.2776 77.8235C50.2834 77.7435 50.2873 77.6615 50.2932 77.5815C50.3477 77.6206 50.4002 77.6615 50.4547 77.7006V77.6986Z" fill="#D9D9D9"/>
<path d="M45.917 31.3994C48.0895 32.7319 49.9562 33.8363 51.7803 35.0068C54.0131 36.4408 56.1757 37.9726 58.2217 39.6758C59.8531 41.0337 60.4438 42.7795 60.5684 44.791C60.9266 50.5035 59.9138 56.0716 58.9521 61.6631C58.0158 67.114 54.7318 71.3146 51.8779 75.7588C51.4458 76.4319 50.9291 77.0525 50.4541 77.6982C50.3668 77.7039 50.3124 77.6648 50.293 77.5791C51.7588 73.7436 52.5976 69.8048 52.5898 65.667C52.5821 61.5447 51.1262 57.8142 49.707 54.0742C47.478 48.1959 44.7601 42.5339 41.8965 36.9424C41.799 36.7526 41.7497 36.5366 41.6797 36.333C42.1533 36.2258 42.3931 36.6438 42.708 36.8486C45.8402 38.8854 48.9553 40.9474 52.2783 42.8555C50.2226 39.1546 48.1693 35.4554 45.917 31.3994ZM48.0117 43.7295C50.9084 50.2925 53.9007 56.7735 55.4834 63.8125C56.2679 59.8385 57.146 55.8918 57.0059 51.8164C56.9844 51.1706 56.6488 50.6558 56.1504 50.2383C53.9876 48.4297 51.8405 46.5996 49.666 44.8066C49.1658 44.3931 48.7279 43.835 48.0117 43.7295ZM54.7295 41.0098C55.4011 43.1304 55.9856 44.9818 56.6377 47.0439C57.1126 46.2345 57.4963 45.6124 57.8428 44.9707C58.0199 44.6411 58.4069 44.233 58.1309 43.9111C57.1945 42.8244 56.1312 41.8663 54.7314 41.0098H54.7295ZM41.6797 36.333C41.6704 36.3351 41.6608 36.3364 41.6514 36.3389L41.6768 36.3213C41.678 36.3249 41.6784 36.3293 41.6797 36.333Z" fill="#D9D9D9"/>
<path d="M33.6499 19.4944C32.4819 21.576 31.1624 23.2893 29.9224 25.0608C28.1723 27.5579 25.4547 28.3402 22.8306 29.3079C21.6179 29.7546 20.4361 30.252 19.3091 30.884C19.2371 30.8782 19.1938 30.8429 19.1821 30.7708V30.7688C22.4448 25.1404 26.6206 20.6846 33.6499 19.4944ZM27.9751 22.9456C25.3589 24.1532 23.7821 26.235 22.145 28.2483C22.1061 28.3517 22.1434 28.3889 22.2485 28.3694C24.5612 27.0955 27.2957 26.2757 27.9751 22.9456Z" fill="#D9D9D9"/>
<path d="M22.2502 28.3693C22.1529 28.5429 22.0244 28.5546 21.8687 28.4492C21.9621 28.381 22.0536 28.3146 22.147 28.2463C22.1801 28.2873 22.2152 28.3283 22.2502 28.3673V28.3693Z" fill="#D9D9D9"/>
<path d="M143.379 73.25L139.758 51.6002L135.375 18.2488H126.647V12.2646H140.102L143.341 32.3136L148.296 67.1896H156.987V73.25H143.379ZM126.647 73.25V21.26H132.516L132.898 49.9993L133.317 73.25H126.647ZM151.041 64.1403L150.622 34.4481L150.24 12.2646H156.987V64.1403H151.041Z" fill="#D9D9D9"/>
<path d="M299.379 73.25L295.758 51.6002L291.375 18.2488H282.647V12.2646H296.102L299.341 32.3136L304.296 67.1896H312.987V73.25H299.379ZM282.647 73.25V21.26H288.516L288.898 49.9993L289.317 73.25H282.647ZM307.041 64.1403L306.622 34.4481L306.24 12.2646H312.987V64.1403H307.041Z" fill="#D9D9D9"/>
<path d="M321.647 73.25V12.2646H328.355V73.25H321.647ZM332.586 73.25V67.2277H342.839V73.25H332.586ZM332.586 45.5398V39.5175H342.077V45.5398H332.586ZM332.586 18.2869V12.2646H342.839V18.2869H332.586Z" fill="#D9D9D9"/>
<path d="M175.557 73.7455C171.923 73.466 169.293 72.4369 167.667 70.6581C166.066 68.8794 165.24 66.1223 165.189 62.387C165.138 58.6516 165.1 55.1831 165.075 51.9813C165.049 48.7542 165.037 45.6287 165.037 42.6048C165.037 39.5556 165.049 36.4555 165.075 33.3046C165.1 30.1282 165.138 26.7359 165.189 23.1276C165.24 19.3923 166.066 16.6352 167.667 14.8565C169.293 13.0523 171.923 12.0232 175.557 11.7691V17.6008C174.261 17.8295 173.346 18.3504 172.812 19.1636C172.279 19.9767 171.999 21.2091 171.974 22.8608C171.847 26.5708 171.758 30.0266 171.707 33.2283C171.682 36.4047 171.669 39.5175 171.669 42.5667C171.669 45.5906 171.682 48.7288 171.707 51.9813C171.758 55.2339 171.847 58.7914 171.974 62.6538C171.999 64.3055 172.279 65.5379 172.812 66.351C173.346 67.1642 174.261 67.6851 175.557 67.9138V73.7455ZM179.826 73.7074V67.8757C181.122 67.647 182.024 67.1388 182.532 66.351C183.04 65.5379 183.307 64.3055 183.332 62.6538C183.434 58.8676 183.51 55.3737 183.561 52.1719C183.637 48.9448 183.675 45.8193 183.675 42.7954C183.675 39.7462 183.637 36.6079 183.561 33.3808C183.51 30.1537 183.434 26.647 183.332 22.8608C183.307 21.2091 183.04 19.9767 182.532 19.1636C182.024 18.3504 181.122 17.8295 179.826 17.6008V11.8072C183.332 12.0867 185.873 13.1286 187.449 14.9327C189.05 16.7115 189.901 19.4431 190.003 23.1276C190.079 26.7613 190.13 30.1664 190.155 33.3427C190.206 36.4936 190.231 39.5937 190.231 42.643C190.231 45.6668 190.206 48.7796 190.155 51.9813C190.13 55.1831 190.079 58.6516 190.003 62.387C189.901 66.0969 189.05 68.8413 187.449 70.62C185.873 72.3733 183.332 73.4025 179.826 73.7074Z" fill="#D9D9D9"/>
<path d="M259.557 73.7455C255.923 73.466 253.293 72.4369 251.667 70.6581C250.066 68.8794 249.24 66.1223 249.189 62.387C249.138 58.6516 249.1 55.1831 249.075 51.9813C249.049 48.7542 249.037 45.6287 249.037 42.6048C249.037 39.5556 249.049 36.4555 249.075 33.3046C249.1 30.1282 249.138 26.7359 249.189 23.1276C249.24 19.3923 250.066 16.6352 251.667 14.8565C253.293 13.0523 255.923 12.0232 259.557 11.7691V17.6008C258.261 17.8295 257.346 18.3504 256.812 19.1636C256.279 19.9767 255.999 21.2091 255.974 22.8608C255.847 26.5708 255.758 30.0266 255.707 33.2283C255.682 36.4047 255.669 39.5175 255.669 42.5667C255.669 45.5906 255.682 48.7288 255.707 51.9813C255.758 55.2339 255.847 58.7914 255.974 62.6538C255.999 64.3055 256.279 65.5379 256.812 66.351C257.346 67.1642 258.261 67.6851 259.557 67.9138V73.7455ZM263.826 73.7074V67.8757C265.122 67.647 266.024 67.1388 266.532 66.351C267.04 65.5379 267.307 64.3055 267.332 62.6538C267.434 58.8676 267.51 55.3737 267.561 52.1719C267.637 48.9448 267.675 45.8193 267.675 42.7954C267.675 39.7462 267.637 36.6079 267.561 33.3808C267.51 30.1537 267.434 26.647 267.332 22.8608C267.307 21.2091 267.04 19.9767 266.532 19.1636C266.024 18.3504 265.122 17.8295 263.826 17.6008V11.8072C267.332 12.0867 269.873 13.1286 271.449 14.9327C273.05 16.7115 273.901 19.4431 274.003 23.1276C274.079 26.7613 274.13 30.1664 274.155 33.3427C274.206 36.4936 274.231 39.5937 274.231 42.643C274.231 45.6668 274.206 48.7796 274.155 51.9813C274.13 55.1831 274.079 58.6516 274.003 62.387C273.901 66.0969 273.05 68.8413 271.449 70.62C269.873 72.3733 267.332 73.4025 263.826 73.7074Z" fill="#D9D9D9"/>
<path d="M225.366 73.25L223.498 53.6203L221.402 18.4775H218.391L216.523 53.6203L215.494 64.2547H209.586L211.072 35.8202L213.512 12.6458H226.166L228.72 35.8202L230.55 67.1896H239.24L238.745 73.25H225.366ZM200.934 73.25L196.626 12.2646H203.335L204.821 35.8202L206.346 67.1896H215.151L214.388 73.25H200.934ZM233.599 64.2547L235.085 35.8202L236.496 12.2646H243.28L239.469 64.2547H233.599Z" fill="#D9D9D9"/>
</svg>
