<svg width="512" height="512" viewBox="0 0 512 512" fill="none" xmlns="http://www.w3.org/2000/svg">
<path d="M0 160C0 71.6344 71.6344 0 160 0H352C440.366 0 512 71.6344 512 160V352C512 440.366 440.366 512 352 512H160C71.6344 512 0 440.366 0 352V160Z" fill="#414040"/>
<mask id="path-2-inside-1_1733_460" fill="white">
<path d="M256.343 192.011C289.532 193.885 322.689 196.306 354.467 210.457C368.562 216.732 380.504 228.229 392.869 238.526C411.605 254.129 430.121 270.175 448 287.389L447.918 287.863L447.56 288C418.775 273.818 389.973 259.667 361.197 245.443C326.237 228.155 291.294 210.804 256.343 193.474C255.878 192.979 255.894 192.495 256.343 192V192.011Z"/>
</mask>
<path d="M256.343 192.011H96.3426V343.231L247.322 351.756L256.343 192.011ZM354.467 210.457L289.383 356.621L289.392 356.625L354.467 210.457ZM392.869 238.526L495.261 115.579L495.254 115.573L392.869 238.526ZM448 287.389L605.68 314.537L620.071 230.954L558.973 172.129L448 287.389ZM447.918 287.863L504.934 437.36L590.128 404.868L605.598 315.011L447.918 287.863ZM447.56 288L376.846 431.526L439.409 462.35L504.575 437.497L447.56 288ZM361.197 245.443L290.273 388.865L290.285 388.871L290.298 388.878L361.197 245.443ZM256.343 193.474L139.736 303.032L159.46 324.024L185.266 336.82L256.343 193.474ZM256.343 192H416.343V-222.705L137.804 84.5354L256.343 192ZM256.343 192.011L247.322 351.756C263.993 352.697 273.276 353.448 280.817 354.646C284.155 355.177 286.305 355.679 287.62 356.044C288.885 356.395 289.381 356.62 289.383 356.621L354.467 210.457L419.552 64.2925C357.683 36.7432 296.815 34.041 265.363 32.265L256.343 192.011ZM354.467 210.457L289.392 356.625C284.051 354.247 280.219 351.96 278.064 350.573C275.955 349.215 274.961 348.398 275.448 348.78C275.655 348.943 276.092 349.293 276.85 349.921C277.622 350.561 278.559 351.352 279.848 352.45C280.489 352.997 281.154 353.566 281.923 354.224C282.659 354.853 283.518 355.589 284.382 356.326C286.116 357.805 288.215 359.589 290.484 361.479L392.869 238.526L495.254 115.573C493.096 113.776 491.643 112.505 487.421 108.907C483.959 105.956 478.91 101.685 473.186 97.186C462.093 88.4681 443.76 75.07 419.542 64.2882L354.467 210.457ZM392.869 238.526L290.478 361.473C307.723 375.836 323.011 389.155 337.027 402.65L448 287.389L558.973 172.129C537.23 151.195 515.486 132.423 495.261 115.579L392.869 238.526ZM448 287.389L290.32 260.242L290.238 260.715L447.918 287.863L605.598 315.011L605.68 314.537L448 287.389ZM447.918 287.863L390.903 138.367L390.544 138.503L447.56 288L504.575 437.497L504.934 437.36L447.918 287.863ZM447.56 288L518.273 144.474C489.268 130.184 460.757 116.176 432.095 102.009L361.197 245.443L290.298 388.878C319.19 403.159 348.281 417.452 376.846 431.526L447.56 288ZM361.197 245.443L432.121 102.022C397.263 84.7838 362.48 67.5125 327.419 50.1277L256.343 193.474L185.266 336.82C220.107 354.096 255.212 371.527 290.273 388.865L361.197 245.443ZM256.343 193.474L372.949 83.9165C390.621 102.725 416.443 140.241 415.994 194.07C415.557 246.612 390.261 282.5 374.881 299.465L256.343 192L137.804 84.5354C121.976 101.995 96.4473 138.373 96.0056 191.404C95.5531 245.722 121.599 283.728 139.736 303.032L256.343 193.474ZM256.343 192H96.3426V192.011H256.343H416.343V192H256.343Z" fill="#D9D9D9" mask="url(#path-2-inside-1_1733_460)"/>
<mask id="path-4-inside-2_1733_460" fill="white">
<path d="M480 223.983C461.313 216.845 443.117 209.911 424.92 202.943C383.019 186.89 341.096 170.906 299.216 154.682C290.299 151.232 282.106 156.936 273.657 159.02C258.966 162.64 244.391 167.371 229.742 171.486C227.931 171.999 225.918 173.297 224 170.496C243.283 154.204 262.258 137.57 283.704 129.629C294.081 125.787 303.669 129.322 313.279 134.206C366.292 161.137 418.996 189.589 471.573 218.638C474.268 220.123 476.878 222.002 480 224V223.983Z"/>
</mask>
<path d="M480 223.983H675.561V89.3437L549.787 41.2972L480 223.983ZM424.92 202.943L354.957 385.562L354.973 385.568L354.989 385.574L424.92 202.943ZM299.216 154.682L369.858 -27.6745L369.816 -27.6908L369.774 -27.7071L299.216 154.682ZM273.657 159.02L320.45 348.901L320.466 348.897L320.482 348.893L273.657 159.02ZM229.742 171.486L176.847 -16.7854L176.679 -16.7383L176.512 -16.691L229.742 171.486ZM224 170.496L97.7901 21.1128L-37.2027 135.165L62.6393 280.981L224 170.496ZM283.704 129.629L351.611 313.022L351.613 313.021L283.704 129.629ZM313.279 134.206L224.672 308.542L224.689 308.551L224.705 308.559L313.279 134.206ZM471.573 218.638L376.999 389.81L377.084 389.857L377.168 389.904L471.573 218.638ZM480 224L374.572 388.709L675.561 581.369V224H480ZM480 223.983L549.787 41.2972C530.878 34.074 512.967 27.2497 494.851 20.3127L424.92 202.943L354.989 385.574C373.266 392.572 391.748 399.615 410.213 406.669L480 223.983ZM424.92 202.943L494.883 20.3252C452.593 4.12348 411.287 -11.6256 369.858 -27.6745L299.216 154.682L228.574 337.039C270.905 353.437 313.444 369.657 354.957 385.562L424.92 202.943ZM299.216 154.682L369.774 -27.7071C307.17 -51.9259 253.254 -39.4371 230.493 -32.6653C224.779 -30.9651 220.096 -29.3349 217.245 -28.3155C215.784 -27.7929 214.531 -27.3315 213.737 -27.0383C211.243 -26.1164 214.051 -27.1522 212.215 -26.4742C210.244 -25.7465 217.251 -28.4901 226.833 -30.8531L273.657 159.02L320.482 348.893C334.288 345.488 345.487 341.25 347.707 340.43C353.081 338.446 347.583 340.565 342.028 342.217C327.705 346.479 282.345 357.84 228.658 337.071L299.216 154.682ZM273.657 159.02L226.865 -30.861C209.23 -26.5152 180.252 -17.7422 176.847 -16.7854L229.742 171.486L282.638 359.758C308.531 352.484 308.702 351.796 320.45 348.901L273.657 159.02ZM229.742 171.486L176.512 -16.691C170.987 -15.1281 166.614 -13.6207 166.014 -13.4162C163.998 -12.7298 166.905 -13.7328 169.297 -14.4903C174.119 -16.0178 193.386 -22.1526 219.167 -23.1744C248.387 -24.3325 283.793 -18.9388 318.735 0.0250407C351.961 18.0575 373.033 42.0067 385.361 60.0107L224 170.496L62.6393 280.981C75.9257 300.386 97.9691 325.223 132.168 343.784C168.084 363.276 204.465 368.838 234.656 367.642C261.406 366.581 281.636 360.201 287.405 358.374C290.27 357.466 293.646 356.3 292.095 356.828C291.958 356.874 288.045 358.229 282.973 359.664L229.742 171.486ZM224 170.496L350.21 319.879C351.505 318.785 352.803 317.686 353.962 316.705C355.158 315.692 356.248 314.77 357.309 313.875C359.439 312.079 361.197 310.608 362.776 309.307C366.015 306.639 367.686 305.366 368.431 304.821C369.146 304.299 368.073 305.14 365.533 306.6C362.945 308.089 358.236 310.569 351.611 313.022L283.704 129.629L215.797 -53.7635C155.072 -31.2784 107.466 12.9375 97.7901 21.1128L224 170.496ZM283.704 129.629L351.613 313.021C316.943 325.859 283.952 325.287 259.115 320.142C247.845 317.808 239.189 314.751 233.872 312.639C228.643 310.562 225.199 308.81 224.672 308.542L313.279 134.206L401.886 -40.1299C386.881 -47.7562 309.741 -88.5503 215.795 -53.7628L283.704 129.629ZM313.279 134.206L224.705 308.559C274.905 334.061 325.428 361.317 376.999 389.81L471.573 218.638L566.147 47.4653C512.564 17.8604 457.679 -11.7862 401.852 -40.1471L313.279 134.206ZM471.573 218.638L377.168 389.904C374.308 388.327 372.073 386.979 370.663 386.107C369.294 385.259 368.387 384.663 368.355 384.641C368.322 384.62 368.375 384.655 368.646 384.834C368.788 384.928 368.913 385.011 369.127 385.153C369.318 385.28 369.56 385.44 369.821 385.613C370.834 386.283 372.545 387.412 374.572 388.709L480 224L585.428 59.2909C585.894 59.5887 586.109 59.7339 585.67 59.4437C585.339 59.2248 585.293 59.1936 584.699 58.7997C584.264 58.512 583.621 58.0864 582.898 57.612C580.373 55.9554 574.035 51.8129 565.977 47.3716L471.573 218.638ZM480 224H675.561V223.983H480H284.439V224H480Z" fill="#D9D9D9" mask="url(#path-4-inside-2_1733_460)"/>
<mask id="path-6-inside-3_1733_460" fill="white">
<path d="M422.87 415.231C388.62 366.117 354.372 317.017 320.096 267.843C321.49 266.205 322.774 267.865 323.984 268.343C338.23 274.013 352.18 280.333 365.968 287.061C379.889 293.854 390.099 303.181 395.575 318.488C406.877 350.09 415.54 382.394 422.883 415.228L422.87 415.231Z"/>
</mask>
<path d="M422.87 415.231L218.608 557.677L313.857 694.26L476.469 658.42L422.87 415.231ZM320.096 267.843L130.492 106.398L5.95523 252.656L115.803 410.245L320.096 267.843ZM323.984 268.343L416.065 36.9672L415.836 36.876L415.606 36.7853L323.984 268.343ZM365.968 287.061L256.751 510.859L256.761 510.864L256.772 510.869L365.968 287.061ZM395.575 318.488L630.057 234.631L630.054 234.623L630.051 234.615L395.575 318.488ZM422.883 415.228L476.482 658.417L720.423 604.652L665.905 360.878L422.883 415.228ZM422.87 415.231L627.132 272.784C592.866 223.648 558.644 174.585 524.388 125.44L320.096 267.843L115.803 410.245C150.1 459.448 184.374 508.586 218.608 557.677L422.87 415.231ZM320.096 267.843L509.699 429.288C483.916 459.567 438.163 497.673 370.091 511.326C304.461 524.489 252.054 507.914 226.127 497.084C203.493 487.63 185.579 475.534 190.025 478.344C190.046 478.357 190.364 478.558 190.742 478.796C191.144 479.048 191.777 479.444 192.551 479.922C194.046 480.844 196.567 482.38 199.732 484.193C205.563 487.533 217.057 493.845 232.361 499.901L323.984 268.343L415.606 36.7853C441.108 46.8758 461.18 60.5324 456.099 57.3212C456.097 57.3204 456.096 57.3195 456.093 57.3179C456.091 57.3164 456.087 57.3142 456.084 57.312C456.077 57.3074 456.066 57.3004 456.053 57.2923C456.027 57.2763 455.988 57.2514 455.941 57.2215C455.848 57.163 455.699 57.0693 455.519 56.9556C455.165 56.7331 454.587 56.3708 453.876 55.9308C452.496 55.0765 450.171 53.6547 447.258 51.9699C441.774 48.7983 431.555 43.1379 418.091 37.5139C391.518 26.4143 338.452 9.70179 272.151 22.9992C203.409 36.7862 156.972 75.2998 130.492 106.398L320.096 267.843ZM323.984 268.343L231.902 499.719C239.037 502.558 247.153 506.175 256.751 510.859L365.968 287.061L475.185 63.2638C457.207 54.4902 437.423 45.467 416.065 36.9672L323.984 268.343ZM365.968 287.061L256.772 510.869C245.105 505.177 225.61 493.87 205.816 473.611C184.994 452.299 170.073 427.45 161.099 402.362L395.575 318.488L630.051 234.615C597.702 144.181 532.723 91.3365 475.164 63.2536L365.968 287.061ZM395.575 318.488L161.093 402.345C167.924 421.447 173.979 443.278 179.86 469.578L422.883 415.228L665.905 360.878C657.101 321.51 645.829 278.734 630.057 234.631L395.575 318.488ZM422.883 415.228L369.283 172.039L369.271 172.042L422.87 415.231L476.469 658.42L476.482 658.417L422.883 415.228Z" fill="#D9D9D9" mask="url(#path-6-inside-3_1733_460)"/>
<mask id="path-8-inside-4_1733_460" fill="white">
<path d="M236.864 415.83C215.918 373.281 194.972 330.732 174 288.124C177.228 287.571 178.184 289.003 179.398 289.764C189.755 296.244 199.866 302.882 210.249 309.336C216.899 313.471 220.954 317.866 221.948 324.303C226.701 354.84 232.538 385.31 238 415.805C237.638 416.056 237.264 416.065 236.864 415.83V415.83Z"/>
</mask>
<path d="M174 288.124L147.011 130.416L-64.1674 166.556L30.4468 358.781L174 288.124ZM179.398 289.764L94.3513 425.29L94.4458 425.349L94.5405 425.408L179.398 289.764ZM210.249 309.336L294.734 173.46L294.726 173.455L294.717 173.45L210.249 309.336ZM221.948 324.303L63.8237 348.728L63.8375 348.817L63.8513 348.906L221.948 324.303ZM238 415.805L329.27 547.219L413.596 488.654L395.493 387.594L238 415.805ZM236.864 415.83L380.413 345.165C359.467 302.615 338.523 260.07 317.553 217.466L174 288.124L30.4468 358.781C51.4209 401.394 72.3688 443.947 93.3144 486.496L236.864 415.83ZM174 288.124L200.989 445.831C189.159 447.856 174.034 448.975 156.721 446.87C138.756 444.685 122.278 439.494 107.804 432.496C94.3463 425.989 85.0106 418.992 82.5929 417.181C82.0124 416.747 81.5197 416.37 81.7105 416.515C81.7345 416.533 81.929 416.682 82.1556 416.854C82.3969 417.037 82.769 417.318 83.2219 417.656C84.8183 418.848 88.8995 421.868 94.3513 425.29L179.398 289.764L264.445 154.239C271.579 158.717 281.28 166.189 274.4 161.037C271.361 158.761 261.357 151.298 247.104 144.407C231.837 137.024 214.438 131.531 195.348 129.21C176.91 126.968 160.455 128.116 147.011 130.416L174 288.124ZM179.398 289.764L94.5405 425.408C98.8839 428.125 103.249 430.921 108.58 434.332C113.652 437.578 119.59 441.374 125.78 445.222L210.249 309.336L294.717 173.45C278.035 163.08 285.1 167.161 264.255 154.121L179.398 289.764ZM210.249 309.336L125.763 445.211C120.913 442.195 107.494 433.384 94.114 416.94C78.9837 398.346 67.8637 374.882 63.8237 348.728L221.948 324.303L380.073 299.877C368.792 226.844 319.139 188.635 294.734 173.46L210.249 309.336ZM221.948 324.303L63.8513 348.906C68.9784 381.852 75.4985 416.057 80.5067 444.016L238 415.805L395.493 387.594C389.577 354.563 384.423 327.828 380.045 299.7L221.948 324.303ZM238 415.805L146.73 284.391C167.857 269.718 197.62 256.843 233.902 256.039C269.523 255.25 298.283 266.384 317.705 277.755L236.864 415.83L156.022 553.905C175.845 565.511 204.992 576.758 240.991 575.961C277.651 575.148 307.782 562.144 329.27 547.219L238 415.805Z" fill="#D9D9D9" mask="url(#path-8-inside-4_1733_460)"/>
<mask id="path-10-inside-5_1733_460" fill="white">
<path d="M150.096 288.073C155.291 315.455 160.476 342.837 165.735 370.208C166.102 372.134 166.165 373.802 165.42 375.697C160.497 388.176 155.585 400.656 150.988 413.249C149.728 416.687 148.836 416.687 146.285 414.44C135.695 405.109 131.601 394.069 135.38 380.14C141.216 358.651 143.483 336.54 146.233 314.522C147.335 305.689 148.332 296.844 149.382 288L150.106 288.062L150.096 288.073Z"/>
</mask>
<path d="M150.096 288.073L37.633 174.265L-22.9872 234.169L-7.09973 317.899L150.096 288.073ZM165.735 370.208L322.902 340.234L322.882 340.128L322.861 340.021L165.735 370.208ZM165.42 375.697L314.258 434.409L314.29 434.328L314.322 434.248L165.42 375.697ZM150.988 413.249L301.224 468.285L301.255 468.201L301.286 468.117L150.988 413.249ZM146.285 414.44L252.061 294.391L252.058 294.389L146.285 414.44ZM135.38 380.14L-19.0275 338.207L-19.0333 338.229L-19.0392 338.25L135.38 380.14ZM146.233 314.522L304.999 334.352L305.001 334.341L305.002 334.33L146.233 314.522ZM149.382 288L163.059 128.586L8.74902 115.347L-9.50323 269.144L149.382 288ZM150.106 288.062L262.569 401.87L509.08 158.272L163.783 128.648L150.106 288.062ZM150.096 288.073L-7.09973 317.899C-1.92147 345.19 3.30621 372.797 8.60821 400.395L165.735 370.208L322.861 340.021C317.646 312.876 312.504 285.719 307.291 258.246L150.096 288.073ZM165.735 370.208L8.56747 400.182C7.56102 394.905 5.54581 382.897 6.0936 367.335C6.68468 350.544 10.0861 333.503 16.5179 317.146L165.42 375.697L314.322 434.248C330.363 393.454 326.284 357.967 322.902 340.234L165.735 370.208ZM165.42 375.697L16.5814 316.985C11.7424 329.252 6.09596 343.572 0.689681 358.381L150.988 413.249L301.286 468.117C305.074 457.74 309.252 447.101 314.258 434.409L165.42 375.697ZM150.988 413.249L0.751009 358.213C1.55554 356.017 6.51316 342.019 17.1834 326.104C27.9527 310.04 58.2658 271.733 115.806 259.483C171.365 247.656 213.169 268.742 226.917 276.548C241.582 284.874 251.299 293.721 252.061 294.391L146.285 414.44L40.5103 534.488C42.5467 536.283 53.3323 545.972 68.921 554.823C83.5928 563.153 126.177 584.446 182.435 572.47C240.675 560.071 271.607 521.259 282.977 504.299C294.249 487.487 299.79 472.2 301.224 468.285L150.988 413.249ZM146.285 414.44L252.058 294.389C262.516 303.603 278.244 321.244 287.348 348.762C296.789 377.301 294.823 403.508 289.799 422.03L135.38 380.14L-19.0392 338.25C-27.842 370.7 -29.6501 409.393 -16.4596 449.266C-3.60629 488.12 19.4641 515.945 40.513 534.491L146.285 414.44ZM135.38 380.14L289.787 422.072C299.336 386.911 302.945 350.8 304.999 334.352L146.233 314.522L-12.5335 294.692C-15.9792 322.28 -16.9045 330.39 -19.0275 338.207L135.38 380.14ZM146.233 314.522L305.002 334.33C306.174 324.934 307.373 314.388 308.267 306.856L149.382 288L-9.50323 269.144C-10.7086 279.301 -11.5043 286.443 -12.5363 294.715L146.233 314.522ZM149.382 288L135.705 447.414L136.429 447.477L150.106 288.062L163.783 128.648L163.059 128.586L149.382 288ZM150.106 288.062L37.6435 174.255L37.633 174.265L150.096 288.073L262.558 401.88L262.569 401.87L150.106 288.062Z" fill="#D9D9D9" mask="url(#path-10-inside-5_1733_460)"/>
<mask id="path-12-inside-6_1733_460" fill="white">
<path d="M431.827 112.259C431.827 112.259 342.928 97.7025 298.506 90.3206C294.476 89.6518 290.916 89.7537 287.156 90.9695C259.456 100.025 231.658 108.9 203.894 117.82C201.594 118.555 199.263 119.2 196 118.692C198.793 116.646 201.577 114.58 204.394 112.56C222.836 99.2837 242.216 87.2258 262.151 75.7439C280.742 65.0388 299.87 63.8688 321.973 71.4198C358.934 84.0575 453.416 115.872 453.416 115.872L431.827 112.259Z"/>
</mask>
<path d="M431.827 112.259L458.24 -45.5462L457.961 -45.5929L457.681 -45.6386L431.827 112.259ZM298.506 90.3206L324.734 -67.515L324.718 -67.5177L324.702 -67.5204L298.506 90.3206ZM287.156 90.9695L237.925 -61.2681L237.683 -61.1898L237.441 -61.1108L287.156 90.9695ZM203.894 117.82L252.606 270.225L252.721 270.188L252.835 270.151L203.894 117.82ZM196 118.692L101.451 -10.3836L-209.506 217.396L171.35 276.781L196 118.692ZM204.394 112.56L297.645 242.576L297.76 242.494L297.875 242.411L204.394 112.56ZM262.151 75.7439L182.31 -62.9119L182.301 -62.9068L182.292 -62.9016L262.151 75.7439ZM321.973 71.4198L373.737 -79.9752L373.718 -79.982L373.698 -79.9887L321.973 71.4198ZM453.416 115.872L427.004 273.677L504.476 -35.762L453.416 115.872ZM431.827 112.259C457.681 -45.6386 457.681 -45.6386 457.681 -45.6387C457.68 -45.6388 457.679 -45.639 457.678 -45.6392C457.675 -45.6396 457.671 -45.6403 457.666 -45.6411C457.655 -45.6429 457.639 -45.6455 457.618 -45.6489C457.576 -45.6559 457.512 -45.6663 457.428 -45.6801C457.259 -45.7077 457.008 -45.7488 456.678 -45.8029C456.018 -45.9109 455.044 -46.0705 453.788 -46.2764C451.275 -46.688 447.634 -47.2846 443.126 -48.0236C434.108 -49.5018 421.624 -51.5494 407.754 -53.8272C379.972 -58.3897 346.778 -63.8518 324.734 -67.515L298.506 90.3206L272.278 248.156C294.656 251.875 328.123 257.382 355.896 261.943C369.804 264.227 382.32 266.28 391.36 267.762C395.88 268.503 399.531 269.101 402.054 269.514C403.315 269.721 404.294 269.881 404.958 269.99C405.29 270.044 405.543 270.086 405.714 270.114C405.799 270.128 405.864 270.138 405.907 270.145C405.929 270.149 405.945 270.152 405.956 270.153C405.962 270.154 405.966 270.155 405.969 270.155C405.97 270.156 405.971 270.156 405.972 270.156C405.973 270.156 405.973 270.156 431.827 112.259ZM298.506 90.3206L324.702 -67.5204C300.857 -71.4778 270.752 -71.8838 237.925 -61.2681L287.156 90.9695L336.387 243.207C324.974 246.898 312.96 249.122 300.778 249.736C288.932 250.332 279.135 249.294 272.31 248.162L298.506 90.3206ZM287.156 90.9695L237.441 -61.1108C210.251 -52.2222 183.091 -43.5509 154.953 -34.5107L203.894 117.82L252.835 270.151C280.226 261.351 308.661 252.272 336.871 243.05L287.156 90.9695ZM203.894 117.82L155.183 -34.5843C155.362 -34.6415 164.541 -37.7233 176.838 -39.5468C190.588 -41.5857 205.44 -41.7698 220.65 -39.3981L196 118.692L171.35 276.781C212.062 283.129 243.361 273.18 252.606 270.225L203.894 117.82ZM196 118.692L290.549 247.767C294.388 244.955 295.692 243.977 297.645 242.576L204.394 112.56L111.143 -17.4562C107.462 -14.8162 103.199 -11.664 101.451 -10.3836L196 118.692ZM204.394 112.56L297.875 242.411C310.576 233.268 325.054 224.156 342.009 214.389L262.151 75.7439L182.292 -62.9016C159.379 -49.7041 135.096 -34.7005 110.913 -17.2912L204.394 112.56ZM262.151 75.7439L341.991 214.4C332.038 220.131 318.152 225.215 301.852 226.35C286.277 227.434 275.02 224.459 270.248 222.828L321.973 71.4198L373.698 -79.9887C314.149 -100.332 246.215 -99.7097 182.31 -62.9119L262.151 75.7439ZM321.973 71.4198L270.209 222.815C289.034 229.252 322.192 240.465 350.38 249.98C364.531 254.757 377.521 259.138 386.973 262.323C391.7 263.916 395.543 265.211 398.206 266.108C399.537 266.557 400.573 266.906 401.278 267.143C401.63 267.262 401.899 267.352 402.08 267.413C402.171 267.444 402.24 267.467 402.286 267.483C402.309 267.49 402.327 267.496 402.339 267.5C402.344 267.502 402.349 267.504 402.352 267.505C402.354 267.505 402.355 267.506 402.356 267.506C402.356 267.506 402.357 267.506 453.416 115.872C504.476 -35.762 504.476 -35.7621 504.475 -35.7623C504.474 -35.7625 504.473 -35.7628 504.472 -35.7633C504.469 -35.7642 504.465 -35.7656 504.46 -35.7674C504.449 -35.7712 504.432 -35.7768 504.409 -35.7844C504.365 -35.7995 504.297 -35.8221 504.208 -35.8522C504.03 -35.9122 503.764 -36.0018 503.415 -36.1193C502.717 -36.3544 501.687 -36.7011 500.363 -37.1473C497.714 -38.0395 493.887 -39.3289 489.179 -40.916C479.76 -44.0904 466.82 -48.4537 452.73 -53.2101C424.437 -62.7614 391.873 -73.7743 373.737 -79.9752L321.973 71.4198ZM453.416 115.872L479.829 -41.9327L458.24 -45.5462L431.827 112.259L405.415 270.064L427.004 273.677L453.416 115.872Z" fill="#D9D9D9" mask="url(#path-12-inside-6_1733_460)"/>
<mask id="path-14-inside-7_1733_460" fill="white">
<path d="M116.282 197.737C116.39 196.986 116.324 196.142 116.632 195.483C129.369 168.823 143.133 142.781 163.415 120.863C168.907 114.926 175.083 109.783 182.962 107.186C183.972 106.852 185.066 106.802 186.585 106.535C180.909 120.32 173.798 132.435 164.032 143.24C148.324 160.64 133.359 178.709 118.101 196.518C117.659 197.036 117.417 197.721 117.075 198.33L116.273 197.729L116.282 197.737Z"/>
</mask>
<path d="M116.282 197.737L3.1243 310.854L228.984 536.795L274.639 220.603L116.282 197.737ZM116.632 195.483L-27.7379 126.51L-28.0074 127.074L-28.2725 127.641L116.632 195.483ZM163.415 120.863L280.848 229.534L280.856 229.526L280.863 229.518L163.415 120.863ZM182.962 107.186L233.043 259.147L233.121 259.121L233.198 259.095L182.962 107.186ZM186.585 106.535L334.535 167.45L445.233 -101.414L158.868 -51.0459L186.585 106.535ZM164.032 143.24L45.3326 35.9534L45.3 35.9894L45.2675 36.0254L164.032 143.24ZM118.101 196.518L-3.40632 92.4226L-3.47151 92.4987L-3.53661 92.5749L118.101 196.518ZM117.075 198.33L21.0524 326.313L167.165 435.937L256.59 276.66L117.075 198.33ZM116.273 197.729L212.296 69.7457L3.11595 310.846L116.273 197.729ZM116.282 197.737L274.639 220.603C275.53 214.436 275.866 209.501 275.938 208.473C276.143 205.594 275.896 209.191 275.715 211.173C275.443 214.139 274.761 220.796 272.993 229.149C271.19 237.661 267.9 249.734 261.537 263.325L116.632 195.483L-28.2725 127.641C-34.7899 141.561 -38.1877 153.988 -40.0675 162.866C-41.9138 171.587 -42.6436 178.625 -42.9508 181.978C-43.1678 184.347 -43.4371 188.337 -43.2607 185.848C-43.2155 185.211 -42.9121 180.663 -42.0759 174.872L116.282 197.737ZM116.632 195.483L261.003 264.456C272.806 239.749 278.053 232.554 280.848 229.534L163.415 120.863L45.981 12.1922C8.21187 53.0069 -14.0676 97.8962 -27.7379 126.51L116.632 195.483ZM163.415 120.863L280.863 229.518C278.005 232.607 262.07 249.58 233.043 259.147L182.962 107.186L132.881 -44.7737C88.0964 -30.0141 59.8083 -2.75418 45.966 12.2085L163.415 120.863ZM182.962 107.186L233.198 259.095C226.402 261.343 220.573 262.744 216.345 263.624C212.296 264.467 209.161 264.94 208.12 265.095C207.554 265.179 207.14 265.237 207.234 265.223C207.247 265.222 207.261 265.22 207.311 265.213C207.352 265.207 207.421 265.197 207.498 265.186C207.652 265.165 207.894 265.131 208.181 265.09C209.336 264.924 211.557 264.599 214.301 264.116L186.585 106.535L158.868 -51.0459C160.853 -51.395 162.367 -51.6141 162.858 -51.6844C163 -51.7046 163.238 -51.738 162.84 -51.6822C162.623 -51.6518 161.905 -51.5514 161.045 -51.4235C158.368 -51.0253 146.739 -49.3564 132.726 -44.7226L182.962 107.186ZM186.585 106.535L38.634 45.6205C38.4752 46.006 38.8993 44.9057 40.1047 42.9217C41.3625 40.8518 43.1126 38.4095 45.3326 35.9534L164.032 143.24L282.732 250.526C307.159 223.501 323.298 194.744 334.535 167.45L186.585 106.535ZM164.032 143.24L45.2675 36.0254C27.7223 55.4608 9.52246 77.3313 -3.40632 92.4226L118.101 196.518L239.609 300.614C257.195 280.086 268.926 265.82 282.797 250.454L164.032 143.24ZM118.101 196.518L-3.53661 92.5749C-16.2947 107.505 -23.3011 121.387 -25.0884 124.904C-25.7666 126.239 -27.1686 129.101 -26.2489 127.232C-25.9752 126.675 -24.5257 123.715 -22.4405 120.001L117.075 198.33L256.59 276.66C258.846 272.641 260.454 269.366 260.883 268.494C260.95 268.359 261.46 267.316 261.134 267.982C261.051 268.152 260.684 268.901 260.189 269.875C259.244 271.735 257.122 275.831 254.031 280.849C250.881 285.963 246.21 292.889 239.739 300.462L118.101 196.518ZM117.075 198.33L213.097 70.3468L212.296 69.7457L116.273 197.729L20.2511 325.712L21.0524 326.313L117.075 198.33ZM116.273 197.729L3.11595 310.846L3.1243 310.854L116.282 197.737L229.439 84.6206L229.431 84.6122L116.273 197.729Z" fill="#D9D9D9" mask="url(#path-14-inside-7_1733_460)"/>
<mask id="path-16-inside-8_1733_460" fill="white">
<path d="M119.456 288C121.243 296.647 121.69 304.082 121.331 311.686C120.69 325.116 113.949 334.182 105.821 342.342C91.7479 356.486 76.8595 369.428 61.7866 382.065C60.7377 382.949 59.815 384.773 57.4453 383.64C77.9958 351.953 98.4297 320.435 119.466 288H119.456Z"/>
</mask>
<path d="M119.456 288V128H-76.99L-37.233 320.381L119.456 288ZM121.331 311.686L281.149 319.314L281.15 319.276L281.152 319.238L121.331 311.686ZM105.821 342.342L-7.53108 229.42L-7.56613 229.455L-7.60115 229.49L105.821 342.342ZM61.7866 382.065L-41.0054 259.452L-41.1645 259.585L-41.3232 259.719L61.7866 382.065ZM57.4453 383.64L-76.7951 296.579L-175.904 449.398L-11.5859 527.982L57.4453 383.64ZM119.466 288L253.705 375.062L413.939 128L119.466 128V288ZM119.456 288L-37.233 320.381C-37.6713 318.26 -38.1122 315.438 -38.3586 312.135C-38.605 308.831 -38.5818 306.051 -38.4912 304.134L121.331 311.686L281.152 319.238C282.105 299.081 280.809 278.189 276.145 255.619L119.456 288ZM121.331 311.686L-38.4876 304.058C-37.5349 284.099 -31.58 265.743 -23.2092 250.799C-15.8138 237.596 -8.14318 230.034 -7.53108 229.42L105.821 342.342L219.172 455.264C238.121 436.244 277.709 391.381 281.149 319.314L121.331 311.686ZM105.821 342.342L-7.60115 229.49C-16.5578 238.492 -27.0972 247.792 -41.0054 259.452L61.7866 382.065L164.579 504.677C180.816 491.064 200.054 474.479 219.242 455.194L105.821 342.342ZM61.7866 382.065L-41.3232 259.719C-49.4886 266.601 -59.2147 276.939 -53.4978 271.082C-52.3627 269.919 -42.2783 259.269 -26.6983 249.206C-8.99853 237.774 16.9368 226.181 49.6376 224.269C81.6856 222.395 108.151 230.533 126.476 239.298L57.4453 383.64L-11.5859 527.982C7.9249 537.313 35.3939 545.648 68.3142 543.723C101.887 541.761 128.563 529.869 146.921 518.011C163.159 507.524 173.819 496.322 175.496 494.604C181.755 488.192 172.537 497.97 164.896 504.41L61.7866 382.065ZM57.4453 383.64L191.686 470.7C212.3 438.914 232.622 407.57 253.705 375.062L119.466 288L-14.7737 200.938C-35.7626 233.301 -56.3086 264.991 -76.7951 296.579L57.4453 383.64ZM119.466 288V128H119.456V288V448H119.466V288Z" fill="#D9D9D9" mask="url(#path-16-inside-8_1733_460)"/>
<mask id="path-18-inside-9_1733_460" fill="white">
<path d="M170.667 254.856C164.666 256.635 158.673 258.455 152.655 260.183C124.911 268.149 97.142 276.031 69.4232 284.113C66.8775 284.856 65.759 284.539 64.5989 282.193C61.9029 276.749 58.9399 271.439 56.0938 266.112C56.9952 265.009 57.738 266.011 58.2889 266.279C71.2844 272.624 84.1882 267.381 97.0085 265.728C118.584 262.947 140.068 259.432 161.602 256.293C164.785 255.828 167.307 254.856 170.667 254.856Z"/>
</mask>
<path d="M170.667 254.856L216.129 408.262L170.667 94.8564V254.856ZM152.655 260.183L196.808 413.971L196.815 413.969L196.822 413.967L152.655 260.183ZM69.4232 284.113L24.6349 130.51L24.6119 130.517L24.5889 130.523L69.4232 284.113ZM64.5989 282.193L208.022 211.272L208.001 211.23L207.98 211.187L64.5989 282.193ZM56.0938 266.112L-67.7573 164.815L-135.306 247.405L-85.0266 341.511L56.0938 266.112ZM58.2889 266.279L128.493 122.503L128.303 122.411L128.113 122.318L58.2889 266.279ZM97.0085 265.728L76.5589 107.04L76.5455 107.041L97.0085 265.728ZM161.602 256.293L184.685 414.619L184.705 414.616L184.726 414.613L161.602 256.293ZM170.667 254.856L125.205 101.451C117.779 103.652 113.681 104.909 108.488 106.4L152.655 260.183L196.822 413.967C203.664 412.001 211.552 409.618 216.129 408.262L170.667 254.856ZM152.655 260.183L108.501 106.396C81.3879 114.181 52.7655 122.307 24.6349 130.51L69.4232 284.113L114.211 437.717C141.519 429.754 168.434 422.117 196.808 413.971L152.655 260.183ZM69.4232 284.113L24.5889 130.523C26.9312 129.84 70.9161 115.011 122.873 134.575C180.497 156.272 203.461 202.047 208.022 211.272L64.5989 282.193L-78.8246 353.113C-73.1027 364.685 -48.9996 411.791 10.1094 434.048C63.5525 454.172 109.369 439.13 114.257 437.703L69.4232 284.113ZM64.5989 282.193L207.98 211.187C203.828 202.803 198.217 192.59 197.214 190.712L56.0938 266.112L-85.0266 341.511C-80.3375 350.287 -80.0225 350.695 -78.7826 353.198L64.5989 282.193ZM56.0938 266.112L179.945 367.408C166.3 384.091 140.412 408.464 99.5155 419.811C57.0817 431.584 20.5798 423.262 -1.82771 414.346C-21.1084 406.675 -34.5831 396.591 -34.7004 396.508C-42.4095 391.042 -27.0933 402.693 -11.5352 410.239L58.2889 266.279L128.113 122.318C143.396 129.731 158.412 141.156 150.381 135.462C149.941 135.15 136.121 124.834 116.473 117.017C93.6985 107.955 56.8075 99.5723 13.9636 111.459C-27.343 122.92 -53.6616 147.581 -67.7573 164.815L56.0938 266.112ZM58.2889 266.279L-11.9157 410.054C31.978 431.487 72.4374 430.6 95.5619 428.004C106.013 426.831 115.141 425.001 117.9 424.465C122.671 423.538 120.385 424.038 117.471 424.414L97.0085 265.728L76.5455 107.041C67.222 108.244 58.5154 110.019 56.8548 110.342C53.1826 111.055 55.8688 110.45 59.8669 110.001C70.0855 108.854 97.5953 107.416 128.493 122.503L58.2889 266.279ZM97.0085 265.728L117.458 424.415C140.526 421.443 167.092 417.184 184.685 414.619L161.602 256.293L138.52 97.9663C113.044 101.68 96.6423 104.452 76.5589 107.04L97.0085 265.728ZM161.602 256.293L184.726 414.613C190.33 413.794 194.819 412.872 197.129 412.381C198.186 412.157 199.224 411.927 199.325 411.905C199.674 411.828 199.241 411.925 198.617 412.055C195.629 412.675 184.866 414.856 170.667 414.856V254.856V94.8564C153.108 94.8564 139.405 97.5231 133.52 98.7457C132.172 99.0259 131.017 99.2804 130.641 99.3629C130.018 99.4998 130.328 99.4311 130.649 99.3629C131.485 99.1853 134.466 98.5585 138.478 97.9724L161.602 256.293Z" fill="#D9D9D9" mask="url(#path-18-inside-9_1733_460)"/>
<mask id="path-20-inside-10_1733_460" fill="white">
<path d="M103.472 212.291C87.9137 225.333 73.2655 239.669 53.8348 246.933C51.0554 247.977 50.1206 249.488 50.3209 252.41C50.5963 256.359 50.3877 260.351 50.3877 265.327C46.0224 258.597 42.6588 252.519 40.2216 245.956C37.4839 238.6 41.5988 232.037 50.3626 231.829C67.4647 231.428 81.7957 223.696 96.3103 216.156C98.7141 214.904 101.085 213.576 103.472 212.282V212.291Z"/>
</mask>
<path d="M103.472 212.291L206.259 334.907L263.472 286.946V212.291H103.472ZM53.8348 246.933L-2.19333 97.0634L-2.30271 97.1043L-2.41204 97.1453L53.8348 246.933ZM50.3209 252.41L-109.305 263.352L-109.298 263.447L-109.291 263.542L50.3209 252.41ZM50.3877 265.327L-83.8461 352.398L210.388 806.007V265.327H50.3877ZM40.2216 245.956L190.213 190.254L190.193 190.201L190.173 190.148L40.2216 245.956ZM50.3626 231.829L46.6141 71.8724L46.5835 71.8732L46.5528 71.8739L50.3626 231.829ZM96.3103 216.156L170.065 358.143L170.153 358.097L170.241 358.052L96.3103 216.156ZM103.472 212.282H263.472V-56.464L27.2134 71.6242L103.472 212.282ZM103.472 212.291L0.684241 89.6743C-2.00079 91.9251 -4.50691 94.0702 -6.54003 95.8152C-8.78396 97.7412 -10.2371 98.9945 -11.8587 100.376C-14.9728 103.028 -16.2909 104.075 -16.8606 104.509C-17.9377 105.329 -12.4746 100.907 -2.19333 97.0634L53.8348 246.933L109.863 396.802C162.284 377.205 204.533 336.354 206.259 334.907L103.472 212.291ZM53.8348 246.933L-2.41204 97.1453C-20.2742 103.853 -57.3714 121.195 -84.013 163.047C-110.483 204.63 -110.548 245.219 -109.305 263.352L50.3209 252.41L209.946 241.468C210.989 256.679 211.292 295.051 185.934 334.887C160.404 374.991 125.164 391.057 110.082 396.72L53.8348 246.933ZM50.3209 252.41L-109.291 263.542C-109.449 261.278 -109.503 259.505 -109.524 258.439C-109.534 257.904 -109.536 257.51 -109.536 257.301C-109.537 257.096 -109.536 257.021 -109.537 257.141C-109.538 257.27 -109.54 257.494 -109.546 257.932C-109.549 258.149 -109.552 258.376 -109.556 258.666C-109.56 258.941 -109.565 259.271 -109.57 259.615C-109.588 260.978 -109.612 263.004 -109.612 265.327H50.3877H210.388C210.388 265.162 210.389 264.822 210.402 263.914C210.409 263.352 210.439 261.42 210.452 259.826C210.481 256.392 210.507 249.506 209.933 241.278L50.3209 252.41ZM50.3877 265.327L184.621 178.256C183.659 176.773 187.017 181.649 190.213 190.254L40.2216 245.956L-109.769 301.658C-101.699 323.389 -91.6142 340.422 -83.8461 352.398L50.3877 265.327ZM40.2216 245.956L190.173 190.148C203.487 225.923 205.854 278.921 172.732 326.992C139.401 375.368 89.4493 390.943 54.1724 391.783L50.3626 231.829L46.5528 71.8739C2.51212 72.9228 -53.8789 91.8838 -90.7743 145.432C-127.46 198.675 -125.782 258.633 -109.73 301.763L40.2216 245.956ZM50.3626 231.829L54.1111 391.785C114.936 390.359 162.916 361.857 170.065 358.143L96.3103 216.156L22.5552 74.1699C18.0617 76.504 16.5128 77.3141 14.9483 78.0815C13.7413 78.6736 14.4713 78.2647 16.3969 77.5171C20.6259 75.8752 31.4988 72.2267 46.6141 71.8724L50.3626 231.829ZM96.3103 216.156L170.241 358.052C172.8 356.719 175.042 355.501 176.544 354.682C178.631 353.543 178.669 353.515 179.73 352.94L103.472 212.282L27.2134 71.6242C26.3158 72.1108 25.4843 72.5656 24.8456 72.9153C24.1208 73.3121 23.7187 73.5328 23.2507 73.7882C22.3696 74.269 22.2248 74.3418 22.3798 74.2611L96.3103 216.156ZM103.472 212.282H-56.5284V212.291H103.472H263.472V212.282H103.472Z" fill="#D9D9D9" mask="url(#path-20-inside-10_1733_460)"/>
<mask id="path-22-inside-11_1733_460" fill="white">
<path d="M207.898 233.732H129.24L129.148 233.089C141.593 231.077 154.004 228.873 166.483 227.111C174.988 225.909 183.668 225.783 192.115 224.297C200.369 222.844 204.643 226.835 207.898 233.732V233.732Z"/>
</mask>
<path d="M129.24 233.732L-29.1527 256.352L-9.5337 393.732H129.24V233.732ZM129.148 233.089L103.609 75.1407L-51.4507 100.213L-29.2446 255.709L129.148 233.089ZM166.483 227.111L188.851 385.54L188.865 385.538L188.878 385.536L166.483 227.111ZM192.115 224.297L219.841 381.876L219.848 381.875L192.115 224.297ZM207.898 233.732V73.7321H129.24V233.732V393.732H207.898V233.732ZM129.24 233.732L287.633 211.112L287.541 210.469L129.148 233.089L-29.2446 255.709L-29.1527 256.352L129.24 233.732ZM129.148 233.089L154.688 391.038C170.468 388.486 178.412 387.013 188.851 385.54L166.483 227.111L144.114 68.6822C129.597 70.7319 112.719 73.6677 103.609 75.1407L129.148 233.089ZM166.483 227.111L188.878 385.536C187.746 385.696 187.281 385.726 188.062 385.652C189.193 385.544 189.94 385.487 192.975 385.227C197.356 384.851 207.932 383.972 219.841 381.876L192.115 224.297L164.388 66.7178C167.851 66.1085 169.863 66.0347 165.666 66.3942C164.412 66.5016 160.866 66.7939 157.714 67.0942C154.211 67.4278 149.472 67.9248 144.087 68.6861L166.483 227.111ZM192.115 224.297L219.848 381.875C192.186 386.744 151.452 384.665 112.877 358.843C80.1819 336.957 66.5939 309.205 63.205 302.025L207.898 233.732L352.591 165.439C345.947 151.362 328.595 118.167 290.885 92.9237C247.296 63.7453 200.298 60.3978 164.381 66.719L192.115 224.297Z" fill="#D9D9D9" mask="url(#path-22-inside-11_1733_460)"/>
<mask id="path-24-inside-12_1733_460" fill="white">
<path d="M139.25 222.468C160.876 212.749 181.175 198.463 208.109 202.738C184.38 209.535 161.811 216.006 139.25 222.468V222.468Z"/>
</mask>
<path d="M208.109 202.738L252.165 356.553L233.19 44.7162L208.109 202.738ZM139.25 222.468L204.837 368.408C209.857 366.152 214.329 363.993 217.738 362.322C219.451 361.483 221.092 360.669 222.422 360.009C223.851 359.3 224.919 358.77 225.972 358.252C230.495 356.027 230.413 356.2 228.723 356.845C226.58 357.663 220.794 359.695 212.396 360.935C203.566 362.239 193.503 362.423 183.028 360.76L208.109 202.738L233.19 44.7162C183.45 36.8215 142.362 47.2948 114.655 57.8661C101.82 62.7627 90.9245 68.0626 84.7184 71.1157C76.5468 75.1356 75.6933 75.6162 73.6633 76.5285L139.25 222.468ZM208.109 202.738L164.053 48.9231C140.412 55.6944 117.61 62.232 95.1898 68.6543L139.25 222.468L183.31 376.282C206.011 369.779 228.348 363.375 252.165 356.553L208.109 202.738Z" fill="#D9D9D9" mask="url(#path-24-inside-12_1733_460)"/>
<mask id="path-26-inside-13_1733_460" fill="white">
<path d="M378.851 300.136C378.776 300.212 378.701 300.287 378.625 300.362C378.592 300.245 378.517 300.128 378.534 300.028C378.55 299.936 378.676 299.861 378.759 299.777C378.792 299.894 378.817 300.019 378.851 300.136Z"/>
</mask>
<path d="M378.851 300.136L492.008 413.253L558.546 346.692L532.699 256.196L378.851 300.136ZM378.625 300.362L224.777 344.303L299.479 605.852L491.783 413.479L378.625 300.362ZM378.534 300.028L221.113 271.416L220.902 272.573L220.709 273.733L378.534 300.028ZM378.759 299.777L532.607 255.837L457.906 -5.71274L265.602 186.661L378.759 299.777ZM378.851 300.136L265.693 187.02C265.65 187.063 265.608 187.105 265.571 187.142C265.533 187.18 265.5 187.213 265.468 187.245L378.625 300.362L491.783 413.479C491.826 413.435 491.868 413.393 491.905 413.356C491.944 413.318 491.976 413.285 492.008 413.253L378.851 300.136ZM378.625 300.362L532.473 256.421C530.231 248.57 527.85 242.614 527.341 241.33C525.774 237.374 527.826 242.526 528.606 244.633C529.89 248.101 533.219 257.329 535.604 269.613C538.048 282.203 540.373 302.228 536.358 326.322L378.534 300.028L220.709 273.733C216.686 297.878 219.014 317.955 221.469 330.598C223.864 342.937 227.211 352.22 228.516 355.745C229.316 357.907 231.393 363.117 229.848 359.218C229.362 357.992 227.003 352.095 224.777 344.303L378.625 300.362ZM378.534 300.028L535.955 328.64C530.35 359.474 517.054 381.508 508.178 393.772C499.401 405.898 490.879 414.002 487.505 417.135C484.306 420.107 480.757 423.076 482.446 421.637C482.506 421.586 486.91 417.902 491.916 412.894L378.759 299.777L265.602 186.661C270.566 181.694 274.923 178.051 274.936 178.04C276.578 176.642 272.981 179.651 269.737 182.664C266.32 185.837 257.758 193.983 248.951 206.151C240.044 218.458 226.725 240.536 221.113 271.416L378.534 300.028ZM378.759 299.777L224.911 343.718C224.606 342.65 224.349 341.708 224.141 340.925C223.933 340.144 223.763 339.478 223.635 338.971C223.508 338.468 223.409 338.065 223.352 337.829C223.322 337.708 223.299 337.611 223.285 337.556C223.273 337.506 223.263 337.464 223.267 337.48C223.268 337.482 223.271 337.498 223.276 337.516C223.28 337.535 223.288 337.565 223.296 337.601C223.313 337.672 223.34 337.783 223.374 337.919C223.439 338.186 223.545 338.619 223.679 339.152C223.815 339.689 223.993 340.385 224.208 341.196C224.424 342.008 224.69 342.98 225.003 344.077L378.851 300.136L532.699 256.196C533.004 257.263 533.261 258.206 533.469 258.989C533.676 259.77 533.847 260.436 533.975 260.942C534.102 261.445 534.201 261.849 534.258 262.085C534.288 262.206 534.311 262.303 534.324 262.358C534.336 262.408 534.347 262.449 534.343 262.434C534.342 262.432 534.338 262.416 534.334 262.398C534.329 262.378 534.322 262.348 534.313 262.313C534.296 262.242 534.269 262.131 534.236 261.994C534.171 261.728 534.065 261.294 533.93 260.761C533.795 260.225 533.617 259.529 533.401 258.718C533.185 257.906 532.92 256.934 532.607 255.837L378.759 299.777Z" fill="#D9D9D9" mask="url(#path-26-inside-13_1733_460)"/>
<mask id="path-28-inside-14_1733_460" fill="white">
<path d="M218.068 235.443L217.5 234.859L217.851 234.759C217.884 235.009 217.926 235.26 217.959 235.51L218.068 235.435V235.443Z"/>
</mask>
<path d="M218.068 235.443L103.284 346.909L378.068 629.873V235.443H218.068ZM217.5 234.859L173.533 81.0185L-83.567 154.497L102.716 346.325L217.5 234.859ZM217.851 234.759L376.448 213.62L351.977 30.0198L173.883 80.9183L217.851 234.759ZM217.959 235.51L59.3616 256.649L93.9318 516.019L309.05 367.049L217.959 235.51ZM218.068 235.435H378.068V-69.9849L126.977 103.896L218.068 235.435ZM218.068 235.443L332.851 123.978L332.284 123.393L217.5 234.859L102.716 346.325L103.284 346.909L218.068 235.443ZM217.5 234.859L261.467 388.699L261.818 388.599L217.851 234.759L173.883 80.9183L173.533 81.0185L217.5 234.859ZM217.851 234.759L59.2531 255.897C59.3742 256.806 59.481 257.552 59.5502 258.026C59.5854 258.268 59.6153 258.469 59.6353 258.603C59.6539 258.728 59.6707 258.84 59.6734 258.858C59.6801 258.903 59.6727 258.854 59.6634 258.791C59.6527 258.72 59.6321 258.581 59.606 258.401C59.5551 258.052 59.466 257.432 59.3616 256.649L217.959 235.51L376.557 214.372C376.435 213.463 376.329 212.718 376.259 212.243C376.224 212.001 376.194 211.8 376.174 211.666C376.156 211.541 376.139 211.429 376.136 211.411C376.13 211.366 376.137 211.415 376.146 211.478C376.157 211.55 376.178 211.688 376.204 211.868C376.255 212.217 376.344 212.837 376.448 213.62L217.851 234.759ZM217.959 235.51L309.05 367.049L309.159 366.974L218.068 235.435L126.977 103.896L126.868 103.972L217.959 235.51ZM218.068 235.435H58.0676V235.443H218.068H378.068V235.435H218.068Z" fill="#D9D9D9" mask="url(#path-28-inside-14_1733_460)"/>
<mask id="path-30-inside-15_1733_460" fill="white">
<path d="M452.568 282.986L453.119 283.679C452.785 283.613 452.452 283.537 452.109 283.471C452.251 283.304 452.401 283.137 452.56 282.986H452.568Z"/>
</mask>
<path d="M452.568 282.986L577.819 183.425L529.776 122.986H452.568V282.986ZM453.119 283.679L421.73 440.57L850.396 526.334L578.37 184.118L453.119 283.679ZM452.109 283.471L330.181 179.869L153.208 388.147L421.457 440.507L452.109 283.471ZM452.56 282.986V122.986H388.788L342.5 166.854L452.56 282.986ZM452.568 282.986L327.318 382.547L327.869 383.24L453.119 283.679L578.37 184.118L577.819 183.425L452.568 282.986ZM453.119 283.679L484.509 126.789C485.037 126.894 485.441 126.978 485.62 127.016C485.713 127.035 485.778 127.049 485.784 127.05C485.788 127.051 485.787 127.051 485.769 127.047C485.758 127.045 485.721 127.037 485.689 127.03C485.569 127.005 485.189 126.924 484.729 126.829C484.251 126.731 483.572 126.592 482.762 126.434L452.109 283.471L421.457 440.507C421.133 440.444 420.847 440.387 420.605 440.338C420.364 440.289 420.158 440.247 420 440.215C419.843 440.182 419.719 440.156 419.646 440.141C419.576 440.126 419.531 440.117 419.546 440.12C419.556 440.122 419.561 440.123 419.592 440.13C419.616 440.135 419.657 440.143 419.702 440.153C419.792 440.172 419.94 440.203 420.117 440.24C420.296 440.277 420.526 440.325 420.793 440.38C421.06 440.435 421.375 440.499 421.73 440.57L453.119 283.679ZM452.109 283.471L574.038 387.073C572.479 388.908 568.422 393.621 562.62 399.119L452.56 282.986L342.5 166.854C336.381 172.653 332.024 177.7 330.181 179.869L452.109 283.471ZM452.56 282.986V442.986H452.568V282.986V122.986H452.56V282.986Z" fill="#D9D9D9" mask="url(#path-30-inside-15_1733_460)"/>
<mask id="path-32-inside-16_1733_460" fill="white">
<path d="M122.166 212.165L121.398 212.699C121.474 212.357 121.549 212.015 121.624 211.681C121.816 211.831 121.999 211.99 122.166 212.165Z"/>
</mask>
<path d="M122.166 212.165L213.559 343.494L366.671 236.943L238.048 101.841L122.166 212.165ZM121.398 212.699L-34.8832 178.406L-122.414 577.299L212.791 344.029L121.398 212.699ZM121.624 211.681L220.255 85.6971L21.0416 -70.2654L-34.4765 176.571L121.624 211.681ZM122.166 212.165L30.7737 80.8356L30.0059 81.37L121.398 212.699L212.791 344.029L213.559 343.494L122.166 212.165ZM121.398 212.699L277.68 246.993C277.7 246.903 277.713 246.842 277.726 246.786C277.737 246.732 277.744 246.7 277.749 246.681C277.758 246.638 277.747 246.687 277.724 246.791L121.624 211.681L-34.4765 176.571C-34.6592 177.383 -34.8247 178.139 -34.8832 178.406L121.398 212.699ZM121.624 211.681L22.9924 337.664C19.3339 334.8 13.1572 329.708 6.28438 322.489L122.166 212.165L238.048 101.841C230.842 94.2712 224.298 88.8619 220.255 85.6971L121.624 211.681Z" fill="#D9D9D9" mask="url(#path-32-inside-16_1733_460)"/>
<mask id="path-34-inside-17_1733_460" fill="white">
<path d="M255.705 412.521C255.454 412.696 255.196 412.871 254.945 413.055C254.97 412.713 254.987 412.362 255.012 412.02C255.246 412.187 255.471 412.362 255.705 412.529V412.521Z"/>
</mask>
<path d="M255.705 412.521H415.705V105.152L163.929 281.459L255.705 412.521ZM254.945 413.055L95.3716 401.383L70.084 747.105L349.586 542.063L254.945 413.055ZM255.012 412.02L348.032 281.838L116.222 116.2L95.4384 400.348L255.012 412.02ZM255.705 412.529L162.685 542.71L415.705 723.504V412.529H255.705ZM255.705 412.521L163.929 281.459C164.179 281.284 164.366 281.154 164.32 281.186C164.308 281.194 164.311 281.193 164.28 281.213C164.259 281.228 164.225 281.252 164.186 281.279C164.109 281.332 163.985 281.419 163.836 281.522C163.308 281.891 161.963 282.83 160.305 284.046L254.945 413.055L349.586 542.063C348.178 543.096 347.088 543.856 346.814 544.047C346.689 544.134 346.548 544.231 346.711 544.118C346.793 544.062 347.106 543.845 347.481 543.582L255.705 412.521ZM254.945 413.055L414.519 424.727C414.575 423.965 414.616 423.333 414.642 422.922C414.655 422.712 414.666 422.534 414.674 422.409C414.681 422.292 414.688 422.185 414.69 422.152C414.693 422.098 414.692 422.118 414.69 422.149C414.687 422.187 414.682 422.279 414.674 422.403C414.659 422.641 414.629 423.101 414.586 423.691L255.012 412.02L95.4384 400.348C95.3826 401.11 95.3413 401.742 95.3153 402.153C95.302 402.363 95.291 402.541 95.2834 402.665C95.2762 402.783 95.2698 402.89 95.2678 402.922C95.2646 402.976 95.2658 402.956 95.2677 402.925C95.27 402.887 95.2756 402.796 95.2835 402.672C95.2986 402.434 95.3284 401.974 95.3716 401.383L254.945 413.055ZM255.012 412.02L161.992 542.201C161.188 541.627 160.554 541.162 160.192 540.894C160.007 540.758 159.863 540.651 159.787 540.594C159.72 540.545 159.667 540.505 159.709 540.537C159.724 540.548 159.835 540.63 159.959 540.723C160.092 540.822 160.294 540.971 160.537 541.151C161.014 541.503 161.764 542.052 162.685 542.71L255.705 412.529L348.725 282.347C349.529 282.922 350.163 283.387 350.525 283.654C350.71 283.791 350.854 283.898 350.93 283.954C350.997 284.004 351.05 284.043 351.008 284.012C350.992 284 350.882 283.918 350.758 283.826C350.624 283.727 350.423 283.577 350.18 283.398C349.703 283.045 348.953 282.496 348.032 281.838L255.012 412.02ZM255.705 412.529H415.705V412.521H255.705H95.7049V412.529H255.705Z" fill="#D9D9D9" mask="url(#path-34-inside-17_1733_460)"/>
<mask id="path-36-inside-18_1733_460" fill="white">
<path d="M236.248 214.378C245.563 220.081 253.567 224.807 261.388 229.816C270.961 235.953 280.235 242.508 289.007 249.797C296.001 255.608 298.53 263.081 299.064 271.689C300.6 296.137 296.26 319.967 292.137 343.896C288.122 367.225 274.042 385.202 261.806 404.222C259.953 407.102 257.741 409.758 255.704 412.521C255.329 412.547 255.094 412.379 255.011 412.012C261.296 395.597 264.894 378.739 264.86 361.029C264.827 343.387 258.584 327.422 252.499 311.416C242.942 286.259 231.29 262.028 219.013 238.099C218.594 237.286 218.384 236.361 218.084 235.489C220.114 235.032 221.143 236.822 222.493 237.698C235.923 246.415 249.277 255.24 263.524 263.406C254.711 247.567 245.905 231.737 236.248 214.378ZM218.084 235.489C218.043 235.498 218.002 235.508 217.961 235.519L218.069 235.443C218.075 235.458 218.079 235.474 218.084 235.489Z"/>
</mask>
<path d="M236.248 214.378L319.791 77.9207L-199.689 -240.12L96.4281 292.162L236.248 214.378ZM261.388 229.816L347.735 95.1162L347.713 95.1021L347.691 95.088L261.388 229.816ZM289.007 249.797L186.751 372.857L186.757 372.862L289.007 249.797ZM299.064 271.689L139.372 281.599L139.375 281.66L139.379 281.72L299.064 271.689ZM292.137 343.896L134.46 316.728L134.457 316.744L134.455 316.76L292.137 343.896ZM261.806 404.222L127.245 317.657L127.241 317.663L261.806 404.222ZM255.704 412.521L266.351 572.167L340.453 567.225L384.51 507.438L255.704 412.521ZM255.011 412.012L105.588 354.802L88.2338 400.129L98.9867 447.459L255.011 412.012ZM264.86 361.029L424.86 360.728L424.86 360.726L264.86 361.029ZM252.499 311.416L102.928 368.236L102.934 368.253L102.941 368.27L252.499 311.416ZM219.013 238.099L361.369 165.059L361.316 164.957L361.263 164.854L219.013 238.099ZM222.493 237.698L309.605 103.491L309.588 103.48L309.57 103.469L222.493 237.698ZM263.524 263.406L183.963 402.223L683.053 688.273L403.335 185.606L263.524 263.406ZM217.961 235.519L126.764 104.053L258.93 390.185L217.961 235.519ZM218.069 235.443L369.137 182.731L299.8 -15.9809L126.873 103.978L218.069 235.443ZM236.248 214.378L152.705 350.835C164.958 358.337 169.023 360.662 175.084 364.545L261.388 229.816L347.691 95.088C338.111 88.9511 326.167 81.8244 319.791 77.9207L236.248 214.378ZM261.388 229.816L175.04 364.517C180.642 368.107 184.29 370.812 186.751 372.857L289.007 249.797L391.262 126.737C376.179 114.204 361.28 103.799 347.735 95.1162L261.388 229.816ZM289.007 249.797L186.757 372.862C170.493 359.349 157.654 341.989 149.398 322.728C141.701 304.771 139.866 289.573 139.372 281.599L299.064 271.689L458.757 261.78C456.493 225.297 442.885 169.628 391.257 126.732L289.007 249.797ZM299.064 271.689L139.379 281.72C139.36 281.41 139.516 283.352 138.813 289.342C138.017 296.122 136.779 303.269 134.46 316.728L292.137 343.896L449.813 371.065C453.147 351.716 461.686 308.395 458.75 261.658L299.064 271.689ZM292.137 343.896L134.455 316.76C136.663 303.931 141.113 296.33 140.881 296.738C140.835 296.82 140.578 297.268 139.99 298.209C139.39 299.17 138.588 300.42 137.413 302.208C136.127 304.167 134.973 305.895 133.128 308.676C131.469 311.177 129.405 314.3 127.245 317.657L261.806 404.222L396.366 490.787C397.143 489.579 438.734 435.444 449.819 371.033L292.137 343.896ZM261.806 404.222L127.241 317.663C127.9 316.639 128.497 315.745 129.01 314.994C129.523 314.245 129.966 313.617 130.315 313.13C130.663 312.645 130.938 312.271 131.11 312.039C131.281 311.809 131.38 311.678 131.368 311.694C131.364 311.699 131.341 311.73 131.291 311.795C131.239 311.862 131.172 311.951 131.074 312.078C131.026 312.141 130.974 312.209 130.914 312.287C130.884 312.326 130.853 312.366 130.82 312.409C130.788 312.451 130.754 312.496 130.719 312.542C130.581 312.721 130.408 312.946 130.224 313.186C130.038 313.429 129.824 313.709 129.593 314.013C129.361 314.317 129.103 314.657 128.826 315.023C128.276 315.751 127.621 316.625 126.898 317.605L255.704 412.521L384.51 507.438C384.129 507.955 383.935 508.202 384.288 507.741C384.341 507.671 385.491 506.176 386.279 505.137C388.109 502.726 392.072 497.462 396.37 490.78L261.806 404.222ZM255.704 412.521L245.057 252.876C270.057 251.209 310.711 254.805 349.586 283.184C388.963 311.929 405.098 350.432 411.035 376.564L255.011 412.012L98.9867 447.459C105.007 473.959 121.301 512.729 160.909 541.643C200.017 570.192 240.976 573.859 266.351 572.167L255.704 412.521ZM255.011 412.012L404.433 469.222C416.636 437.349 424.936 400.978 424.86 360.728L264.86 361.029L104.861 361.331C104.857 359.146 105.087 357.264 105.359 355.895C105.619 354.582 105.831 354.167 105.588 354.802L255.011 412.012ZM264.86 361.029L424.86 360.726C424.761 308.658 405.931 264.752 402.057 254.562L252.499 311.416L102.941 368.27C103.794 370.513 104.394 372.086 105.013 373.733C105.597 375.286 106.027 376.453 106.369 377.407C107.072 379.369 107.168 379.786 107.024 379.278C106.707 378.163 104.88 371.442 104.861 361.332L264.86 361.029ZM252.499 311.416L402.07 254.596C389.435 221.335 374.709 191.06 361.369 165.059L219.013 238.099L76.6565 311.138C87.8716 332.996 96.4497 351.182 102.928 368.236L252.499 311.416ZM219.013 238.099L361.263 164.854C367.041 176.075 370.034 185.39 370.795 187.749C371.133 188.8 371.576 190.245 371.193 189.006C371.035 188.491 370.331 186.196 369.361 183.382L218.084 235.489L66.8065 287.596C65.9874 285.218 65.4223 283.366 65.4004 283.296C65.1552 282.5 65.7326 284.391 66.2134 285.883C67.2584 289.126 70.5663 299.31 76.7621 311.343L219.013 238.099ZM218.084 235.489L253.25 391.577C227.376 397.406 200.346 396.596 174.752 389.151C150.97 382.234 134.316 371.289 125.753 364.992C118.486 359.648 112.058 353.681 114.983 356.292C115.402 356.666 117.725 358.749 120.729 361.206C123.835 363.745 128.863 367.676 135.416 371.928L222.493 237.698L309.57 103.469C315.786 107.501 320.486 111.185 323.269 113.461C325.951 115.653 327.956 117.456 328.057 117.547C330.346 119.589 323.28 113.039 315.334 107.196C306.092 100.399 288.715 89.0375 264.127 81.8855C237.727 74.2065 209.807 73.3435 182.918 79.4017L218.084 235.489ZM222.493 237.698L135.381 371.905C147.116 379.522 164.931 391.315 183.963 402.223L263.524 263.406L343.086 124.59C333.623 119.166 324.729 113.308 309.605 103.491L222.493 237.698ZM263.524 263.406L403.335 185.606C394.527 169.778 385.731 153.964 376.068 136.594L236.248 214.378L96.4281 292.162C106.078 309.509 114.894 325.357 123.713 341.207L263.524 263.406ZM218.084 235.489L182.918 79.4017C183.123 79.3555 182.341 79.5302 181.493 79.7292C180.534 79.954 178.945 80.3353 176.992 80.8526L217.961 235.519L258.93 390.185C257.018 390.691 255.471 391.062 254.553 391.277C253.745 391.467 253.005 391.632 253.25 391.577L218.084 235.489ZM217.961 235.519L309.158 366.984L309.266 366.909L218.069 235.443L126.873 103.978L126.764 104.053L217.961 235.519ZM218.069 235.443L67.0017 288.156C66.665 287.19 66.3759 286.332 66.1373 285.61C65.8992 284.888 65.7 284.268 65.5468 283.784C65.3947 283.304 65.2733 282.913 65.1973 282.667C65.1586 282.541 65.127 282.439 65.1063 282.371C65.0865 282.307 65.0711 282.256 65.0691 282.25C65.0617 282.225 65.0748 282.268 65.0852 282.302C65.0985 282.346 65.1234 282.427 65.1548 282.529C65.2158 282.727 65.3232 283.075 65.4592 283.507C65.5966 283.944 65.7795 284.519 65.9997 285.192C66.2204 285.868 66.4906 286.679 66.8065 287.596L218.084 235.489L369.361 183.382C369.676 184.296 369.945 185.103 370.164 185.775C370.383 186.445 370.565 187.016 370.701 187.448C370.836 187.877 370.942 188.221 371.002 188.415C371.033 188.515 371.057 188.594 371.07 188.636C371.08 188.668 371.092 188.709 371.084 188.683C371.083 188.68 371.025 188.489 370.952 188.254C370.875 188.004 370.753 187.609 370.599 187.125C370.445 186.638 370.245 186.014 370.005 185.288C369.765 184.562 369.475 183.7 369.137 182.731L218.069 235.443Z" fill="#D9D9D9" mask="url(#path-36-inside-18_1733_460)"/>
<mask id="path-38-inside-19_1733_460" fill="white">
<path d="M183.656 163.429C178.648 172.338 172.99 179.669 167.673 187.25C160.169 197.937 148.518 201.285 137.267 205.427C132.067 207.339 127.001 209.469 122.168 212.174C121.859 212.149 121.675 211.998 121.625 211.689V211.681C135.614 187.592 153.517 168.522 183.656 163.429Z"/>
</mask>
<path d="M183.656 163.429L323.131 241.831L487.257 -50.1459L156.996 5.66557L183.656 163.429ZM167.673 187.25L298.621 279.188L298.646 279.152L298.671 279.117L167.673 187.25ZM137.267 205.427L192.485 355.596L192.51 355.587L192.535 355.578L137.267 205.427ZM122.168 212.174L109.233 371.65L157.802 375.59L200.322 351.788L122.168 212.174ZM121.625 211.689H-38.375V224.605L-36.3035 237.352L121.625 211.689ZM121.625 211.681L-16.7363 131.331L-38.375 168.592V211.681H121.625ZM183.656 163.429L44.1817 85.0269C45.0822 83.425 45.5061 82.9258 44.3782 84.5493C43.7652 85.4317 43.0167 86.4839 41.6599 88.3771C40.4991 89.9967 38.5861 92.6579 36.6751 95.3827L167.673 187.25L298.671 279.117C298.947 278.723 312.939 259.961 323.131 241.831L183.656 163.429ZM167.673 187.25L36.7245 95.3123C52.0517 73.4816 70.43 61.7625 80.9806 56.3628C83.4242 55.1122 85.397 54.2245 86.6722 53.6764C87.9307 53.1355 88.7256 52.8336 88.7629 52.8193C88.7958 52.8068 88.7057 52.8414 88.4334 52.9414C88.1514 53.045 87.7765 53.1813 87.1914 53.3924C86.3416 53.699 84.0452 54.522 81.9983 55.2755L137.267 205.427L192.535 355.578C193.301 355.296 193.83 355.109 195.8 354.398C197.384 353.826 199.883 352.921 202.655 351.865C208.101 349.791 216.849 346.301 226.77 341.223C247.835 330.443 275.791 311.706 298.621 279.188L167.673 187.25ZM137.267 205.427L82.0479 55.2572C72.634 58.7188 58.9846 64.1799 44.0143 72.56L122.168 212.174L200.322 351.788C195.017 354.757 191.5 355.959 192.485 355.596L137.267 205.427ZM122.168 212.174L135.103 52.6976C157.335 54.5008 193.674 62.3792 227.05 91.5296C261.619 121.722 275.174 159.072 279.554 186.027L121.625 211.689L-36.3035 237.352C-31.8733 264.615 -18.2017 302.196 16.5488 332.546C50.1067 361.856 86.6922 369.822 109.233 371.65L122.168 212.174ZM121.625 211.689H281.625V211.681H121.625H-38.375V211.689H121.625ZM121.625 211.681L259.986 292.031C261.778 288.946 258.834 295.079 249.654 302.811C238.69 312.045 224.555 318.786 210.317 321.192L183.656 163.429L156.996 5.66557C60.3624 21.9958 8.92308 87.1455 -16.7363 131.331L121.625 211.681Z" fill="#D9D9D9" mask="url(#path-38-inside-19_1733_460)"/>
<mask id="path-40-inside-20_1733_460" fill="white">
<path d="M134.784 201.411C134.367 202.154 133.816 202.204 133.148 201.753C133.549 201.461 133.941 201.177 134.342 200.885C134.484 201.06 134.634 201.235 134.784 201.402V201.411Z"/>
</mask>
<path d="M134.784 201.411L274.29 279.757L294.784 243.264V201.411H134.784ZM133.148 201.753L38.8587 72.4881L-145.282 206.806L43.6106 334.354L133.148 201.753ZM134.342 200.885L258.719 100.235L162.993 -18.057L40.0523 71.6197L134.342 200.885ZM134.784 201.402H294.784V140.021L253.731 94.3894L134.784 201.402ZM134.784 201.411L-4.72163 123.065C7.94886 100.503 41.333 56.1143 105.799 44.5455C165.024 33.917 208.049 59.2687 222.686 69.1523L133.148 201.753L43.6106 334.354C58.9154 344.688 102.55 370.24 162.322 359.514C227.334 347.847 261.203 303.061 274.29 279.757L134.784 201.411ZM133.148 201.753L227.438 331.018C227.499 330.974 227.577 330.917 227.795 330.759C227.974 330.629 228.292 330.398 228.632 330.15L134.342 200.885L40.0523 71.6197C39.9917 71.6639 39.9131 71.7211 39.6959 71.8789C39.5166 72.0092 39.1988 72.24 38.8587 72.4881L133.148 201.753ZM134.342 200.885L9.96507 301.535C11.9891 304.036 13.9633 306.332 15.8381 308.415L134.784 201.402L253.731 94.3894C255.305 96.1392 256.979 98.0845 258.719 100.235L134.342 200.885ZM134.784 201.402H-25.2156V201.411H134.784H294.784V201.402H134.784Z" fill="#D9D9D9" mask="url(#path-40-inside-20_1733_460)"/>
</svg>
