<svg width="31" height="24" viewBox="0 0 31 24" fill="none" xmlns="http://www.w3.org/2000/svg">
<rect x="2.26245" y="11.2287" width="10.8963" height="13.0849" transform="rotate(-24.5488 2.26245 11.2287)" stroke="#D9D9D9" stroke-width="0.6"/>
<path d="M13.7412 15.762L13.5823 16.064L13.8791 15.8955L17.9904 13.562L18.0238 13.5431L18.0359 13.5067L18.9249 10.8399L18.9844 10.6612L18.803 10.712L16.0251 11.4898L15.9836 11.5014L15.9636 11.5395L13.7412 15.762ZM19.219 10.2819L19.3586 10.4179L24.3588 7.19553L24.375 7.18507L24.3862 7.16932L28.7198 1.05792L28.5821 0.91733L22.3595 5.13973L22.3415 5.15193L22.3302 5.17049L19.219 10.2819Z" fill="#D9D9D9" stroke="#545353" stroke-width="0.2"/>
<path d="M5.57294 12.6891L11.2092 10.1855" stroke="#D9D9D9" stroke-width="0.6" stroke-linecap="round"/>
<path d="M6.36157 14.4645L11.9978 11.961" stroke="#D9D9D9" stroke-width="0.6" stroke-linecap="round"/>
<path d="M7.15021 16.24L12.7864 13.7365" stroke="#D9D9D9" stroke-width="0.6" stroke-linecap="round"/>
<path d="M7.93884 18.0155L13.5751 15.512" stroke="#D9D9D9" stroke-width="0.6" stroke-linecap="round"/>
<path d="M8.72748 19.791L14.3637 17.2874" stroke="#D9D9D9" stroke-width="0.6" stroke-linecap="round"/>
</svg>
