<?xml version="1.0" encoding="utf-8"?>
<!-- Generator: Adobe Illustrator 18.1.0, SVG Export Plug-In . SVG Version: 6.00 Build 0)  -->
<svg version="1.1" id="japan_copy" xmlns="http://www.w3.org/2000/svg" xmlns:xlink="http://www.w3.org/1999/xlink" x="0px" y="0px"
	 viewBox="0 161.9 960 236.6" enable-background="new 0 161.9 960 236.6" xml:space="preserve">
<g>
	<g>
		<path fill="#231815" d="M575.5,280.5c-1.4,3.8-3.4,7.2-5.8,10.6c-3.4,4.3-6.7,8.2-11,11c-4.3,2.9-8.6,5.3-13.9,7.2
			c-5.3,1.9-10.6,2.4-16.3,2.4c-7.2,0-13.9-1.4-20.6-4.3c-6.2-2.9-12-6.7-16.8-12c-4.8-4.8-8.6-11-11.5-17.8
			c-2.9-6.7-4.3-13.9-4.3-21.6c0-7.7,1.4-14.9,4.3-21.6c2.9-6.7,6.7-12.5,11.5-17.8c4.8-4.8,10.6-9.1,16.8-12
			c6.2-2.9,13.4-4.3,20.6-4.3c6.2,0,11.5,1,16.8,2.4c5.3,1.9,10.1,4.3,13.9,7.2c4.3,3.4,7.7,6.7,10.6,11c2.4,3.4,4.3,6.7,5.8,10.6
			H587c-1.9-6.2-4.8-12-8.6-17.3s-8.2-9.6-13-13.4c-4.8-3.8-10.6-6.7-16.8-8.6c-6.2-1.9-13-3.4-20.2-3.4c-8.6,0-16.8,1.9-25,5.3
			c-7.7,3.4-14.4,8.2-20.2,14.4c-5.8,6.2-10.1,13-13.4,21.1c-3.4,8.2-4.8,16.8-4.8,25.9s1.4,17.8,4.8,25.9
			c3.4,8.2,7.7,15.4,13.4,21.1c5.8,6.2,12.5,11,20.2,14.4c7.7,3.4,15.8,5.3,25,5.3c6.7,0,13.4-1,19.7-2.9c6.2-1.9,12-4.8,16.8-8.6
			c5.3-3.8,9.6-8.2,13.4-13.4c3.8-5.3,6.7-11,9.1-17.8L575.5,280.5z"/>
		<path fill="#231815" d="M717.6,229.6c-3.4-8.2-7.7-15.4-13.4-21.6c-5.8-6.2-12.5-10.6-20.6-14.4c-7.7-3.4-16.3-5.3-25.4-5.3
			c-8.6,0-17.3,1.9-25,5.3c-7.7,3.4-14.9,8.2-20.6,14.4c-5.8,6.2-10.6,13.4-13.9,21.6c-3.4,8.2-4.8,16.8-4.8,26.4s1.4,18.2,4.8,26.4
			s8.2,15.4,13.9,21.6c5.8,6.2,12.5,11,20.6,14.4c7.7,3.4,16.3,5.3,25,5.3s17.3-1.9,25-5.3c7.7-3.4,14.9-8.2,20.6-14.4
			c5.8-6.2,10.6-13.4,13.9-21.6s5.3-17.3,5.3-26.4C722.4,246.9,720.5,237.8,717.6,229.6z M707,278.1c-2.9,6.7-6.7,13-11.5,17.8
			c-4.8,5.3-10.6,9.1-16.8,12c-6.7,2.9-13.4,4.3-20.6,4.3s-14.4-1.4-20.6-4.3c-6.7-2.9-12-6.7-16.8-12c-4.8-4.8-8.6-11-11.5-17.8
			s-4.3-13.9-4.3-22.1c0-7.7,1.4-14.9,4.3-22.1c2.9-6.7,6.7-12.5,11.5-17.8s10.6-9.1,16.8-12c6.2-2.9,13.4-4.3,20.6-4.3
			s14.4,1.4,20.6,4.3c6.7,2.9,12,6.7,16.8,11.5c4.8,4.8,8.6,11,11,17.8c2.9,6.7,4.3,13.9,4.3,22.1
			C711.4,264.2,709.9,271.4,707,278.1z"/>
		<path fill="#231815" d="M829,318.4h-12v-31.7c0-6.2-1.9-11-4.8-14.4c-3.4-3.4-8.6-4.8-16.3-4.8h-49.9v51.4h-12V189.3h49.4
			c6.7,0,20.6,1,25.9,2.9c5.3,1.9,9.6,4.8,13.4,8.2s6.2,7.7,8.2,12.5c1.9,4.8,2.4,10.6,2.4,16.3c0,7.2-1,12.5-4.3,17.8
			s-7.7,9.6-13,13c9.1,5.3,13.4,14.4,13.4,27.4L829,318.4z M790.1,256c7.7,0,15.4-2.4,20.2-5.8c6.2-4.3,10.6-9.1,10.6-22.1
			c0-13.4-4.8-18.7-11-22.6c-4.3-3.4-13-5.3-21.1-5.3h-43.2V256H790.1z"/>
		<path fill="#231815" d="M938.9,188.8v11.5h-80.6v47h73v11.5h-73v48.5h80.6v11.5h-92.6V189.3h92.6V188.8z"/>
		<path fill="#231815" d="M958.6,315c-0.5,1-1,1.4-1.4,1.9c-0.5,0.5-1.4,1-1.9,1.4c-1,0.5-1.4,0.5-2.4,0.5c-1,0-1.9,0-2.4-0.5
			c-1-0.5-1.4-1-1.9-1.4c-0.5-0.5-1-1.4-1.4-1.9c-0.5-1-0.5-1.4-0.5-2.4s0-1.4,0.5-2.4c0.5-1,1-1.4,1.4-1.9c0.5-0.5,1.4-1,1.9-1.4
			c1-0.5,1.4-0.5,2.4-0.5c1,0,1.4,0,2.4,0.5c1,0.5,1.4,1,1.9,1.4c0.5,0.5,1,1.4,1.4,1.9c0.5,1,0.5,1.4,0.5,2.4
			S958.6,314.6,958.6,315z M957.1,310.7c-0.5-0.5-0.5-1-1-1.4c-0.5-0.5-1-1-1.4-1c-0.5-0.5-1.4-0.5-1.9-0.5s-1.4,0-1.9,0.5
			c-0.5,0.5-1,0.5-1.4,1c-0.5,0.5-1,1-1,1.4c-0.5,0.5-0.5,1.4-0.5,1.9s0,1.4,0.5,1.9c0.5,0.5,0.5,1,1,1.4c0.5,0.5,1,1,1.4,1
			c0.5,0.5,1.4,0.5,1.9,0.5c0.5,0,1.4,0,1.9-0.5c0.5-0.5,1-0.5,1.4-1c0.5-0.5,1-1,1-1.4c0.5-0.5,0.5-1.4,0.5-1.9
			S957.6,311.7,957.1,310.7z M955.7,316h-1.4l-1.4-2.4h-1.9v2.4h-1.4v-6.7h3.4c1,0,1.4,0,1.9,0.5c0.5,0.5,0.5,1,0.5,1.4
			c0,0.5,0,1-0.5,1.4c-0.5,0.5-0.5,0.5-1,1L955.7,316z M953.3,312.6c0.5,0,0.5,0,1,0c0,0,0.5-0.5,0.5-1c0-0.5,0-0.5-0.5-1
			c0,0-0.5,0-1,0h-1.9v1.9C951.4,312.6,953.3,312.6,953.3,312.6z"/>
		<path fill="#231815" d="M57.6,296.8c-3.4-0.5-6.2-1.9-9.1-3.8c-2.4-1.9-4.8-4.8-6.2-8.2c-1.4-3.4-2.4-8.2-2.4-13.4v-60h28.8v-22.1
			H39.8v-27.4H17.3v27.4H0v22.1h17.3v60c0,8.2,1.4,15.4,3.8,21.6s6.2,11.5,10.6,15.8c4.3,4.3,10.1,7.2,16.3,8.6
			c4.3,1,8.6,1.4,13.4,1.4c2.4,0,4.8,0,7.2-0.5h1v-21.1h-1C64.8,297.8,61,297.3,57.6,296.8z M166.1,268.5c0,4.8-1,9.1-2.4,13
			c-1.4,3.8-3.8,7.2-6.7,10.1c-2.9,2.9-6.2,5.3-10.1,6.7c-3.8,1.4-8.2,2.4-12.5,2.4c-10.1,0-17.3-2.9-22.6-8.6
			c-5.3-5.8-7.7-13.9-7.7-24v-78.7h-23V267c0,8.2,1,15.4,3.4,22.1c2.4,6.7,5.3,12.5,9.6,17.3c4.3,4.8,9.6,8.6,15.8,11.5
			c6.2,2.9,13.4,3.8,21.1,3.8c8.2,0,15.4-1.4,21.6-4.3c5.3-2.4,10.6-6.2,14.4-10.6v12h22.6V189.3h-23v79.2H166.1z M297.6,201.3
			c-4.3-4.8-9.6-8.6-15.8-11.5c-6.2-2.4-13.4-3.8-21.1-3.8c-7.7,0-15.4,1.4-21.6,4.8c-5.8,2.9-10.6,6.2-14.4,10.6v-12h-22.6v129.6
			h23v-79.2c0-4.8,1-9.1,2.4-13c1.4-3.8,3.8-7.2,6.7-10.1c2.9-2.9,6.2-5.3,10.1-6.7c3.8-1.4,8.2-2.4,13-2.4c9.6,0,17.3,2.9,22.6,9.1
			c5.3,6.2,7.7,13.9,7.7,23.5v78.2h23v-77.8c0-8.2-1-15.4-3.4-22.1C305.3,212.3,301.9,206.1,297.6,201.3z M451.2,259.4
			c0-11.5-1.9-21.6-5.3-30.7s-8.6-16.8-14.4-23c-6.2-6.2-13-11-21.1-14.4c-7.7-3.4-15.8-4.8-24.5-4.8c-9.1,0-17.8,1.9-25.4,5.3
			c-7.7,3.4-14.9,8.6-20.6,14.4c-5.8,6.2-10.6,13.4-13.9,21.6c-3.4,8.2-5.3,17.3-5.3,26.4c0,9.6,1.9,18.2,5.3,26.4
			s8.2,15.4,13.9,21.1c5.8,6.2,13,11,21.1,14.4c8.2,3.4,16.8,5.3,25.9,5.3c14.9,0,27.8-3.8,38.4-11c10.6-7.2,18.2-18.2,22.6-32.2
			l0.5-1.4h-24.5l-0.5,0.5c-3.4,7.2-8.2,13-14.4,16.8c-6.2,3.8-13.9,6.2-22.6,6.2c-5.3,0-10.1-1-14.9-2.9c-4.8-1.9-9.1-4.3-13-8.2
			c-3.8-3.4-7.2-7.7-10.1-13c-2.4-4.8-4.3-10.1-4.8-16.3h107.5V259.4z M345.6,239.7c1.4-4.8,3.4-9.1,5.8-13
			c2.9-4.3,6.2-7.7,9.6-10.6c3.8-2.9,7.7-5.3,12-6.7c8.6-2.9,17.8-2.9,25.9,0c4.3,1.4,8.2,3.8,11.5,6.7c3.4,2.9,6.7,6.7,9.1,10.6
			c2.4,3.8,4.3,8.2,5.8,12.5h-79.7V239.7z"/>
	</g>
	<g>
		<path fill="#231815" d="M373.9,388.5c-0.5,1.9-1.9,3.8-2.9,5.3c-1.4,1.4-2.9,2.4-4.8,3.4s-4.3,1.4-6.7,1.4s-4.3-0.5-6.2-1.4
			s-3.4-1.9-4.8-3.4c-1.4-1.4-2.4-2.9-3.4-4.8s-1-3.8-1-6.2h5.8c0,1.4,0,2.4,0.5,3.8c0.5,1.4,1,2.4,1.9,3.4c1,1,1.9,1.4,2.9,2.4
			c1.4,0.5,2.4,1,4.3,1c3.4,0,5.8-1,7.2-2.9c1.4-1.9,2.4-4.8,2.4-8.2v-30.7h5.8v30.7C374.9,384.2,374.9,386.6,373.9,388.5z"/>
		<path fill="#231815" d="M407,384.2l-4.8,13.4H396l17.3-46.1h6.2l17.3,46.1h-6.2l-4.8-13.4H407z M416.2,358.2l-7.7,20.6h14.9
			L416.2,358.2z"/>
		<path fill="#231815" d="M465.1,397.6h-5.8v-46.1H479c2.4,0,4.3,0.5,6.2,1c1.9,0.5,3.4,1.4,4.8,2.9s2.4,2.9,2.9,4.3
			c0.5,1.9,1,3.4,1,5.8c0,1.9-0.5,3.8-1,5.8c-0.5,1.9-1.4,3.4-2.9,4.3c-1.4,1.4-2.9,2.4-4.8,2.9c-1.9,0.5-3.8,1-6.2,1h-13.9V397.6z
			 M465.1,356.8v17.3H479c2.9,0,4.8-0.5,6.7-1.9s2.4-3.4,2.4-6.7c0-2.9-1-5.3-2.4-6.7c-1.9-1.4-3.8-1.9-6.7-1.9L465.1,356.8
			L465.1,356.8z"/>
		<path fill="#231815" d="M520.8,384.2l-4.8,13.4h-6.2l17.3-46.1h6.2l17.3,46.1h-6.2l-4.8-13.4H520.8z M530.4,358.2l-7.7,20.6h14.9
			L530.4,358.2z"/>
		<path fill="#231815" d="M610.1,397.6h-6.2l-25-37.4v37.4h-5.8v-46.1h6.2l25,37.4v-37.4h5.8V397.6z"/>
	</g>
</g>
</svg>
