<svg width="328" height="184" viewBox="0 0 328 184" fill="none" xmlns="http://www.w3.org/2000/svg">
<path d="M17.9775 172H0V8.56543H17.9775V172ZM32.7891 8.56543C34.5931 8.56543 36.3168 8.62163 37.96 8.7334L37.8447 8.56543H84.9023L93.585 62.2949L106.864 155.759H162.488L160.445 172H93.6865L83.9834 113.98L72.2363 24.6025H63.2734C64.5053 28.2408 65.1726 32.5646 65.2715 37.5752C65.4758 50.1051 65.6126 62.022 65.6807 73.3262C65.7488 84.6304 65.7488 95.935 65.6807 107.239C65.6126 118.475 65.4758 130.359 65.2715 142.889C65.0671 153.239 62.5133 160.696 57.6104 165.259C53.5779 168.955 47.4726 171.129 39.2949 171.785L38.8447 172C38.8491 171.939 38.8551 171.879 38.8613 171.818C37.2251 171.938 35.5072 172 33.708 172H29.2139V155.861H33.708C38.6108 155.861 42.084 154.975 44.127 153.205C46.1698 151.435 47.2258 148.507 47.2939 144.421C47.4982 134.342 47.6685 124.911 47.8047 116.126C47.9409 107.273 48.0088 98.6591 48.0088 90.2832C48.0088 85.7171 47.9871 81.0908 47.9473 76.4053C47.83 71.7632 47.7579 67.0139 47.7676 62.0801C47.6376 53.8806 47.481 45.1672 47.2939 35.9404C47.2258 31.9228 46.1019 29.0628 43.9229 27.3604C41.7437 25.5899 38.0325 24.7051 32.7891 24.7051H29.2139V8.56543H32.7891ZM203.755 155.759H227.045L225.717 172H189.863L179.24 25.2148H171.17L165.165 119.395L163.407 147.894H147.574L153.559 71.6924L158.096 9.58691H192.008L203.755 155.759ZM227.657 147.894H211.927L219.69 8.56543H236.872L227.657 147.894ZM130.153 147.587H114.219L113.095 68.0146L112.073 8.56543H130.153V147.587Z" fill="#D9D9D9"/>
<path d="M262.599 88.6433C257.882 88.2804 254.467 86.9443 252.356 84.635C250.278 82.3257 249.205 78.7463 249.14 73.8967C249.074 69.0472 249.024 64.544 248.991 60.3873C248.958 56.1976 248.942 52.1398 248.942 48.214C248.942 44.2551 248.958 40.2304 248.991 36.1396C249.024 32.0158 249.074 27.6116 249.14 22.9271C249.205 18.0775 250.278 14.4981 252.356 12.1888C254.467 9.84648 257.882 8.51038 262.599 8.18048V15.7517C260.917 16.0486 259.729 16.7249 259.037 17.7806C258.344 18.8363 257.981 20.4363 257.948 22.5807C257.783 27.3972 257.667 31.8839 257.601 36.0406C257.568 40.1644 257.552 44.2057 257.552 48.1645C257.552 52.0903 257.568 56.1646 257.601 60.3873C257.667 64.61 257.783 69.2286 257.948 74.2431C257.981 76.3875 258.344 77.9875 259.037 79.0432C259.729 80.0989 260.917 80.7752 262.599 81.0721V88.6433ZM268.142 88.5938V81.0226C269.824 80.7257 270.995 80.0659 271.655 79.0432C272.315 77.9875 272.661 76.3875 272.694 74.2431C272.826 69.3276 272.925 64.7915 272.991 60.6347C273.09 56.445 273.14 52.3872 273.14 48.4614C273.14 44.5026 273.09 40.4283 272.991 36.2386C272.925 32.0488 272.826 27.4962 272.694 22.5807C272.661 20.4363 272.315 18.8363 271.655 17.7806C270.995 16.7249 269.824 16.0486 268.142 15.7517V8.22996C272.694 8.59286 275.993 9.94545 278.039 12.2877C280.117 14.5971 281.222 18.1435 281.354 22.9271C281.453 27.6446 281.519 32.0653 281.552 36.1891C281.618 40.2798 281.651 44.3046 281.651 48.2634C281.651 52.1893 281.618 56.2305 281.552 60.3873C281.519 64.544 281.453 69.0472 281.354 73.8967C281.222 78.7133 280.117 82.2762 278.039 84.5855C275.993 86.8618 272.694 88.1979 268.142 88.5938Z" fill="#D9D9D9"/>
<path d="M314.635 88L307.311 58.1605H305.084V50.3418H306.767C309.109 50.3418 310.775 49.9294 311.765 49.1047C312.754 48.2469 313.266 46.8449 313.299 44.8984C313.398 42.0943 313.464 39.4881 313.496 37.0798C313.562 34.6715 313.579 32.2797 313.546 29.9045C313.546 27.4962 313.464 24.89 313.299 22.0858C313.2 20.1064 312.672 18.7043 311.715 17.8796C310.758 17.0548 309.125 16.6424 306.816 16.6424H304.837V8.82379H306.816C312.094 8.82379 315.905 9.87947 318.247 11.9908C320.622 14.1022 321.876 17.5827 322.008 22.4322C322.14 25.4013 322.222 28.09 322.255 30.4983C322.288 32.9066 322.288 35.2324 322.255 37.4757C322.222 39.719 322.14 42.0778 322.008 44.5521C321.81 50.7872 319.649 54.812 315.525 56.6264L323.74 88H314.635ZM290.733 88V8.82379H299.443V88H290.733Z" fill="#D9D9D9"/>
<path d="M250.733 173V135.094H261.67L268.498 111.045L274.189 93.8238H283.641L259.591 159.342V173H250.733ZM275.822 173L268.548 148.109L273.694 135.342L284.779 173H275.822ZM250.733 130.294V93.8238H259.888L259.839 111.045L258.948 130.294H250.733Z" fill="#D9D9D9"/>
<path d="M303.709 173.643C299.156 173.28 295.824 171.977 293.713 169.734C291.634 167.491 290.513 163.994 290.348 159.243C290.315 157.462 290.282 155.779 290.249 154.196C290.249 152.612 290.265 151.012 290.298 149.396C290.364 147.779 290.447 146.064 290.546 144.249H298.859C298.727 147.086 298.645 149.841 298.612 152.513C298.612 155.152 298.694 157.808 298.859 160.48C298.958 162.196 299.371 163.499 300.096 164.39C300.822 165.247 302.026 165.808 303.709 166.072V173.643ZM309.152 173.643V166.072C310.703 165.775 311.824 165.198 312.517 164.34C313.21 163.482 313.622 162.196 313.754 160.48C313.886 159.062 313.952 157.561 313.952 155.977C313.985 154.394 313.969 152.81 313.903 151.227C313.87 149.643 313.82 148.158 313.754 146.773C313.655 144.266 313.111 142.369 312.121 141.082C311.132 139.795 309.564 138.872 307.42 138.311L301.432 136.876C298.628 136.183 296.418 135.193 294.801 133.907C293.218 132.587 292.08 130.839 291.387 128.661C290.694 126.451 290.298 123.696 290.199 120.397C290.166 118.352 290.15 116.241 290.15 114.063C290.183 111.886 290.216 109.676 290.249 107.432C290.381 102.715 291.486 99.2507 293.564 97.0403C295.676 94.797 299.057 93.5104 303.709 93.1805V100.752C302.092 101.016 300.921 101.576 300.195 102.434C299.47 103.292 299.057 104.579 298.958 106.294C298.826 108.702 298.76 111.045 298.76 113.321C298.793 115.564 298.859 117.923 298.958 120.397C299.057 123.037 299.47 125.016 300.195 126.336C300.921 127.622 302.175 128.48 303.956 128.909L309.498 130.146C312.666 130.872 315.173 131.911 317.02 133.263C318.901 134.616 320.253 136.397 321.078 138.608C321.936 140.785 322.414 143.507 322.513 146.773C322.579 148.059 322.612 149.429 322.612 150.88C322.612 152.332 322.596 153.767 322.563 155.185C322.563 156.604 322.53 157.957 322.464 159.243C322.266 163.994 321.128 167.507 319.049 169.783C317.004 172.027 313.705 173.313 309.152 173.643ZM313.606 121.535C313.705 118.632 313.754 115.96 313.754 113.519C313.787 111.045 313.754 108.636 313.655 106.294C313.622 104.579 313.243 103.292 312.517 102.434C311.824 101.543 310.703 100.983 309.152 100.752V93.1805C313.606 93.5434 316.839 94.8465 318.851 97.0898C320.897 99.3001 322.002 102.764 322.167 107.482C322.233 109.494 322.249 111.704 322.216 114.113C322.183 116.488 322.134 118.962 322.068 121.535H313.606Z" fill="#D9D9D9"/>
</svg>
