<svg width="32" height="32" viewBox="0 0 32 32" fill="none" xmlns="http://www.w3.org/2000/svg">
<path fill-rule="evenodd" clip-rule="evenodd" d="M12.3697 8.41115L9.41598 10.9978V21.5285L12.3697 24.1161C12.9632 24.7421 13.8327 24.2149 13.8327 23.2754V9.23478C13.8327 8.31236 12.8804 7.90012 12.3697 8.41115ZM8.5472 11.4109H5.95225C5.44153 11.4109 5 11.9219 5 12.4492V20.0789C5 20.7049 5.44153 21.2159 5.95225 21.2159H8.5472V11.4109ZM16.7864 10.1742C16.4419 9.64701 15.7379 9.64701 15.3099 10.1742C14.8819 10.6853 14.8819 11.5089 15.3099 11.9211C17.2978 14.409 17.2978 18.2162 15.3099 20.6053C14.8819 21.0175 14.8819 21.8411 15.3099 22.3522C15.4896 22.6656 15.8342 22.7644 16.0831 22.7644C16.2621 22.7644 16.6074 22.5668 16.7864 22.3522C19.6431 19.0568 19.6431 13.5854 16.7864 10.1742ZM18.0011 7.27411C17.5596 7.78514 17.5596 8.62495 18.0011 9.13684C19.6431 10.9987 20.4991 13.5862 20.4991 16.2564C20.4991 19.0577 19.6431 21.5302 18.0011 23.4909C17.5596 23.9031 17.5596 24.7429 18.0011 25.254C18.2494 25.5674 18.5119 25.5674 18.7736 25.5674C19.0354 25.5674 19.2979 25.5674 19.4634 25.254C21.5476 22.8811 22.5826 19.6675 22.5826 16.2564C22.5826 12.9602 21.5476 9.76283 19.4634 7.38993C19.2979 7.07735 19.0354 6.96152 18.7736 6.96152C18.5119 6.96067 18.2494 7.07651 18.0011 7.27411ZM21.6311 5.41224C21.1068 6.03826 21.1068 7.07652 21.6311 7.58755C23.4528 9.86165 24.4878 12.8444 24.4878 16.0579C24.4878 19.1565 23.4528 22.1554 21.6311 24.4295C21.1068 25.0393 21.1068 25.9779 21.6311 26.5878C21.8101 26.9012 22.1553 27 22.5006 27C22.7623 27 23.1083 26.9012 23.3701 26.5878C25.7025 23.8026 27 19.9792 27 16.0579C27 12.0369 25.7025 8.31236 23.3701 5.52723C23.1083 5.2138 22.8458 5 22.5006 5H22.4036C22.1553 5 21.8101 5.21379 21.6311 5.41224Z" fill="#414040"/>
</svg>
