<svg width="32" height="32" viewBox="0 0 32 32" fill="none" xmlns="http://www.w3.org/2000/svg">
<path d="M16.0006 8C16.0594 8.00001 23.5151 8.00223 25.3766 8.50586C25.884 8.64243 26.3469 8.90972 26.7184 9.28125C27.0899 9.65278 27.3572 10.1157 27.4938 10.623C27.8426 12.5285 28.0122 14.4624 27.9997 16.3994C28.0122 18.3366 27.8427 20.2712 27.4938 22.1768C27.3572 22.6839 27.0898 23.1462 26.7184 23.5176C26.3469 23.8891 25.884 24.1564 25.3766 24.293C23.5152 24.7966 16.0594 24.7988 16.0006 24.7988C16.0006 24.7988 8.49216 24.7987 6.62369 24.293C6.11636 24.1564 5.6534 23.8891 5.28189 23.5176C4.91059 23.1462 4.64306 22.6839 4.5065 22.1768C4.15762 20.2712 3.98814 18.3366 4.00064 16.3994C3.98815 14.4624 4.15767 12.5284 4.5065 10.623C4.64305 10.1158 4.91045 9.65275 5.28189 9.28125C5.65342 8.90972 6.11633 8.64243 6.62369 8.50586C8.49216 8.00017 16.0006 8 16.0006 8ZM15.1003 13.666C14.4337 13.2814 13.6003 13.7626 13.6003 14.5322V18.2666C13.6003 19.0364 14.4336 19.5176 15.1003 19.1328L18.3327 17.2656C18.999 16.8807 18.999 15.9182 18.3327 15.5332L15.1003 13.666Z" fill="white"/>
</svg>
